<?xml version="1.0" encoding="utf-8"?>
<!-- Generator: Adobe Illustrator 17.0.0, SVG Export Plug-In . SVG Version: 6.00 Build 0)  -->
<!DOCTYPE svg PUBLIC "-//W3C//DTD SVG 1.1//EN" "http://www.w3.org/Graphics/SVG/1.1/DTD/svg11.dtd">
<svg version="1.1" id="Layer_1" xmlns="http://www.w3.org/2000/svg" xmlns:xlink="http://www.w3.org/1999/xlink" x="0px" y="0px"
	 width="595.28px" height="841.89px" viewBox="0 0 595.28 841.89" enable-background="new 0 0 595.28 841.89" xml:space="preserve">
<g id="_1">
	<g>
		<g>
			
				<linearGradient id="SVGID_1_" gradientUnits="userSpaceOnUse" x1="162.4774" y1="607.9519" x2="275.4147" y2="607.9519" gradientTransform="matrix(0.7382 0 0 -0.7382 0.0167 743.972)">
				<stop  offset="0" style="stop-color:#E1A556"/>
				<stop  offset="1" style="stop-color:#E1B556"/>
			</linearGradient>
			<path fill="url(#SVGID_1_)" d="M195.009,254.13h-67.003c-4.023,0-8.053,3.979-8.053,7.95v66.243c0,3.971,4.03,7.95,8.053,7.95
				h67.003c4.023,0,8.053-3.979,8.053-7.95V262.08C204.391,258.109,200.383,254.13,195.009,254.13z M194.876,328.154h-66.693V262.25
				h66.693V328.154z"/>
			
				<linearGradient id="SVGID_2_" gradientUnits="userSpaceOnUse" x1="184.3174" y1="603.5057" x2="253.8749" y2="603.5057" gradientTransform="matrix(0.7382 0 0 -0.7382 0.0167 743.972)">
				<stop  offset="0" style="stop-color:#E1A556"/>
				<stop  offset="1" style="stop-color:#E1B556"/>
			</linearGradient>
			<path fill="url(#SVGID_2_)" d="M178.548,279.796l-24.271,24.928l-8.4-8.304c-1.868-1.853-5.603-1.853-8.408,0
				c-1.86,1.838-1.86,5.536,0,8.304l12.135,11.98c1.033,0.974,2.334,1.617,3.735,1.845c1.86,0,2.798-0.923,3.735-1.845
				l28.944-28.597c1.868-1.845,1.868-5.536,0-8.312C185.088,277.958,181.346,277.958,178.548,279.796z"/>
		</g>
		<g>
			
				<linearGradient id="SVGID_3_" gradientUnits="userSpaceOnUse" x1="162.4774" y1="437.9519" x2="275.4147" y2="437.9519" gradientTransform="matrix(0.7382 0 0 -0.7382 0.0167 743.972)">
				<stop  offset="0" style="stop-color:#E1A556"/>
				<stop  offset="1" style="stop-color:#E1B556"/>
			</linearGradient>
			<path fill="url(#SVGID_3_)" d="M195.009,379.619h-67.003c-4.023,0-8.053,3.979-8.053,7.95v66.243c0,3.971,4.03,7.95,8.053,7.95
				h67.003c4.023,0,8.053-3.979,8.053-7.95v-66.243C204.391,383.597,200.383,379.619,195.009,379.619z M194.876,453.642h-66.693
				v-65.904h66.693V453.642z"/>
			
				<linearGradient id="SVGID_4_" gradientUnits="userSpaceOnUse" x1="184.3174" y1="433.5056" x2="253.8749" y2="433.5056" gradientTransform="matrix(0.7382 0 0 -0.7382 0.0167 743.972)">
				<stop  offset="0" style="stop-color:#E1A556"/>
				<stop  offset="1" style="stop-color:#E1B556"/>
			</linearGradient>
			<path fill="url(#SVGID_4_)" d="M178.548,405.285l-24.271,24.928l-8.4-8.304c-1.868-1.853-5.603-1.853-8.408,0
				c-1.86,1.838-1.86,5.536,0,8.304l12.135,11.98c1.033,0.974,2.334,1.617,3.735,1.845c1.86,0,2.798-0.923,3.735-1.845
				l28.944-28.597c1.868-1.845,1.868-5.536,0-8.312C185.088,403.447,181.346,403.447,178.548,405.285z"/>
		</g>
		<g>
			
				<linearGradient id="SVGID_5_" gradientUnits="userSpaceOnUse" x1="162.4774" y1="267.9519" x2="275.4147" y2="267.9519" gradientTransform="matrix(0.7382 0 0 -0.7382 0.0167 743.972)">
				<stop  offset="0" style="stop-color:#E1A556"/>
				<stop  offset="1" style="stop-color:#E1B556"/>
			</linearGradient>
			<path fill="url(#SVGID_5_)" d="M195.009,505.107h-67.003c-4.023,0-8.053,3.979-8.053,7.95V579.3c0,3.971,4.03,7.95,8.053,7.95
				h67.003c4.023,0,8.053-3.979,8.053-7.95v-66.243C204.391,509.086,200.383,505.107,195.009,505.107z M194.876,579.131h-66.693
				v-65.904h66.693V579.131z"/>
			
				<linearGradient id="SVGID_6_" gradientUnits="userSpaceOnUse" x1="184.3174" y1="263.5056" x2="253.8749" y2="263.5056" gradientTransform="matrix(0.7382 0 0 -0.7382 0.0167 743.972)">
				<stop  offset="0" style="stop-color:#E1A556"/>
				<stop  offset="1" style="stop-color:#E1B556"/>
			</linearGradient>
			<path fill="url(#SVGID_6_)" d="M178.548,530.773l-24.271,24.928l-8.4-8.304c-1.868-1.853-5.603-1.853-8.408,0
				c-1.86,1.838-1.86,5.536,0,8.304l12.135,11.98c1.033,0.974,2.334,1.617,3.735,1.845c1.86,0,2.798-0.923,3.735-1.845
				l28.944-28.597c1.868-1.845,1.868-5.536,0-8.312C185.088,528.935,181.346,528.935,178.548,530.773z"/>
		</g>
		
			<linearGradient id="SVGID_7_" gradientUnits="userSpaceOnUse" x1="71.3074" y1="437.6019" x2="580.0874" y2="437.6019" gradientTransform="matrix(0.7382 0 0 -0.7382 0.0167 743.972)">
			<stop  offset="0" style="stop-color:#E1A556"/>
			<stop  offset="1" style="stop-color:#E1B556"/>
		</linearGradient>
		<path fill="url(#SVGID_7_)" d="M407.549,470.657v192.78H73.322V178.461h334.227v23.828c3.794-0.325,7.625-0.49,11.493-0.495
			c3.086,0,6.144,0.106,9.175,0.317v-30.435c-0.004-7.667-6.218-13.881-13.885-13.885H66.538
			c-7.667,0.004-13.881,6.218-13.885,13.885v498.536c0.004,7.668,6.217,13.884,13.885,13.892h347.795
			c7.668-0.008,13.881-6.224,13.885-13.892V470.827c-3.034,0.207-6.09,0.325-9.175,0.325
			C415.175,471.151,411.344,470.982,407.549,470.657z"/>
		<g>
			<path fill="#FFFFFF" d="M485.839,270.828L485.839,270.828l-0.524-0.517c-36.947-36.068-95.923-36.068-132.87,0
				c-0.281-0.008-0.516,0.213-0.524,0.494c0,0.007,0,0.015,0,0.022c-26.629,26.614-34.642,66.631-20.314,101.446l0,0
				c4.677,11.23,11.588,21.391,20.314,29.866c-0.004,0.281,0.22,0.513,0.502,0.517c0.007,0,0.015,0,0.022,0
				c36.944,36.076,95.926,36.076,132.87,0c0.281,0.008,0.516-0.213,0.524-0.494c0-0.007,0-0.015,0-0.022c0-0.509,0,0,0.517-0.509
				c17.192-17.517,27.091-40.688,27.091-65.402C513.327,311.621,503.389,288.078,485.839,270.828z M493.132,339.832h13.538
				c-0.517,9.271-2.082,18.535-5.167,26.781l-7.293-3.093c-1.565-0.517-3.647,0-4.171,1.543c-0.524,1.543,0,3.61,1.565,4.126
				l7.293,3.086c-4.171,8.238-9.382,16.483-15.627,23.171l-9.899-9.781c-1.041-1.026-3.122-1.026-4.687,0
				c-1.041,1.026-1.041,3.093,0,4.636l9.862,9.818c-6.871,6.191-14.573,11.391-22.883,15.45l-3.167-7.249
				c-0.535-1.506-2.19-2.293-3.696-1.758c-0.162,0.058-0.319,0.129-0.468,0.215c-1.565,0.517-2.606,2.576-1.565,4.119l3.122,7.212
				c-8.879,3.217-18.179,5.124-27.607,5.662v-13.383c-0.084-1.727-1.552-3.058-3.278-2.974c-1.609,0.078-2.896,1.365-2.974,2.974
				v13.353c-9.375-0.509-18.749-2.06-27.083-5.167l2.598-7.729c0.524-1.543,0-3.602-1.557-4.119c-1.558-0.517-3.647,0-4.171,1.543
				l-3.122,7.212c-8.334-4.119-16.675-9.271-23.444-15.45l9.899-9.781c1.041-1.033,1.041-3.093,0-4.636
				c-1.041-1.026-3.13-1.026-4.687,0l-9.899,9.781c-6.249-6.754-11.51-14.359-15.627-22.588l7.293-3.086
				c1.558-0.509,2.606-2.576,1.558-4.119c-0.529-1.504-2.177-2.294-3.681-1.764c-0.167,0.059-0.329,0.133-0.483,0.222l-7.293,3.086
				c-3.252-8.77-5.183-17.975-5.728-27.312h14.062c1.706,0.083,3.157-1.232,3.24-2.938c0.083-1.706-1.232-3.157-2.938-3.24
				c-0.101-0.005-0.202-0.005-0.302,0H331.12c0.524-9.271,2.089-18.535,5.211-26.781l7.293,3.093c1.565,0.517,3.647,0,4.163-1.55
				c0.517-1.55,0-3.602-1.558-4.119l-7.293-3.093c4.163-8.245,9.375-16.483,15.627-23.171l9.899,9.781
				c0.886,1.15,2.536,1.364,3.686,0.478c0.179-0.138,0.34-0.299,0.478-0.478c1.048-1.026,1.048-3.093,0-4.636l-9.877-9.773
				c6.868-6.195,14.57-11.396,22.883-15.45l3.122,7.212c0.539,1.509,2.199,2.295,3.708,1.756c0.16-0.057,0.315-0.128,0.463-0.213
				c1.558-0.517,2.598-2.576,1.558-4.119l-3.122-7.212c8.879-3.217,18.179-5.124,27.607-5.662v13.383
				c0.084,1.727,1.552,3.058,3.278,2.974c1.609-0.078,2.896-1.365,2.974-2.974v-13.383c9.375,0.509,18.749,2.052,27.091,5.167
				l-3.108,7.197c-0.517,1.55,0,3.602,1.565,4.119s3.647,0,4.171-1.55l3.122-7.205c8.334,4.119,16.668,9.271,23.444,15.45
				l-9.899,9.781c-1.041,1.033-1.041,3.093,0,4.636c1.041,1.033,3.122,1.033,4.687,0l9.899-9.781
				c6.247,6.78,11.508,14.407,15.627,22.654l-7.293,3.093c-1.565,0.517-2.606,2.569-1.565,4.119c0.56,1.228,1.773,2.028,3.122,2.059
				h1.048l7.293-3.086c3.249,8.771,5.18,17.975,5.728,27.312h-13.545c-1.668,0.102-3.004,1.42-3.13,3.086
				C489.479,338.289,491.043,339.832,493.132,339.832L493.132,339.832z"/>
			<path fill="#FFFFFF" d="M419.043,212.896c-68.258,0-123.591,55.334-123.591,123.591s55.334,123.591,123.591,123.591
				s123.591-55.334,123.591-123.591l0,0C542.634,268.23,487.3,212.896,419.043,212.896z M419.043,449.774
				c-62.57,0-113.294-50.723-113.294-113.294s50.723-113.294,113.294-113.294S532.337,273.91,532.337,336.48
				c0,0.002,0,0.005,0,0.007C532.332,399.055,481.61,449.774,419.043,449.774z"/>
			<path fill="#FFFFFF" d="M453.855,293.822l-22.883,22.588c-8.858-5.832-21.407-5.101-28.789,2.916
				c-7.822,7.466-9.073,19.505-2.953,28.419l-8.858,8.747c-1.476,1.476-1.476,4.377,0,6.57c1.476,1.476,4.429,1.476,6.643,0
				l8.858-8.755c8.858,5.832,21.407,5.108,28.789-2.953c7.819-7.468,9.07-19.504,2.953-28.419l22.883-22.595
				c1.476-1.476,1.476-4.37,0-6.555C458.284,291.666,455.338,291.666,453.855,293.822z M428.019,345.56
				c-5.167,5.108-14.025,5.108-19.931,0c-5.167-5.101-5.167-13.841,0-19.68c5.167-5.093,14.025-5.093,19.931,0
				c5.197,5.138,5.197,13.885,0.037,19.709L428.019,345.56z"/>
		</g>
		<g>
			
				<linearGradient id="SVGID_8_" gradientUnits="userSpaceOnUse" x1="296.8675" y1="629.0919" x2="406.6175" y2="629.0919" gradientTransform="matrix(0.7382 0 0 -0.7382 0.0167 743.972)">
				<stop  offset="0" style="stop-color:#E1A556"/>
				<stop  offset="1" style="stop-color:#E1B556"/>
			</linearGradient>
			<path fill="url(#SVGID_8_)" d="M219.154,273.323v12.549h75.108c1.748-4.283,3.719-8.472,5.905-12.549H219.154z"/>
			
				<linearGradient id="SVGID_9_" gradientUnits="userSpaceOnUse" x1="296.8675" y1="605.0919" x2="394.8774" y2="605.0919" gradientTransform="matrix(0.7382 0 0 -0.7382 0.0167 743.972)">
				<stop  offset="0" style="stop-color:#E1A556"/>
				<stop  offset="1" style="stop-color:#E1B556"/>
			</linearGradient>
			<path fill="url(#SVGID_9_)" d="M219.154,293.253v8.12h69.882c0.738-2.746,1.56-5.453,2.465-8.12H219.154z"/>
			
				<linearGradient id="SVGID_10_" gradientUnits="userSpaceOnUse" x1="296.8675" y1="584.0919" x2="389.1674" y2="584.0919" gradientTransform="matrix(0.7382 0 0 -0.7382 0.0167 743.972)">
				<stop  offset="0" style="stop-color:#E1A556"/>
				<stop  offset="1" style="stop-color:#E1B556"/>
			</linearGradient>
			<path fill="url(#SVGID_10_)" d="M219.154,308.755v8.12h66.656c0.399-2.741,0.891-5.448,1.476-8.12H219.154z"/>
			
				<linearGradient id="SVGID_11_" gradientUnits="userSpaceOnUse" x1="296.8675" y1="459.0919" x2="416.0974" y2="459.0919" gradientTransform="matrix(0.7382 0 0 -0.7382 0.0167 743.972)">
				<stop  offset="0" style="stop-color:#E1A556"/>
				<stop  offset="1" style="stop-color:#E1B556"/>
			</linearGradient>
			<path fill="url(#SVGID_11_)" d="M219.154,398.811v12.549h88.012c-2.712-4.047-5.206-8.236-7.47-12.549H219.154z"/>
			
				<linearGradient id="SVGID_12_" gradientUnits="userSpaceOnUse" x1="296.8675" y1="435.0919" x2="428.8675" y2="435.0919" gradientTransform="matrix(0.7382 0 0 -0.7382 0.0167 743.972)">
				<stop  offset="0" style="stop-color:#E1A556"/>
				<stop  offset="1" style="stop-color:#E1B556"/>
			</linearGradient>
			<path fill="url(#SVGID_12_)" d="M219.154,418.742v8.12h97.438v-3.078c-1.403-1.649-2.768-3.329-4.097-5.042H219.154z"/>
			
				<linearGradient id="SVGID_13_" gradientUnits="userSpaceOnUse" x1="296.8675" y1="414.0919" x2="428.8675" y2="414.0919" gradientTransform="matrix(0.7382 0 0 -0.7382 0.0167 743.972)">
				<stop  offset="0" style="stop-color:#E1A556"/>
				<stop  offset="1" style="stop-color:#E1B556"/>
			</linearGradient>
			<rect x="219.154" y="434.243" fill="url(#SVGID_13_)" width="97.438" height="8.12"/>
			
				<linearGradient id="SVGID_14_" gradientUnits="userSpaceOnUse" x1="296.8675" y1="289.0919" x2="478.8675" y2="289.0919" gradientTransform="matrix(0.7382 0 0 -0.7382 0.0167 743.972)">
				<stop  offset="0" style="stop-color:#E1A556"/>
				<stop  offset="1" style="stop-color:#E1B556"/>
			</linearGradient>
			<rect x="219.154" y="524.299" fill="url(#SVGID_14_)" width="134.346" height="12.549"/>
			
				<linearGradient id="SVGID_15_" gradientUnits="userSpaceOnUse" x1="296.8675" y1="265.0919" x2="428.8675" y2="265.0919" gradientTransform="matrix(0.7382 0 0 -0.7382 0.0167 743.972)">
				<stop  offset="0" style="stop-color:#E1A556"/>
				<stop  offset="1" style="stop-color:#E1B556"/>
			</linearGradient>
			<rect x="219.154" y="544.23" fill="url(#SVGID_15_)" width="97.438" height="8.12"/>
			
				<linearGradient id="SVGID_16_" gradientUnits="userSpaceOnUse" x1="296.8675" y1="244.0919" x2="428.8675" y2="244.0919" gradientTransform="matrix(0.7382 0 0 -0.7382 0.0167 743.972)">
				<stop  offset="0" style="stop-color:#E1A556"/>
				<stop  offset="1" style="stop-color:#E1B556"/>
			</linearGradient>
			<rect x="219.154" y="559.732" fill="url(#SVGID_16_)" width="97.438" height="8.12"/>
		</g>
	</g>
</g>
</svg>
