<svg xmlns="http://www.w3.org/2000/svg" viewBox="0 0 806.43 806.43">
  <g id="_1" data-name="1">
    <g>
      <g>
        <path d="M236.85,177.23H146.08c-5.45,0-10.91,5.39-10.91,10.77v89.74c0,5.38,5.46,10.77,10.91,10.77h90.77c5.45,0,10.91-5.39,10.91-10.77V188C249.56,182.62,244.13,177.23,236.85,177.23Zm-.22,100.28H146.32V188.23h90.31Z" style="fill: #fff"/>
        <path d="M214.55,212l-32.89,33.77-11.38-11.25c-2.53-2.51-7.59-2.51-11.39,0-2.52,2.49-2.52,7.5,0,11.25L175.34,262a9.64,9.64,0,0,0,5.06,2.5c2.53,0,3.79-1.25,5.06-2.5l39.21-38.76c2.53-2.5,2.53-7.5,0-11.26C223.41,209.51,218.34,209.51,214.55,212Z" style="fill: #fff"/>
      </g>
      <g>
        <path d="M236.85,347.23H146.08c-5.45,0-10.91,5.39-10.91,10.77v89.74c0,5.38,5.46,10.77,10.91,10.77h90.77c5.45,0,10.91-5.39,10.91-10.77V358C249.56,352.62,244.13,347.23,236.85,347.23Zm-.22,100.28H146.32V358.23h90.31Z" style="fill: #fff"/>
        <path d="M214.55,382l-32.89,33.77-11.38-11.25c-2.53-2.51-7.59-2.51-11.39,0-2.52,2.49-2.52,7.5,0,11.25L175.34,432a9.64,9.64,0,0,0,5.06,2.5c2.53,0,3.79-1.25,5.06-2.5l39.21-38.76c2.53-2.5,2.53-7.5,0-11.26C223.41,379.51,218.34,379.51,214.55,382Z" style="fill: #fff"/>
      </g>
      <g>
        <path d="M236.85,517.23H146.08c-5.45,0-10.91,5.39-10.91,10.77v89.74c0,5.38,5.46,10.77,10.91,10.77h90.77c5.45,0,10.91-5.39,10.91-10.77V528C249.56,522.62,244.13,517.23,236.85,517.23Zm-.22,100.28H146.32V528.23h90.31Z" style="fill: #fff"/>
        <path d="M214.55,552l-32.89,33.77-11.38-11.25c-2.53-2.51-7.59-2.51-11.39,0-2.52,2.49-2.52,7.5,0,11.25L175.34,602a9.64,9.64,0,0,0,5.06,2.5c2.53,0,3.79-1.25,5.06-2.5l39.21-38.76c2.53-2.5,2.53-7.5,0-11.26C223.41,549.51,218.34,549.51,214.55,552Z" style="fill: #fff"/>
      </g>
      <g>
        <path d="M524.78,731.72H72v-657H524.78v62l28,28V65.53A18.82,18.82,0,0,0,534,46.72H62.81A18.82,18.82,0,0,0,44,65.53V740.9a18.83,18.83,0,0,0,18.81,18.82H534a18.83,18.83,0,0,0,18.81-18.82V627.7l-28,28Z" style="fill: #fff"/>
        <g>
          <path d="M581,300.43l0-18.75a24.67,24.67,0,0,0-25.09-25.05l-13.08,0a24.66,24.66,0,0,0-25,25.09V300.5a4.53,4.53,0,0,0-1.23,2.93v17.29a4.34,4.34,0,0,0,.83,2.43l.19,167.21c0,1.12,1.13,1.12,1.13,2.25l28.13,43.79c1.12,1.11,2.24,2.23,3.37,2.23,2.24,0,3.37-1.12,4.49-2.24l25.8-43.84c1.13-1.14,1.13-1.14,1.13-2.25l-.2-167.22a4.34,4.34,0,0,0,.83-2.43l0-17.28A4.57,4.57,0,0,0,581,300.43Zm-54.46-17.61a16.75,16.75,0,0,1,16.33-16.36h14.22a16.75,16.75,0,0,1,16.36,16.32v16l-46.91.05Zm0,24.06,46.46-.05V316l-46.47.05Zm46.92,18.38v10.26l-19.57,0V325.28Zm-46.91.05,18.35,0v10.26l-18.35,0Zm47.19,163.87-23.56,37.09-23.63-37,0-35.55,47.19-.05Zm0-45.34-47.18.05-.14-100.69,18.53,0,.1,59.49a4.84,4.84,0,0,0,4.5,4.5c2.24,0,4.49-1.14,4.49-3.38l-.1-60.62,19.66,0Z" style="fill: #fff"/>
          <path d="M654.16,392.93H633.52V372.29a1.41,1.41,0,0,0-1.41-1.41h-6.59a1.41,1.41,0,0,0-1.4,1.41v20.64H603.47a1.41,1.41,0,0,0-1.4,1.41v6.59a1.4,1.4,0,0,0,1.4,1.4h20.65V423a1.4,1.4,0,0,0,1.4,1.4h6.59a1.41,1.41,0,0,0,1.41-1.4V402.33h20.64a1.41,1.41,0,0,0,1.41-1.4v-6.59A1.41,1.41,0,0,0,654.16,392.93Z" style="fill: #fff"/>
        </g>
        <path d="M486.56,672.1a10,10,0,0,1-10-10V130.35a10,10,0,0,1,17.07-7.07L759.51,389.15a10,10,0,0,1,0,14.15L493.64,669.17A10,10,0,0,1,486.56,672.1Zm10-517.6V638L738.29,396.23Z" style="fill: #fff"/>
      </g>
      <g>
        <rect x="269.57" y="203.23" width="182" height="17" style="fill: #fff"/>
        <rect x="269.57" y="230.23" width="132" height="11" style="fill: #fff"/>
        <rect x="269.57" y="251.23" width="132" height="11" style="fill: #fff"/>
      </g>
      <g>
        <rect x="269.57" y="373.23" width="182" height="17" style="fill: #fff"/>
        <rect x="269.57" y="400.23" width="132" height="11" style="fill: #fff"/>
        <rect x="269.57" y="421.23" width="132" height="11" style="fill: #fff"/>
      </g>
      <g>
        <rect x="269.57" y="543.23" width="182" height="17" style="fill: #fff"/>
        <rect x="269.57" y="570.23" width="132" height="11" style="fill: #fff"/>
        <rect x="269.57" y="591.23" width="132" height="11" style="fill: #fff"/>
      </g>
    </g>
  </g>
</svg>
