<svg xmlns="http://www.w3.org/2000/svg" viewBox="0 0 806.43 806.43">
  <g id="_1" data-name="1">
    <g>
      <g>
        <path d="M264.18,177.23H173.41c-5.45,0-10.91,5.39-10.91,10.77v89.74c0,5.38,5.46,10.77,10.91,10.77h90.77c5.45,0,10.91-5.39,10.91-10.77V188C276.89,182.62,271.46,177.23,264.18,177.23ZM264,277.51H173.65V188.23H264Z" style="fill: #fff"/>
        <path d="M241.88,212,209,245.77l-11.38-11.25c-2.53-2.51-7.59-2.51-11.39,0-2.52,2.49-2.52,7.5,0,11.25L202.67,262a9.64,9.64,0,0,0,5.06,2.5c2.52,0,3.79-1.25,5.06-2.5L252,223.26c2.53-2.5,2.53-7.5,0-11.26C250.74,209.51,245.67,209.51,241.88,212Z" style="fill: #fff"/>
      </g>
      <g>
        <path d="M264.18,347.23H173.41c-5.45,0-10.91,5.39-10.91,10.77v89.74c0,5.38,5.46,10.77,10.91,10.77h90.77c5.45,0,10.91-5.39,10.91-10.77V358C276.89,352.62,271.46,347.23,264.18,347.23ZM264,447.51H173.65V358.23H264Z" style="fill: #fff"/>
        <path d="M241.88,382,209,415.77l-11.38-11.25c-2.53-2.51-7.59-2.51-11.39,0-2.52,2.49-2.52,7.5,0,11.25L202.67,432a9.64,9.64,0,0,0,5.06,2.5c2.52,0,3.79-1.25,5.06-2.5L252,393.26c2.53-2.5,2.53-7.5,0-11.26C250.74,379.51,245.67,379.51,241.88,382Z" style="fill: #fff"/>
      </g>
      <g>
        <path d="M264.18,517.23H173.41c-5.45,0-10.91,5.39-10.91,10.77v89.74c0,5.38,5.46,10.77,10.91,10.77h90.77c5.45,0,10.91-5.39,10.91-10.77V528C276.89,522.62,271.46,517.23,264.18,517.23ZM264,617.51H173.65V528.23H264Z" style="fill: #fff"/>
        <path d="M241.88,552,209,585.77l-11.38-11.25c-2.53-2.51-7.59-2.51-11.39,0-2.52,2.49-2.52,7.5,0,11.25L202.67,602a9.64,9.64,0,0,0,5.06,2.5c2.52,0,3.79-1.25,5.06-2.5L252,563.26c2.53-2.5,2.53-7.5,0-11.26C250.74,549.51,245.67,549.51,241.88,552Z" style="fill: #fff"/>
      </g>
      <path d="M552.11,470.56V731.72H99.33v-657H552.11V107q7.71-.66,15.57-.67,6.27,0,12.43.43V65.53A18.82,18.82,0,0,0,561.3,46.72H90.14A18.82,18.82,0,0,0,71.33,65.53V740.9a18.83,18.83,0,0,0,18.81,18.82H561.3a18.83,18.83,0,0,0,18.81-18.82V470.79c-4.11.28-8.25.44-12.43.44C562.44,471.23,557.25,471,552.11,470.56Z" style="fill: #fff"/>
      <g>
        <path d="M658.17,199.85h0l-.71-.7a128.84,128.84,0,0,0-180,0,.69.69,0,0,0-.71.7,126.33,126.33,0,0,0-27.52,137.43h0a121.54,121.54,0,0,0,27.52,40.46.69.69,0,0,0,.71.7,128.82,128.82,0,0,0,180,0,.69.69,0,0,0,.71-.7c0-.69,0,0,.7-.69,23.29-23.73,36.7-55.12,36.7-88.6A125.09,125.09,0,0,0,658.17,199.85Zm9.88,93.48h18.34c-.7,12.56-2.82,25.11-7,36.28l-9.88-4.19c-2.12-.7-4.94,0-5.65,2.09s0,4.89,2.12,5.59l9.88,4.18c-5.65,11.16-12.71,22.33-21.17,31.39l-13.41-13.25c-1.41-1.39-4.23-1.39-6.35,0-1.41,1.39-1.41,4.19,0,6.28L648.29,375a134.47,134.47,0,0,1-31,20.93L613,386.11a3.92,3.92,0,0,0-5.64-2.09c-2.12.7-3.53,3.49-2.12,5.58l4.23,9.77a131.84,131.84,0,0,1-37.4,7.67V388.91a4.24,4.24,0,0,0-8.47,0V407c-12.7-.69-25.4-2.79-36.69-7l3.52-10.47c.71-2.09,0-4.88-2.11-5.58s-4.94,0-5.65,2.09l-4.23,9.77c-11.29-5.58-22.59-12.56-31.76-20.93l13.41-13.25c1.41-1.4,1.41-4.19,0-6.28-1.41-1.39-4.24-1.39-6.35,0l-13.41,13.25A132.07,132.07,0,0,1,459.16,338l9.88-4.18c2.11-.69,3.53-3.49,2.11-5.58a3.91,3.91,0,0,0-5.64-2.09l-9.88,4.18a127.86,127.86,0,0,1-7.76-37h19.05a4.19,4.19,0,1,0,0-8.37H448.57c.71-12.56,2.83-25.11,7.06-36.28l9.88,4.19c2.12.7,4.94,0,5.64-2.1s0-4.88-2.11-5.58L459.16,241c5.64-11.17,12.7-22.33,21.17-31.39l13.41,13.25a3.56,3.56,0,0,0,5.64,0c1.42-1.39,1.42-4.19,0-6.28L486,203.34a133.94,133.94,0,0,1,31-20.93l4.23,9.77a3.93,3.93,0,0,0,5.65,2.09c2.11-.7,3.52-3.49,2.11-5.58l-4.23-9.77a131.84,131.84,0,0,1,37.4-7.67v18.13a4.24,4.24,0,0,0,8.47,0V171.25c12.7.69,25.4,2.78,36.7,7L603.12,188c-.7,2.1,0,4.88,2.12,5.58s4.94,0,5.65-2.1l4.23-9.76c11.29,5.58,22.58,12.56,31.76,20.93l-13.41,13.25c-1.41,1.4-1.41,4.19,0,6.28,1.41,1.4,4.23,1.4,6.35,0l13.41-13.25a133,133,0,0,1,21.17,30.69l-9.88,4.19c-2.12.7-3.53,3.48-2.12,5.58a4.77,4.77,0,0,0,4.23,2.79h1.42l9.88-4.18a128.12,128.12,0,0,1,7.76,37H667.34a4.53,4.53,0,0,0-4.24,4.18C663.1,291.24,665.22,293.33,668.05,293.33Z" style="fill: #fff"/>
        <path d="M567.68,121.37A167.43,167.43,0,1,0,735.11,288.8,167.43,167.43,0,0,0,567.68,121.37Zm0,320.9A153.48,153.48,0,1,1,721.16,288.8,153.48,153.48,0,0,1,567.68,442.27Z" style="fill: #fff"/>
        <path d="M614.84,231l-31,30.6c-12-7.9-29-6.91-39,3.95a29.86,29.86,0,0,0-4,38.5l-12,11.85c-2,2-2,5.93,0,8.9,2,2,6,2,9,0l12-11.86c12,7.9,29,6.92,39-4a29.87,29.87,0,0,0,4-38.5l31-30.61c2-2,2-5.92,0-8.88C620.84,228.08,616.85,228.08,614.84,231Zm-35,70.09c-7,6.92-19,6.92-27,0-7-6.91-7-18.75,0-26.66,7-6.9,19-6.9,27,0C586.88,281.39,586.88,293.24,579.89,301.13Z" style="fill: #fff"/>
      </g>
      <g>
        <path d="M296.89,203.23v17H398.64a179.2,179.2,0,0,1,8-17Z" style="fill: #fff"/>
        <path d="M296.89,230.23v11h94.67q1.5-5.58,3.34-11Z" style="fill: #fff"/>
        <path d="M296.89,251.23v11h90.3q.81-5.57,2-11Z" style="fill: #fff"/>
        <path d="M296.89,373.23v17H416.12a184.81,184.81,0,0,1-10.12-17Z" style="fill: #fff"/>
        <path d="M296.89,400.23v11h132v-4.17q-2.85-3.35-5.55-6.83Z" style="fill: #fff"/>
        <rect x="296.89" y="421.23" width="132" height="11" style="fill: #fff"/>
        <rect x="296.89" y="543.23" width="182" height="17" style="fill: #fff"/>
        <rect x="296.89" y="570.23" width="132" height="11" style="fill: #fff"/>
        <rect x="296.89" y="591.23" width="132" height="11" style="fill: #fff"/>
      </g>
    </g>
  </g>
</svg>
