<?xml version="1.0" encoding="utf-8"?>
<!-- Generator: Adobe Illustrator 17.0.0, SVG Export Plug-In . SVG Version: 6.00 Build 0)  -->
<!DOCTYPE svg PUBLIC "-//W3C//DTD SVG 1.1//EN" "http://www.w3.org/Graphics/SVG/1.1/DTD/svg11.dtd">
<svg version="1.1" id="Layer_1" xmlns="http://www.w3.org/2000/svg" xmlns:xlink="http://www.w3.org/1999/xlink" x="0px" y="0px"
	 width="595.28px" height="841.89px" viewBox="0 0 595.28 841.89" enable-background="new 0 0 595.28 841.89" xml:space="preserve">
<g id="_1">
	<g>
		
			<linearGradient id="SVGID_1_" gradientUnits="userSpaceOnUse" x1="51.9774" y1="437.6104" x2="522.8974" y2="437.6104" gradientTransform="matrix(0.7382 0 0 -0.7382 0.0167 743.972)">
			<stop  offset="0" style="stop-color:#E1A556"/>
			<stop  offset="1" style="stop-color:#E1B556"/>
		</linearGradient>
		<path fill="url(#SVGID_1_)" d="M366.869,625.901h-35.432c-3.196,0.006-6.18,1.603-7.957,4.259l-18.004,27.002l-18.004-27.002
			c-1.778-2.656-4.761-4.253-7.957-4.259h-10.261c-3.191,0.011-6.168,1.607-7.943,4.259l-18.004,27.002l-18.019-27.002
			c-1.778-2.656-4.761-4.253-7.957-4.259h-10.246c-3.196,0.006-6.18,1.603-7.957,4.259l-18.004,27.002l-17.989-27.002
			c-1.778-2.656-4.761-4.253-7.957-4.259h-10.261c-3.199,0.003-6.186,1.601-7.965,4.259l-17.997,27.002l-18.004-27.002
			c-1.775-2.652-4.752-4.248-7.943-4.259H57.577v-448.85h309.292v80.674h19.133v-86.956c-0.008-7.094-5.757-12.843-12.851-12.851
			H51.258c-7.103-0.004-12.865,5.749-12.874,12.851v461.413c0.008,7.094,5.757,12.843,12.851,12.851h36.606l23.119,34.694
			c2.959,4.397,8.922,5.562,13.319,2.603c1.028-0.692,1.912-1.576,2.603-2.603l23.119-34.694l23.134,34.694
			c2.962,4.395,8.926,5.556,13.321,2.594c1.023-0.69,1.904-1.571,2.594-2.594l23.119-34.694l23.134,34.694
			c2.962,4.395,8.926,5.556,13.321,2.594c1.023-0.69,1.904-1.571,2.594-2.594l23.127-34.694l23.127,34.694
			c2.962,4.395,8.926,5.556,13.321,2.594c1.023-0.69,1.904-1.571,2.594-2.594l23.127-34.694h36.613
			c7.094-0.008,12.843-5.757,12.851-12.851V531.836h-19.133L366.869,625.901z"/>
		<g>
			<g>
				
					<linearGradient id="SVGID_2_" gradientUnits="userSpaceOnUse" x1="132.6174" y1="632.8369" x2="246.3092" y2="632.8369" gradientTransform="matrix(0.7382 0 0 -0.7382 0.0167 743.972)">
					<stop  offset="0" style="stop-color:#E1A556"/>
					<stop  offset="1" style="stop-color:#E1B556"/>
				</linearGradient>
				<path fill="url(#SVGID_2_)" d="M173.469,235.506H106.03c-4.053,0-8.12,4.001-8.12,7.994v66.656c0,3.993,4.045,8.002,8.12,8.002
					h67.439c4.053,0,8.12-4.008,8.12-8.002v-66.656C182.888,239.47,178.85,235.506,173.469,235.506z M172.237,308.932h-28.05v1.543
					h-7.123v-1.543H107.27v-64.221h29.741v-1.203h7.123v1.203h28.05L172.237,308.932z"/>
				
					<linearGradient id="SVGID_3_" gradientUnits="userSpaceOnUse" x1="161.5674" y1="632.6469" x2="217.7174" y2="632.6469" gradientTransform="matrix(0.7382 0 0 -0.7382 0.0167 743.972)">
					<stop  offset="0" style="stop-color:#E1A556"/>
					<stop  offset="1" style="stop-color:#E1B556"/>
				</linearGradient>
				<path fill="url(#SVGID_3_)" d="M160.729,287.289c0-10.046-8.688-12.682-16.594-14.535v-12.106
					c3.841,0.493,7.545,1.748,10.895,3.691l3.565-8.762c-3.92-2.495-9.116-3.92-14.461-4.348v-7.743h-7.123v7.906
					c-11.25,1.277-16.734,7.758-16.734,15.31c0,10.187,8.858,12.822,16.734,14.763v11.899c-4.966-0.464-9.726-2.206-13.818-5.056
					l-3.912,8.688c3.912,3.063,10.681,5.271,17.716,5.699v7.766h7.123v-8.002C155.318,301.107,160.729,294.693,160.729,287.289z
					 M149.265,288.138c0,2.281-1.565,4.134-5.167,4.916v-9.825C147.198,284.292,149.265,285.65,149.265,288.138L149.265,288.138z
					 M131.741,266.133c0-2.355,1.476-4.429,5.271-5.271v10.113C133.881,269.979,131.741,268.628,131.741,266.133L131.741,266.133z"
					/>
			</g>
			<g>
				
					<linearGradient id="SVGID_4_" gradientUnits="userSpaceOnUse" x1="132.6174" y1="463.5169" x2="246.3092" y2="463.5169" gradientTransform="matrix(0.7382 0 0 -0.7382 0.0167 743.972)">
					<stop  offset="0" style="stop-color:#E1A556"/>
					<stop  offset="1" style="stop-color:#E1B556"/>
				</linearGradient>
				<path fill="url(#SVGID_4_)" d="M173.469,360.493H106.03c-4.053,0-8.12,4.001-8.12,7.994v66.656c0,3.993,4.045,8.002,8.12,8.002
					h67.439c4.053,0,8.12-4.008,8.12-8.002v-66.656C182.888,364.494,178.85,360.493,173.469,360.493z M172.237,433.918h-28.05v1.543
					h-7.123v-1.543H107.27v-64.221h29.741v-1.203h7.123v1.203h28.05L172.237,433.918z"/>
				
					<linearGradient id="SVGID_5_" gradientUnits="userSpaceOnUse" x1="161.5674" y1="463.2769" x2="217.7174" y2="463.2769" gradientTransform="matrix(0.7382 0 0 -0.7382 0.0167 743.972)">
					<stop  offset="0" style="stop-color:#E1A556"/>
					<stop  offset="1" style="stop-color:#E1B556"/>
				</linearGradient>
				<path fill="url(#SVGID_5_)" d="M160.729,412.312c0-10.046-8.688-12.682-16.594-14.534v-12.106
					c3.841,0.493,7.545,1.748,10.895,3.691l3.565-8.762c-3.92-2.495-9.116-3.92-14.461-4.348v-7.743h-7.123v7.906
					c-11.25,1.277-16.734,7.758-16.734,15.31c0,10.187,8.858,12.822,16.734,14.763v11.899c-4.966-0.464-9.726-2.206-13.818-5.056
					l-3.912,8.688c3.912,3.063,10.681,5.271,17.716,5.699v7.766h7.123v-8.002C155.318,426.131,160.729,419.716,160.729,412.312z
					 M149.265,413.161c0,2.281-1.565,4.134-5.167,4.916v-9.84C147.198,409.315,149.265,410.673,149.265,413.161L149.265,413.161z
					 M131.741,391.156c0-2.347,1.476-4.429,5.271-5.271v10.113C133.881,395.002,131.741,393.651,131.741,391.156z"/>
			</g>
			<g>
				
					<linearGradient id="SVGID_6_" gradientUnits="userSpaceOnUse" x1="132.6174" y1="294.1469" x2="246.3092" y2="294.1469" gradientTransform="matrix(0.7382 0 0 -0.7382 0.0167 743.972)">
					<stop  offset="0" style="stop-color:#E1A556"/>
					<stop  offset="1" style="stop-color:#E1B556"/>
				</linearGradient>
				<path fill="url(#SVGID_6_)" d="M173.469,485.516H106.03c-4.053,0-8.12,4.001-8.12,7.994v66.656c0,3.993,4.045,8.002,8.12,8.002
					h67.439c4.053,0,8.12-4.008,8.12-8.002v-66.656C182.888,489.517,178.85,485.516,173.469,485.516z M172.237,558.942h-28.05v1.543
					h-7.123v-1.543H107.27v-64.221h29.741v-1.203h7.123v1.203h28.05L172.237,558.942z"/>
				
					<linearGradient id="SVGID_7_" gradientUnits="userSpaceOnUse" x1="161.5674" y1="293.9269" x2="217.7174" y2="293.9269" gradientTransform="matrix(0.7382 0 0 -0.7382 0.0167 743.972)">
					<stop  offset="0" style="stop-color:#E1A556"/>
					<stop  offset="1" style="stop-color:#E1B556"/>
				</linearGradient>
				<path fill="url(#SVGID_7_)" d="M160.729,537.336c0-10.046-8.688-12.682-16.594-14.534v-12.106
					c3.841,0.493,7.545,1.748,10.895,3.691l3.565-8.71c-3.92-2.495-9.116-3.92-14.461-4.348v-7.795h-7.123v7.906
					c-11.25,1.284-16.734,7.758-16.734,15.31c0,10.187,8.858,12.822,16.734,14.763v11.899c-4.966-0.464-9.726-2.206-13.818-5.056
					l-3.912,8.659c3.912,3.063,10.681,5.271,17.716,5.699v7.766h7.123v-7.972C155.318,551.154,160.729,544.739,160.729,537.336z
					 M149.265,538.155c0,2.281-1.565,4.134-5.167,4.916v-9.795C147.198,534.339,149.265,535.697,149.265,538.155z M131.741,516.15
					c0-2.347,1.476-4.429,5.271-5.271v10.113c-3.13-0.967-5.271-2.318-5.271-4.813V516.15z"/>
			</g>
		</g>
		<g>
			<path fill="#FFFFFF" d="M496.048,268.798h-1.299v-23.119c0-2.776-2.812-5.551-5.617-5.551s-5.61,2.776-5.61,5.551v23.119h-73.935
				v-23.119c0-2.776-2.812-5.551-5.617-5.551s-5.61,2.776-5.61,5.551v23.119h-72.34v-23.119c0-2.776-2.805-5.551-5.617-5.551
				c-2.812,0-5.603,2.776-5.603,5.551v23.119h-5.138c-33.683,0-60.81,26.818-60.81,60.109v186.409c0,2.776,2.812,5.551,5.617,5.551
				l218.822-0.177c5.462,0,5.905-0.738,5.905-0.738l76.732-75.839v-0.923c-0.008-0.505,0.395-0.922,0.9-0.93
				c0.012,0,0.025,0,0.037,0V328.907C556.873,295.615,529.746,268.798,496.048,268.798z M489.405,308.585
				c9.751-0.065,17.71,7.787,17.775,17.538c0,0.01,0,0.02,0,0.03c0,10.172-7.485,17.576-17.775,17.576
				c-9.756,0.037-17.705-7.82-17.782-17.576C471.6,315.967,480.03,308.585,489.405,308.585z M403.991,308.585
				c9.756-0.061,17.714,7.797,17.775,17.553c0,0.005,0,0.01,0,0.015c0,10.172-7.478,17.576-17.775,17.576
				c-10.297,0-17.775-7.382-17.775-17.576c0.049-9.752,7.994-17.617,17.745-17.568c0.003,0,0.005,0,0.008,0H403.991z
				 M320.365,308.585c9.751-0.065,17.71,7.787,17.775,17.538c0,0.01,0,0.02,0,0.03c0,10.172-7.478,17.576-17.775,17.576
				s-17.716-7.426-17.716-17.598C302.709,316.4,310.633,308.552,320.365,308.585z M261.016,328.907
				c0-26.818,21.51-49.014,48.645-49.014h5.13v17.576c-13.095,2.768-23.393,14.763-23.393,28.663
				c0,15.723,13.095,28.67,28.995,28.67c15.9,0,29.003-12.947,29.003-28.67c0-13.87-10.29-25.895-23.385-28.663v-17.576h72.34
				v17.576c-13.088,2.768-23.363,14.808-23.363,28.663c0,15.723,13.095,28.67,28.995,28.67s28.995-12.947,28.995-28.67
				c0-13.87-10.283-25.895-23.378-28.663v-17.576h73.935v17.576c-13.095,2.768-23.393,14.763-23.393,28.663
				c0,15.723,13.095,28.67,29.003,28.67c15.908,0,29.047-12.947,29.047-28.67c0-13.87-10.334-25.895-23.392-28.663v-17.576h1.247
				c27.128,0,49.583,22.197,49.583,49.014v49.937H261.016V328.907z M506.383,463.253h-34.369v-33.956h34.369V463.253z
				 M547.521,433.94l-30.265,2.392v-12.409c0-2.68-2.716-5.366-5.426-5.366h-45.242c-2.716,0-5.426,2.687-5.426,5.366v44.689
				c0,2.68,2.709,5.366,5.426,5.366h5.167v34.864H261.008V389.938h286.512V433.94z"/>
			<path fill="#FFFFFF" d="M296.596,473.979h45.213c2.709,0,5.426-2.687,5.426-5.366v-44.689c0.901-2.68-1.809-5.366-5.426-5.366
				h-45.213c-2.709,0-5.426,2.687-5.426,5.366v44.689C291.17,471.292,293.886,473.979,296.596,473.979z M302.028,429.283h34.354
				v33.956h-34.354L302.028,429.283z"/>
			<path fill="#FFFFFF" d="M381.632,473.979h45.205c2.716,0,5.426-2.687,5.426-5.366v-44.689c0.114-2.851-2.106-5.255-4.957-5.369
				c-0.156-0.006-0.312-0.005-0.468,0.003h-45.205c-2.716,0-5.426,2.687-5.426,5.366v44.689
				C376.17,471.292,378.879,473.979,381.632,473.979z M387.058,429.283h34.354v33.956h-34.391L387.058,429.283z"/>
		</g>
	</g>
</g>
</svg>
