<svg xmlns="http://www.w3.org/2000/svg" viewBox="0 0 806.43 806.43">
  <g id="_1" data-name="1">
    <g>
      <path d="M497,680.87H449a13,13,0,0,0-10.78,5.77l-24.39,36.58-24.39-36.58a13,13,0,0,0-10.78-5.77H364.76A13,13,0,0,0,354,686.64l-24.39,36.58L305.2,686.64a13,13,0,0,0-10.78-5.77H280.54a13,13,0,0,0-10.78,5.77l-24.39,36.58L221,686.64a13,13,0,0,0-10.78-5.77H196.32a13,13,0,0,0-10.79,5.77l-24.38,36.58-24.39-36.58A13,13,0,0,0,126,680.87H78V72.81H497V182.1h25.92V64.3a17.43,17.43,0,0,0-17.41-17.41H69.44A17.43,17.43,0,0,0,52,64.3V689.38a17.43,17.43,0,0,0,17.41,17.41H119l31.32,47a13,13,0,0,0,21.57,0l31.32-47,31.34,47a13,13,0,0,0,21.56,0l31.32-47,31.34,47a13,13,0,0,0,21.56,0l31.33-47,31.33,47a13,13,0,0,0,21.56,0l31.33-47h49.6a17.43,17.43,0,0,0,17.41-17.41V553.44l-25.92,0Z" style="fill: #fff"/>
      <g>
        <g>
          <path d="M235,152H143.64c-5.49,0-11,5.42-11,10.83v90.3c0,5.41,5.48,10.84,11,10.84H235c5.49,0,11-5.43,11-10.84v-90.3C247.76,157.37,242.29,152,235,152Zm-1.67,99.47h-38v2.09h-9.65v-2.09H145.32v-87h40.29v-1.63h9.65v1.63h38Z" style="fill: #fff"/>
          <path d="M217.74,222.15c0-13.61-11.77-17.18-22.48-19.69v-16.4a39.42,39.42,0,0,1,14.76,5l4.83-11.87c-5.31-3.38-12.35-5.31-19.59-5.89V162.81h-9.65v10.71c-15.24,1.73-22.67,10.51-22.67,20.74,0,13.8,12,17.37,22.67,20v16.12a39.11,39.11,0,0,1-18.72-6.85l-5.3,11.77c5.3,4.15,14.47,7.14,24,7.72v10.52h9.65V242.7C210.41,240.87,217.74,232.18,217.74,222.15Zm-15.53,1.15c0,3.09-2.12,5.6-7,6.66V216.65C199.41,218.09,202.21,219.93,202.21,223.3Zm-23.74-29.81c0-3.19,2-6,7.14-7.14v13.7C181.37,198.7,178.47,196.87,178.47,193.49Z" style="fill: #fff"/>
        </g>
        <g>
          <path d="M235,321.32H143.64c-5.49,0-11,5.42-11,10.83v90.3c0,5.41,5.48,10.84,11,10.84H235c5.49,0,11-5.43,11-10.84v-90.3C247.76,326.74,242.29,321.32,235,321.32Zm-1.67,99.47h-38v2.09h-9.65v-2.09H145.32v-87h40.29v-1.63h9.65v1.63h38Z" style="fill: #fff"/>
          <path d="M217.74,391.52c0-13.61-11.77-17.18-22.48-19.69v-16.4a39.42,39.42,0,0,1,14.76,5l4.83-11.87c-5.31-3.38-12.35-5.31-19.59-5.89V332.18h-9.65v10.71c-15.24,1.73-22.67,10.51-22.67,20.74,0,13.8,12,17.37,22.67,20v16.12a39.11,39.11,0,0,1-18.72-6.85l-5.3,11.77c5.3,4.15,14.47,7.14,24,7.72v10.52h9.65V412.07C210.41,410.24,217.74,401.55,217.74,391.52Zm-15.53,1.15c0,3.09-2.12,5.6-7,6.66V386C199.41,387.46,202.21,389.3,202.21,392.67Zm-23.74-29.81c0-3.18,2-6,7.14-7.14v13.7C181.37,368.07,178.47,366.24,178.47,362.86Z" style="fill: #fff"/>
        </g>
        <g>
          <path d="M235,490.69H143.64c-5.49,0-11,5.42-11,10.83v90.3c0,5.41,5.48,10.84,11,10.84H235c5.49,0,11-5.43,11-10.84v-90.3C247.76,496.11,242.29,490.69,235,490.69Zm-1.67,99.47h-38v2.09h-9.65v-2.09H145.32v-87h40.29v-1.63h9.65v1.63h38Z" style="fill: #fff"/>
          <path d="M217.74,560.89c0-13.61-11.77-17.18-22.48-19.69V524.8a39.42,39.42,0,0,1,14.76,5L214.85,518c-5.31-3.38-12.35-5.31-19.59-5.89V501.55h-9.65v10.71C170.37,514,162.94,522.77,162.94,533c0,13.8,12,17.37,22.67,20v16.12a39.11,39.11,0,0,1-18.72-6.85L161.59,574c5.3,4.15,14.47,7.14,24,7.72v10.52h9.65V581.44C210.41,579.61,217.74,570.92,217.74,560.89ZM202.21,562c0,3.09-2.12,5.6-7,6.66V555.39C199.41,556.83,202.21,558.67,202.21,562Zm-23.74-29.81c0-3.18,2-6,7.14-7.14v13.7C181.37,537.44,178.47,535.61,178.47,532.23Z" style="fill: #fff"/>
        </g>
      </g>
      <g>
        <path d="M672,197.1h-1.76V165.78c0-3.76-3.81-7.52-7.61-7.52s-7.6,3.76-7.6,7.52V197.1H554.87V165.78c0-3.76-3.81-7.52-7.61-7.52s-7.6,3.76-7.6,7.52V197.1h-98V165.78c0-3.76-3.8-7.52-7.61-7.52s-7.59,3.76-7.59,7.52V197.1H419.5c-45.63,0-82.38,36.33-82.38,81.43V531.06c0,3.76,3.81,7.52,7.61,7.52l296.44-.24c7.4,0,8-1,8-1L753.12,434.6v-1.25a1.24,1.24,0,0,1,1.27-1.26V278.53C754.4,233.43,717.65,197.1,672,197.1ZM663,251a23.92,23.92,0,0,1,24.08,23.8c0,13.78-10.14,23.81-24.08,23.81a24,24,0,0,1-24.09-23.81C638.88,261,650.3,251,663,251Zm-115.71,0a23.93,23.93,0,0,1,24.08,23.8c0,13.78-10.13,23.81-24.08,23.81s-24.08-10-24.08-23.81A23.92,23.92,0,0,1,547.26,251ZM434,251a23.92,23.92,0,0,1,24.08,23.8c0,13.78-10.13,23.81-24.08,23.81S410,288.55,410,274.77A23.92,23.92,0,0,1,434,251ZM353.6,278.53c0-36.33,29.14-66.4,65.9-66.4h6.95v23.81c-17.74,3.75-31.69,20-31.69,38.83,0,21.3,17.74,38.84,39.28,38.84s39.29-17.54,39.29-38.84c0-18.79-13.94-35.08-31.68-38.83V212.13h98v23.81C521.92,239.69,508,256,508,274.77c0,21.3,17.74,38.84,39.28,38.84s39.28-17.54,39.28-38.84c0-18.79-13.93-35.08-31.67-38.83V212.13H655.05v23.81c-17.74,3.75-31.69,20-31.69,38.83,0,21.3,17.74,38.84,39.29,38.84S702,296.07,702,274.77c0-18.79-14-35.08-31.69-38.83V212.13H672c36.75,0,67.17,30.07,67.17,66.4v67.65H353.6ZM686,460.53H639.44v-46H686Zm55.73-39.71-41,3.24V407.25c0-3.63-3.68-7.27-7.35-7.27H632.09c-3.68,0-7.35,3.64-7.35,7.27v60.54c0,3.63,3.67,7.27,7.35,7.27h7v47.23H353.59V361.21H741.73Z" style="fill: #fff"/>
        <path d="M401.8,475.06h61.25c3.67,0,7.35-3.64,7.35-7.27V407.25c1.22-3.63-2.45-7.27-7.35-7.27H401.8c-3.67,0-7.35,3.64-7.35,7.27v60.54C394.45,471.42,398.13,475.06,401.8,475.06Zm7.36-60.55H455.7v46H409.16Z" style="fill: #fff"/>
        <path d="M517,475.06h61.24c3.68,0,7.35-3.64,7.35-7.27V407.25a7,7,0,0,0-7.35-7.27H517c-3.68,0-7.35,3.64-7.35,7.27v60.54C509.6,471.42,513.27,475.06,517,475.06Zm7.35-60.55h46.54v46H524.3Z" style="fill: #fff"/>
      </g>
    </g>
  </g>
</svg>
