<?xml version="1.0" encoding="utf-8"?>
<!-- Generator: Adobe Illustrator 17.0.0, SVG Export Plug-In . SVG Version: 6.00 Build 0)  -->
<!DOCTYPE svg PUBLIC "-//W3C//DTD SVG 1.1//EN" "http://www.w3.org/Graphics/SVG/1.1/DTD/svg11.dtd">
<svg version="1.1" id="Layer_1" xmlns="http://www.w3.org/2000/svg" xmlns:xlink="http://www.w3.org/1999/xlink" x="0px" y="0px"
	 width="595.28px" height="841.89px" viewBox="0 0 595.28 841.89" enable-background="new 0 0 595.28 841.89" xml:space="preserve">
<g id="_1">
	<g>
		
			<linearGradient id="SVGID_1_" gradientUnits="userSpaceOnUse" x1="59.5742" y1="437.4369" x2="600.9174" y2="437.4369" gradientTransform="matrix(0.7382 0 0 -0.7382 0.0167 743.972)">
			<stop  offset="0" style="stop-color:#E1A556"/>
			<stop  offset="1" style="stop-color:#E1B556"/>
		</linearGradient>
		<path fill="url(#SVGID_1_)" d="M437.349,434.295l-0.199,0.613c-2.465,7.256-8.12,11.973-15.073,12.674v215.434l-212.592,3.004
			V558.203h94.596c6.238,0,11.921-5.647,11.921-11.811c0-6.164-5.684-11.855-11.921-11.855H136.022v-93.459
			c0-6.208-5.684-11.855-11.921-11.855H66.243l22.92-90.632v-2.79c0-87.51,72.045-158.706,160.596-158.706h26.316
			c1.964,0.236,14.992,1.978,32.479,8.031l2.753-2.768c5.758-5.676,16.018-7.633,22.927-2.089l23.621,15.029
			c2.953-1.528,6.215-3.056,9.7-4.429c-38.532-26.604-77.323-30.885-77.323-30.885c-8.518-1.056-15.974-2.111-24.492-2.111
			c-5.33,1.056-79.877-8.415-140.577,51.59c-34.081,33.69-52.181,77.906-52.181,125.282L44.194,438.967
			c-0.902,3.624,1.305,7.293,4.929,8.194c0.489,0.122,0.99,0.188,1.493,0.199h67.092v98.996c0,3.159,3.196,6.311,6.393,6.311h67.085
			v125.289c0,3.152,3.189,6.311,6.385,6.311h239.639c3.181,0,6.385-3.159,6.385-6.311V405.521h-0.074L437.349,434.295z"/>
		<g>
			<path fill="#FFFFFF" d="M545.941,279.745l-35.129-7.33c-2.126-8.422-6.385-17.901-10.652-25.267l19.192-29.482
				c2.126-2.096,1.07-6.311-1.07-8.415l-18.144-17.937c-2.126-2.104-5.322-2.104-8.511-1.056l-29.829,17.937
				c-8.511-4.208-17.03-8.422-25.555-10.526l-7.455-34.738c-1.056-3.167-3.196-5.271-6.385-5.271h-25.555
				c-3.196,0-5.33,2.104-6.393,5.271l-7.455,34.738c-9.596,2.104-18.107,6.319-25.563,10.526l-29.815-18.986
				c-2.133-2.104-6.393-1.056-8.526,1.048l-7.455,7.382l-13.841,11.582c-1.066,1.971-1.066,4.347,0,6.319l19.192,29.475
				c-4.267,8.415-8.518,16.845-10.652,25.267l-35.152,7.382c-3.189,1.056-5.315,3.159-5.315,6.319v25.267
				c0,3.152,2.126,5.263,5.315,6.319l35.152,7.382c2.133,8.422,6.385,17.893,10.652,25.26l-19.192,29.482
				c-2.133,2.104-1.063,6.319,1.063,8.422l18.107,17.901c2.126,2.096,5.322,2.096,8.518,1.048l29.815-18.971
				c8.526,4.208,17.044,8.422,25.563,10.526l7.455,34.746c1.063,3.159,3.196,5.263,6.385,5.263h25.563
				c3.196,0,5.322-2.104,6.393-5.263l7.455-34.746c5.172-1.113,10.18-2.881,14.904-5.263l15.981-1.056l27.681,16.845
				c2.133,2.111,6.4,1.056,8.526-1.056l18.107-17.893c1.07-1.048,2.126-5.263,0-7.382l-19.192-30.531
				c4.267-8.422,8.526-16.845,10.652-25.267l35.151-7.382c3.189-1.048,5.322-3.152,5.322-6.311v-25.26
				C551.263,282.904,549.13,280.8,545.941,279.745z M538.478,306.06l-34.074,7.382c-2.126,1.056-4.267,2.111-5.322,5.263
				c-2.133,10.526-6.4,20.004-11.722,29.475c-1.065,2.345-1.065,5.036,0,7.382l18.107,28.427l-10.652,9.485l-28.789-17.893
				c-2.37-1.056-5.078-1.056-7.448,0c-9.596,5.263-19.192,9.471-29.829,11.582c-2.126,1.048-4.252,2.104-5.322,5.263l-7.455,33.69
				h-14.911l-7.448-33.69c-1.07-2.111-2.133-4.215-5.33-5.263c-10.652-2.111-20.233-6.319-29.822-11.582
				c-2.373-1.055-5.082-1.055-7.455,0l-28.715,17.893l-10.652-10.556l18.107-28.427c1.067-2.345,1.067-5.037,0-7.382
				c-5.33-9.478-9.596-18.949-11.715-29.482c-1.063-2.096-2.133-4.208-5.33-5.263l-34.074-7.382v-14.763l34.074-7.382
				c2.133-1.056,4.267-2.104,5.33-5.263c2.126-10.526,6.385-20.004,11.715-29.482c1.067-2.345,1.067-5.037,0-7.382l-18.107-27.371
				l10.652-10.526l28.752,17.901c2.375,1.048,5.081,1.048,7.455,0c9.192-5.564,19.284-9.484,29.822-11.582
				c2.133-1.056,4.259-2.111,5.33-5.263l7.448-33.69h14.911l7.455,33.69c1.07,2.096,2.126,4.208,5.322,5.263
				c10.652,2.104,20.233,6.319,29.829,11.582c2.372,1.048,5.076,1.048,7.448,0l28.789-17.901l10.652,10.526l-18.107,28.427
				c-1.067,2.345-1.067,5.037,0,7.382c5.322,9.478,9.596,18.956,11.722,29.482c1.056,2.104,2.126,4.208,5.322,5.263l34.074,7.382
				L538.478,306.06z"/>
			<path fill="#FFFFFF" d="M408.553,255.533c-23.429,0-43.663,18.949-43.663,43.168c0,23.156,19.192,43.161,43.663,43.161
				c24.47,0,43.663-18.949,43.663-43.161C452.216,274.489,431.983,255.533,408.553,255.533z M408.553,328.176
				c-16.343,0.122-29.692-13.027-29.814-29.371c0-0.035,0-0.07-0.001-0.104c0-16.852,13.841-29.482,29.815-29.482
				c16.281-0.258,29.688,12.732,29.945,29.012c0.258,16.281-12.732,29.688-29.012,29.945
				C409.175,328.181,408.864,328.181,408.553,328.176z"/>
		</g>
	</g>
</g>
</svg>
