<svg xmlns="http://www.w3.org/2000/svg" viewBox="0 0 806.43 806.43">
  <g id="_1" data-name="1">
    <g>
      <path d="M592.48,421.3l-.27.83c-3.34,9.83-11,16.22-20.42,17.17V731.15l-288,4.07V589.16H411.94c8.45,0,16.15-7.65,16.15-16s-7.7-16.06-16.15-16.06H184.27V430.49c0-8.41-7.7-16.06-16.15-16.06H89.74l31.05-122.78v-3.78c0-118.55,97.6-215,217.56-215H374c2.66.32,20.31,2.68,44,10.88L421.73,80c7.8-7.69,21.7-10.34,31.06-2.83l32,20.36c4-2.07,8.42-4.14,13.14-6C445.73,55.49,393.18,49.69,393.18,49.69c-11.54-1.43-21.64-2.86-33.18-2.86-7.22,1.43-108.21-11.4-190.44,69.89-46.17,45.64-70.69,105.54-70.69,169.72l-39,141.19A9.16,9.16,0,0,0,68.57,439h90.89V573.11c0,4.28,4.33,8.55,8.66,8.55H259V751.39c0,4.27,4.32,8.55,8.65,8.55H592.29c4.31,0,8.65-4.28,8.65-8.55V382.32l-.1,0Z" style="fill: #fff"/>
      <g>
        <path d="M739.59,211.93,692,202c-2.88-11.41-8.65-24.25-14.43-34.23l26-39.94c2.88-2.84,1.45-8.55-1.45-11.4L677.54,92.13c-2.88-2.85-7.21-2.85-11.53-1.43L625.6,115c-11.53-5.7-23.07-11.41-34.62-14.26l-10.1-47.06c-1.43-4.29-4.33-7.14-8.65-7.14H537.61c-4.33,0-7.22,2.85-8.66,7.14l-10.1,47.06c-13,2.85-24.53,8.56-34.63,14.26L443.83,89.28c-2.89-2.85-8.66-1.43-11.55,1.42l-10.1,10-18.75,15.69a9,9,0,0,0,0,8.56l26,39.93c-5.78,11.4-11.54,22.82-14.43,34.23l-47.62,10c-4.32,1.43-7.2,4.28-7.2,8.56v34.23c0,4.27,2.88,7.13,7.2,8.56l47.62,10c2.89,11.41,8.65,24.24,14.43,34.22l-26,39.94c-2.89,2.85-1.44,8.56,1.44,11.41l24.53,24.25c2.88,2.84,7.21,2.84,11.54,1.42L481.33,356c11.55,5.7,23.09,11.41,34.63,14.26l10.1,47.07c1.44,4.28,4.33,7.13,8.65,7.13h34.63c4.33,0,7.21-2.85,8.66-7.13l10.1-47.07a84.15,84.15,0,0,0,20.19-7.13l21.65-1.43,37.5,22.82c2.89,2.86,8.67,1.43,11.55-1.43l24.53-24.24c1.45-1.42,2.88-7.13,0-10l-26-41.36c5.78-11.41,11.55-22.82,14.43-34.23l47.62-10c4.32-1.42,7.21-4.27,7.21-8.55V220.49C746.8,216.21,743.91,213.36,739.59,211.93Zm-10.11,35.65-46.16,10c-2.88,1.43-5.78,2.86-7.21,7.13-2.89,14.26-8.67,27.1-15.88,39.93a12.09,12.09,0,0,0,0,10l24.53,38.51L670.33,366l-39-24.24a12.4,12.4,0,0,0-10.09,0c-13,7.13-26,12.83-40.41,15.69-2.88,1.42-5.76,2.85-7.21,7.13l-10.1,45.64h-20.2l-10.09-45.64c-1.45-2.86-2.89-5.71-7.22-7.13-14.43-2.86-27.41-8.56-40.4-15.69a12.43,12.43,0,0,0-10.1,0L436.61,366,422.18,351.7l24.53-38.51a12.07,12.07,0,0,0,0-10c-7.22-12.84-13-25.67-15.87-39.94-1.44-2.84-2.89-5.7-7.22-7.13l-46.16-10v-20l46.16-10c2.89-1.43,5.78-2.85,7.22-7.13,2.88-14.26,8.65-27.1,15.87-39.94a12.07,12.07,0,0,0,0-10l-24.53-37.08,14.43-14.26,38.95,24.25a12.51,12.51,0,0,0,10.1,0,125.23,125.23,0,0,1,40.4-15.69c2.89-1.43,5.77-2.86,7.22-7.13l10.09-45.64h20.2l10.1,45.64c1.45,2.84,2.88,5.7,7.21,7.13,14.43,2.85,27.41,8.56,40.41,15.69a12.48,12.48,0,0,0,10.09,0l39-24.25,14.43,14.26-24.53,38.51a12.07,12.07,0,0,0,0,10c7.21,12.84,13,25.68,15.88,39.94,1.43,2.85,2.88,5.7,7.21,7.13l46.16,10Z" style="fill: #fff"/>
        <path d="M553.47,179.13c-31.74,0-59.15,25.67-59.15,58.48,0,31.37,26,58.47,59.15,58.47s59.15-25.67,59.15-58.47S585.21,179.13,553.47,179.13Zm0,98.41a40.09,40.09,0,0,1-40.39-39.93c0-22.83,18.75-39.94,40.39-39.94a39.94,39.94,0,1,1,0,79.87Z" style="fill: #fff"/>
      </g>
    </g>
  </g>
</svg>
