<svg xmlns="http://www.w3.org/2000/svg" viewBox="0 0 1073.3 1080">
  <g id="Layer_5" data-name="Layer 5">
    <path d="M993.61,719.47a183.67,183.67,0,0,1-33,37.86l-.91.79a11.16,11.16,0,0,1-4.22,1.65c-8.36,1.41-9.5-7.48-8.48-13.62,1.69-10.19,7.65-19.68,12.35-28.7,5.28-10.12,10.63-19.89,16.86-29.45,1.85-2.85,3.79-5.65,5.5-8.58,1-1.73,1.84-3.58,2.9-5.27,1.38-2.21,1.68-3.68-1.32-5-3.46-1.49-10-1.94-13.56-.53-3.77,1.52-6.92,5.43-9.74,8.18-5.53,5.41-13.86,15-22.7,12.41-16.79-4.9,5.86-37-10.85-38.39-17.47-1.48-22.25,24.49-12.19,35.39.56.61,3.58,2.84,3.67,3.45.06.43-3.58,5.43-4.57,6.84-2.73,3.87-5.47,7.84-8.33,11.6-.29.38-9.64,11-11.2,12.49-6.28,5.87-16,12.25-24.9,7.76,6-9.07,9.74-20.57,11.8-31.19A34.66,34.66,0,0,0,878.46,677c-6.58-14.78-22.49-19-36.82-13.57-20.79,7.94-33.84,23.23-44.68,42.24-.48.84-3.85,6.33-4.48,7.3-1.7,2.63-3.51,5.13-5.34,7.66-3.79,5.28-18.77,24.12-22.43,28.32-3.36,3.87-7.22,8.71-12.27,10.42-10.26,3.47-11.21-7.77-9.75-14.85a69.22,69.22,0,0,1,6.81-17.68c3.59-6.86,7.13-13.76,11-20.52,12.25-21.55,68.62-121.05,71.15-125.32,1.7-2.89,5-7.3,3.09-10.52-3.4-5.09-15-4.49-19.61-1.31-2.27,1.57-64.32,112.94-67.91,116.46-.37-2-.55-4.34-.79-6.06-.39-2.91-1-5.62-3-7.89-3.94-4.62-9.7-5.44-15.33-5.32a55.33,55.33,0,0,0-29.26,9.45c-12.82,8.53-23.64,20.95-31.11,35l-4.26,5.8c-4.61,6.26-9.7,12.15-14.68,18.12-6.55,7.86-14,18.71-23.14,23.7-7.39,4-12.66-.88-12.66-8.35,0-10.3,6.73-21,11.33-29.82A225.66,225.66,0,0,0,635,697.32c3.43-8.86,5.14-20.42-3.37-27-3.53-2.73-8.17-4.91-12.56-5.09a36.65,36.65,0,0,0-11,1.52c-8.48,2.16-16.77,5.63-23.21,11.79.48-2.24,2.68-4.45,3.84-6.46,1.41-2.44,3.58-5.8,1.87-8.37-2.28-3.41-8.71-3.74-12.42-3.42-7.35.62-9.88,5.65-13.41,11.35-3.94,6.32-7.41,12.91-11.07,19.36-3.22,5.67-6.93,11.35-9.66,17.37-.71,1.09-1.3,2.08-1.46,2.3-1.59,2.27-3.16,4.55-4.87,6.73-2.22,2.82-4.29,5.73-6.41,8.64-12.1,16.54-26.33,32.54-45.51,40.57-11.53,4.84-26,1.36-29.16-12.09-1-4.35-.13-9.28.44-13.59a44.46,44.46,0,0,1,2.09-8.55c.44-1.32,2.8-9.71,4.38-9.71.37,3,4.49,7.4,6.85,9.13a23,23,0,0,0,17,3.85c13.06-1.82,24.3-9.39,31.78-20.16,6.13-8.83,10.34-19.27,10.42-29.91,0-4.92-1.2-10.6-4.46-14.59-3.45-4.25-9.54-5.45-14.75-5.38-16.62,0-32.47,8.59-43.75,20.54a130.36,130.36,0,0,0-15.89,20.53c-2.95,2.94-9.41,13.38-10.93,14.77-1.95,2.13-5.3,6.94-9.34,12.47-1.32,1.67-2.57,3.38-3.91,5.05l.19-.08c-11.28,14.81-25.85,30.67-32.22,15.08.23-20.15,14.42-39.05,22.07-57.25,11.63-19.82,21.84-41.42,34.62-60.86,20.34,8.11,45.36,13.14,66.57,6.08,18.77-8,37.34-19.59,47.56-37.66,13.08-22,14.89-55.6-12.18-67.33h.39c-26.21-8.38-55,6.83-71.91,26.63-16.2,19.13-34.45,38.26-46.79,60.1-.9-.16-5-1.92-5.7-1.9-33.39-8-68-19.18-102.34-13.7-10.07,1.27-28.62,2.6-44.16,6.49,1.17-4,2.34-7.93,3.67-11.74,3.08-9.48,1.11-21.46-4.19-30.05-3.5-9.2-14.22-14.93-23.2-16.36-24.84-.68-48.11,20.78-52.69,44.89-3.21,13.17-1.55,27.18-.19,40.7,1.84,24.24,6.72,48.34,4.95,72.66-6.74,54.86-80.12,86.32-116.79,39.18-15.84-20.06-20-48-15.6-72.27,10.33-60.73,101.94-69.49,98.91,2.66-2.51,14-10.72,27.81-24,33.85a3.41,3.41,0,0,1-1.68.77c-2.06-1.83-3.73-4.93-4.64-9.61-6.05-11-26-3.47-21.55,9.43,10.27,15.94,34.77,14.27,45.93,2.36a39.53,39.53,0,0,0,12.38-17c6.66-16.7,7.29-36.47-2.29-52.49-13.43-22.61-43.72-31.25-67.33-20.55-74.84,29.47-49.45,155.48,31.57,154.45,60.22-1.48,91.81-47.94,83.69-105.37-1.83-29-12.1-60.82,0-89,7.34-21.84,36.28-41,48.32-11.42,7.89,27.35-7.47,28.88-19,46.79-.13.25-.19.47-.3.71s-.21.24-.3.37,0,.24,0,.38c-5.81,13.5,7.34,16.39,15.21,8.64,4.7-2.64,10-6.32,15.25-9.79C303.43,617,321.78,613.3,339.21,613c10.66-1.09,22.63.51,32.72,2.28a293.19,293.19,0,0,1,59.35,14.46c-6.84,13.35-30,49.31-44.33,81.82-2.42,3.17-5.05,6.62-5.89,8A340.45,340.45,0,0,1,348,760.24c-5.77,4.9-16.25,11.38-21.31,2.67,3.52-3.52,7.45-7.09,10.47-11,16.85-19.28,31.48-46.45,27.58-72.65-10-23.59-37.85-17.08-53.26-2.67-.53.29-3.81,3.57-3.61,3.23a135.47,135.47,0,0,0,9.69-16.93c2.07-8.44-18.45-5.24-20.92,0-8.85,15.92-19.39,31.9-27,48.31-17.55,32.77-40.23,79.71-57.45,113-4.11,7.65-9.91,15.43-12.93,23.59-2.17,5.43-7.38,9.11-7,14.65,4.61,8.83,20.8,5.39,23-4,17.85-31,37.77-75.37,56.3-106.14.35,28.36,26.05,29.48,45.65,18.27,3.32,1.51,7.94,3.72,12.18,3.8,21.65-3,37.51-25.61,50.2-43.56-5.93,18.44-6.62,33.58,3.81,39.38,20.6,11.17,42.26-21.89,53.65-35.77l.07-.14.57-.26,2.19-3.08c-2.12,8-2.57,14.88-.36,23,1.85,6.8,6.62,13.7,13.07,17.15,3.41,1.83,7.06,3.61,10.87,4.2,1.71.27,4.94.69,6.3.71,2.33,0,13.58-.55,21.5-4.85A123.32,123.32,0,0,0,527,740.92l.75-.94c-1,2-2,4-3,6-2.58,4.89-4.89,9.77-7.05,14.87-1.12,2.66-4.1,6.6-2.7,9.42,1.21,2.43,5.38,2.55,7.72,2.93,3.26.54,7.42,1.59,10.65.27,3.75-1.53,5.34-5.93,6.81-9.38,3.71-8.67,7.33-17.17,11.38-25.67,4.71-9.87,9.49-19.71,15-29.21,8.86-15.36,22.52-32.76,40.94-36.12,4.52-.83,10.7-1.77,12.76,3.55s-2.29,13.32-4.55,18.07c-6.26,13.13-14.26,25.35-20.16,38.68-4.74,10.76-10.5,25.78.52,34.64,7.94,6.39,18.63,4.9,27-.13,12.43-7.47,21.74-19.12,30.64-30.3,2-2.49,4.11-4.92,6.2-7.38a87.09,87.09,0,0,0-2.8,14.66c-.64,6.45.52,13.85,4.19,19.59,5.46,8.54,17.65,12.06,27,8,7.64-3.36,15.19-7.75,21-13.82,2.13-2.23,4.33-4.4,6.39-6.68,1-1.13,4.37-5.17,5.75-6.58-.22,1.68-.51,4.7-.59,6a17.67,17.67,0,0,0,.74,7.79,20.46,20.46,0,0,0,8.36,10.49c7.7,4.68,15.44,2,22.64-2.14,5.1-2.95,9.53-7.86,13.39-12.26,4.78-5.41,17.74-20.67,19.38-23-3.52,13.35-2.6,26.9,9.77,36.62,12.83,10.08,31.83,3.11,43.69-5.39A93.42,93.42,0,0,0,858,744.63c1.36-1.75,2.57-3.62,3.9-5.39,1.13-1.52,2.25-4,3.64-5.17s3.7-.14,5.75,0a32.65,32.65,0,0,0,6.84-.51,32.3,32.3,0,0,0,11.55-4,66.89,66.89,0,0,0,15.65-13.56c4.15-5,17.54-23.36,17.79-23.49s3.57,1,4.55,1.19a39.3,39.3,0,0,0,7.56.88,47.54,47.54,0,0,0,14.38-1.89,197,197,0,0,0-17.8,36.7c-3.52,10-9.41,24.7-3,34.56,4.13,6.35,12.43,10,19.83,8s14.31-8.15,19.57-13.41a6.53,6.53,0,0,0,.51-.69,119.18,119.18,0,0,0,9.68-10.7c5.16-6.54,25.65-27.84,25.24-38.35C999.27,706,996.19,717,993.61,719.47Zm-512.3-24.19a170.93,170.93,0,0,1,15.43-16.17c4.56-4.25,11.45-8,17.86-6.85,5.36,1,6.66,7,6.66,12,0,12.78-8,25-16.79,33.52-4.11,4-9.87,8-15.65,9-4.73.77-13.06,1.29-16.77-2C462.49,716.37,475.88,701.85,481.31,695.28Zm43-145.79c6.07-3.94,12.7-7.53,19.78-8.56,15-.18,25.16,19.68,23.78,33.29-1.58,34-31,57.3-62,65.43-17.73,1.54-35.22-2.49-51.74-8.75C471.07,598.81,497,572.85,524.29,549.49ZM322.1,745.41c-11.31-12.43-23,5.75-14.08,16.36-34.7,28.87-36.67-22.44-21.68-43.37,8.07-17.66,20.62-33.76,37.28-44.13,50.76-26.61,16.44,50.47,1.9,67C325.1,741.54,323,746.15,322.1,745.41Zm419.81-56.53a47,47,0,0,1-1.41,10c-1.26,5.09-7.39,15.91-10.18,21.28a240.84,240.84,0,0,1-13.54,22.69c-5.92,8.94-13.82,17.12-23.87,21.26-9.33,3.85-16-3.77-16.84-12.66-1.29-14.73,5.47-28.14,13.29-40.13A185.77,185.77,0,0,1,710.31,685c4.27-4.5,8.45-8.84,14.46-11,3.7-1.35,9.83-2.24,13.1.64C741.89,678.14,742.17,683.61,741.91,688.88Zm122.85,35.31c-2.59-4.52-1.82-10.3-3-15.22-1.59-4-5.41-6.2-9.5-4.19-3.45,1.71-4.66,5.77-5,9.35-.35,4.36.79,7.79,4,10.74,2.6,2.38,5.61,5.61,8.93,6.92a70.47,70.47,0,0,1-15.42,19.58c-3.52,3.16-15.14,13.17-23.95,15.37-3.51.89-9.72,1.62-13,0-4.4-2.13-5.9-10.54-6.27-14.8a44,44,0,0,1,2.08-16.17c2.55-8.65,14.52-30.06,19-35.47,3.49-4.18,21.76-27,26.1-29.28,6.72-3.57,14.43-1.16,19.87,3.74,6.32,5.69,7.15,16.28,5.59,24.12C873.32,703.41,868.77,718,864.76,724.19Z" style="fill: #201c42"/>
  </g>
</svg>
