<svg id="Layer_1" data-name="Layer 1" xmlns="http://www.w3.org/2000/svg" viewBox="0 0 1073.3 1080">
  <g>
    <g>
      <polygon points="539.18 522.66 539.18 527.16 586.38 507.43 586.39 507.45 588.36 506.63 579.5 493.76 539.18 510.61 539.18 522.66" style="fill: none"/>
      <path d="M540.47,530.44l-1.29.53v16.59l28-11.68h0l19.15-8,.1,0,12.87-5.38-8.85-12.87-49.89,20.84Z" style="fill: none"/>
      <polygon points="539.18 506.8 577.47 490.8 568.78 478.17 539.18 490.42 539.18 506.8" style="fill: none"/>
      <polygon points="565.87 475.57 559.55 472.33 538.92 480.97 537.56 481.67 536.05 481.03 515.16 472.31 509.24 475.39 537.79 487.17 565.87 475.57" style="fill: none"/>
      <polygon points="519.22 470.18 537.41 477.78 537.42 477.78 555.45 470.23 559.7 468.45 564.96 466.25 537.47 426.3 509.92 466.3 516.54 469.07 519.22 470.18" style="fill: none"/>
      <polygon points="539.18 551.38 539.18 556.8 539.18 567.94 547.14 564.62 567.55 556.08 567.55 556.09 586.38 548.22 586.38 548.22 610.14 538.28 601.29 525.42 586.45 531.62 539.18 551.38" style="fill: none"/>
      <polygon points="584.93 552.63 568.56 559.48 568.56 559.48 564.49 561.18 539.18 571.76 539.18 588.32 589.48 567.3 589.51 567.29 590.99 566.67 621.03 554.12 612.18 541.25 584.93 552.64 584.93 552.63" style="fill: none"/>
      <path d="M535.67,551.34l-27.86-11.61h0l-34.21-14.3-8.86,12.87,23.83,10,47.13,19.63V551.34Z" style="fill: none"/>
      <polygon points="623.07 557.08 591.97 570.08 544.95 589.73 539.18 592.13 539.18 609.37 588.26 587.44 630.86 568.4 623.07 557.08" style="fill: none"/>
      <polygon points="535.67 490.25 506.24 478.02 497.42 490.83 535.67 506.81 535.67 490.25" style="fill: none"/>
      <path d="M520.06,565.21l-29.77-12.4h0l-27.62-11.54-8.86,12.86L477.46,564l58.21,24.27V571.77L520,565.24Z" style="fill: none"/>
      <polygon points="535.67 527.12 535.67 522.66 535.67 510.63 495.38 493.79 486.52 506.66 488.54 507.5 535.67 527.12" style="fill: none"/>
      <path d="M535.67,547.52V530.93l-.28-.11h-.15L486.5,510.47h0l-2-.84-8.86,12.86,12.94,5.41Z" style="fill: none"/>
      <path d="M505.47,579.5l-27-11.23h0l-.45-.19-3.26-1.36h0l-23-9.63-9.26,13.44,25.3,10.57,67.86,28.27V592.15l-30.22-12.63Z" style="fill: none"/>
      <path d="M570.91,475.05a2.34,2.34,0,0,0-1.21-1.48l-5.9-3,2.52-1.06,4-1.67-2.45-3.57L540.38,424.3l-2.9-4.21-2.9,4.21L507,464.3l-2.46,3.57,4,1.67,2.38,1-5.48,2.86a2.55,2.55,0,0,0-.39.24l-.07,0-.17.24a2.32,2.32,0,0,0-.45.67l-67.23,97.58,30.45,12.72h0l24.55,10.25h0L537.45,614l0,0,48.07-21.48h0l3.26-1.46.13-.06,47.22-21.1ZM621,554.12l-30,12.55-1.48.62h0l-50.3,21V571.76l25.31-10.58,4.07-1.7h0l16.37-6.85h0l27.25-11.39Zm-10.89-15.83-23.76,9.93h0l-18.83,7.87h0l-20.41,8.54-8,3.32V551.38l47.27-19.76,14.84-6.2Zm-10.89-15.83-12.87,5.38-.1,0-19.15,8h0l-28,11.68V531l1.29-.53h0l49.89-20.84Zm-10.89-15.83-2,.82v0l-47.2,19.73V510.61l40.32-16.85ZM577.47,490.8l-38.29,16V490.42l29.6-12.25Zm-67.55-24.5,27.55-40L565,466.25l-5.27,2.2-4.24,1.78-18,7.55h0l-18.19-7.6-2.68-1.11Zm5.24,6L536.05,481l1.51.63,1.36-.69,20.63-8.64,6.32,3.24-28.08,11.6-28.55-11.78ZM506.24,478l29.43,12.23v16.56l-38.25-16Zm-10.86,15.77,40.29,16.84v16.49L488.54,507.5l-2-.84Zm-10.91,15.83,2,.84h0l48.74,20.36h.15l.28.11v16.59l-47.12-19.63-12.94-5.41Zm51.2,99.75L467.81,581.1l-25.3-10.57,9.26-13.44,23,9.63h0l3.26,1.36.45.19h0l27,11.23,0,0,30.22,12.63Zm0-21.09L477.46,564l-23.65-9.88,8.86-12.86,27.62,11.54h0l29.77,12.4,0,0,15.65,6.53Zm0-20.38-47.13-19.63-23.83-10,8.86-12.87,34.21,14.3h0l27.86,11.61V567.9Zm52.59,19.54-49.08,21.93V592.13l5.77-2.41,47-19.64,31.1-13,7.79,11.32Z" style="fill: #201c42"/>
    </g>
    <path d="M553.17,456.44a37,37,0,0,1-4.1-3.9c-.74-.78-1.5-1.58-2.29-2.34a16.58,16.58,0,0,0-3.67-2.74,10.13,10.13,0,0,0-4.54-1.19,15.07,15.07,0,0,0-2.33.11,14.74,14.74,0,0,0-2.29.44,11.64,11.64,0,0,0-4.21,2.15,10.54,10.54,0,0,0-1.66,1.71c-.23.31-.46.66-.65,1s-.37.55-.61.9c-.49.66-.94,1.22-1.37,1.71a9.06,9.06,0,0,1-1.58,1.49.19.19,0,0,0-.06.2.2.2,0,0,0,.09.09.15.15,0,0,0,.13,0,7.46,7.46,0,0,0,2-1.22,17.65,17.65,0,0,0,1.66-1.58,12.7,12.7,0,0,0,.88-1c.2-.24.38-.47.56-.67a8.44,8.44,0,0,1,1.55-1.39,14,14,0,0,1,7.91-2.65,9,9,0,0,1,4.09.9,15.5,15.5,0,0,1,3.58,2.44c.8.69,1.59,1.44,2.35,2.16a33.61,33.61,0,0,0,4.4,3.73.14.14,0,0,0,.09,0,.15.15,0,0,0,.13-.07.12.12,0,0,0,0-.12A.17.17,0,0,0,553.17,456.44Z" style="fill: #201c42"/>
    <path d="M538.51,449.25c-5.66,0-10.57,5-11.94,6.55-.27.23-.49.42-.69.61l-.16.14.14.17a23.4,23.4,0,0,0,2,2.13c.74.7,1.47,1.35,2.2,1.92a17.83,17.83,0,0,0,5.07,2.84.07.07,0,0,0,.08,0,.08.08,0,0,0,0-.1,19.49,19.49,0,0,1-4.86-3,27.26,27.26,0,0,1-2.14-1.92c-.65-.64-1.25-1.29-1.8-1.93l.2-.18a6,6,0,0,1,2.9,1.28l.63.54a20.73,20.73,0,0,0,4.25,3.08,7.22,7.22,0,0,0,1.73.91,7.63,7.63,0,0,0,2.43.33,10.2,10.2,0,0,0,3.54-.56A11.19,11.19,0,0,0,545,460.3l.53-.35a17.62,17.62,0,0,1,2.08-1.21,5.47,5.47,0,0,1,1.32-.41l-.32.31-.14.13c-.27.28-.56.56-.92.89a25,25,0,0,1-2,1.64,16.37,16.37,0,0,1-4.5,2.45s0,0,0,.08a.07.07,0,0,0,.07.06h0a15,15,0,0,0,4.69-2.26,24.08,24.08,0,0,0,2-1.61c.37-.33.69-.61,1-.88l0,0a2.78,2.78,0,0,1,.91-.69,3,3,0,0,1,.86-.2v0l.28,0a5.55,5.55,0,0,1,1.06,0h.12l-.07-.09C551.92,458,545.16,449.25,538.51,449.25Zm-.34,1.64a4,4,0,1,1-4,3.95A4,4,0,0,1,538.17,450.89Zm8.94,6.19c-.07.6-1.11,1.66-1.36,1.89a12.48,12.48,0,0,1-3.88,2.53,8.49,8.49,0,0,1-5.62.23,10.82,10.82,0,0,1-3.83-2.82l-.36-.35q-.27-.29-.54-.54l-.37-.33a2.21,2.21,0,0,1-.75-1.64,2.09,2.09,0,0,1,.62-1.59,16.46,16.46,0,0,1,3.05-2.31,4.85,4.85,0,0,0-.8,2.69,4.9,4.9,0,1,0,8.65-3.15,17.59,17.59,0,0,1,4.63,3.64A2.18,2.18,0,0,1,547.11,457.08Z" style="fill: #201c42"/>
    <path d="M538.17,457a2.13,2.13,0,1,0-2.13-2.13A2.14,2.14,0,0,0,538.17,457Z" style="fill: #201c42"/>
  </g>
</svg>
