<svg xmlns="http://www.w3.org/2000/svg" viewBox="0 0 1073.3 1080">
  <g id="Layer_4" data-name="Layer 4">
    <path d="M537.43,408.55h-4.69V374.5h4.69ZM435.67,451.69,410.9,426.91l3.32-3.32L439,448.37ZM656,423.59l3.31,3.32-25.4,25.4L630.56,449ZM723.4,545.43h38.51v4.7H723.4Zm-186-186h-4.7V321h4.7ZM400.27,416.28,373,389.05l3.32-3.31L403.59,413Zm269.63,0L666.59,413l27.23-27.23,3.31,3.31Zm-81.35,3.51-4.36-1.74L632,297.56l4.36,1.73ZM477.91,421l-48.77-114.1,4.32-1.84,48.76,114.08Zm191,124.49h39.47v4.69H668.91Zm-360.64,0h38.51v4.7H308.27Zm53.53,0H400v4.69H361.8Zm423.37-95L662.11,500.13l-1.75-4.36,123-49.71ZM290,439.63,410.49,490.9l-1.83,4.32L288.13,443.94Z" style="fill: #201c42"/>
  </g>
</svg>
