<svg xmlns="http://www.w3.org/2000/svg" viewBox="0 0 1073.3 1080">
  <g id="Layer_2" data-name="Layer 2">
    <g>
      <path d="M218.72,431.46a6,6,0,0,1,.29-2.26c.09-.34,0-.81-.85-1.12l-.24-.09a1.43,1.43,0,0,0-.32-.07l-.57-.13,0,.18a17,17,0,0,1-.6,2.2c-.27.84-.57,1.73-.91,2.64-.15.41-.32.86-.52,1.34l-.58,1.45c-.2.49-.39.93-.56,1.31l-.48,1-.07.15.53.27.22.1.23.12c.83.3,1.18,0,1.33-.32a7.49,7.49,0,0,1,1.24-1.9.93.93,0,0,1,1-.23,3.27,3.27,0,0,1,.85.58L234,450.45l-20.78.06a2.29,2.29,0,0,1-.75-.13.92.92,0,0,1-.57-.81,6.55,6.55,0,0,1,.31-2.23c.09-.33,0-.8-.8-1.1l-.38-.14a1.37,1.37,0,0,0-.57-.09h-.12l0,.12c-.29,1-.63,2.09-1.05,3.37s-.8,2.4-1.17,3.43c-.17.44-.36.95-.59,1.53l-.71,1.78c-.24.61-.48,1.2-.73,1.79s-.48,1.11-.69,1.57l0,.1.06.08a1,1,0,0,0,.45.3l.4.14a2,2,0,0,0,.66.14.76.76,0,0,0,.77-.47c.29-.57.53-1,.74-1.35a3.07,3.07,0,0,1,.59-.72,1.29,1.29,0,0,1,.56-.3,4.34,4.34,0,0,1,.67-.09l31.46-1a2,2,0,0,0,.88-.13,1,1,0,0,0,.42-.59l.12-.33a2.17,2.17,0,0,0,.1-.42l0-.1-23.72-22A2.41,2.41,0,0,1,218.72,431.46Z" style="fill: #201c42"/>
      <path d="M256,400.5a16.79,16.79,0,0,0-5.43-4.15,17.73,17.73,0,0,0-6.76-1.82,16.24,16.24,0,0,0-12.1,4.24,18.19,18.19,0,0,0-4.13,5.58,16.63,16.63,0,0,0-1.72,6.61,17.39,17.39,0,0,0,4.19,12.24,16.51,16.51,0,0,0,5.41,4.14,17.56,17.56,0,0,0,6.79,1.84l1,0a16.65,16.65,0,0,0,5.47-.9,16.11,16.11,0,0,0,5.6-3.34,17.91,17.91,0,0,0,4.13-5.57,16.91,16.91,0,0,0,1.73-6.63A17.12,17.12,0,0,0,256,400.5Zm.1,16.91a8.31,8.31,0,0,1-3.1,3.49,10.75,10.75,0,0,1-4.64,1.47,18.85,18.85,0,0,1-5.79-.49,31,31,0,0,1-6.49-2.36,14,14,0,0,1-3.93-2.75,11.29,11.29,0,0,1-2.32-3.33,8.46,8.46,0,0,1-.74-3.56,7.92,7.92,0,0,1,.78-3.35,9.06,9.06,0,0,1,3.22-3.74,10.44,10.44,0,0,1,4.63-1.55,12.5,12.5,0,0,1,1.38-.07,18.13,18.13,0,0,1,4.25.54A30.78,30.78,0,0,1,249.6,404a15.8,15.8,0,0,1,3.83,2.62,11.87,11.87,0,0,1,2.52,3.33,9.26,9.26,0,0,1,1,3.7A7.74,7.74,0,0,1,256.11,417.41Z" style="fill: #201c42"/>
      <path d="M283.24,373.12c-.94-.79-1.89-1.61-2.83-2.45s-1.82-1.69-2.58-2.47l-.1-.11-.75.52a1.67,1.67,0,0,0-.5.49.87.87,0,0,0-.05,1,18.67,18.67,0,0,1,1.5,2.26,6.47,6.47,0,0,1,.73,1.94,3.78,3.78,0,0,1-.07,1.8,7.21,7.21,0,0,1-.91,2l-1,1.63a19.9,19.9,0,0,1-2.65,3.58c-.62.59-1.18.71-1.71.39l-20.86-13a1.46,1.46,0,0,1-.79-1.27,7.76,7.76,0,0,1,.86-2.82.92.92,0,0,0-.53-1.07,3.43,3.43,0,0,0-.42-.23,4,4,0,0,0-.52-.24l-.14-.05-.08.13c-.25.47-.54,1-.86,1.57s-.64,1.14-1,1.71L247,370c-.31.53-.59,1-.83,1.38-.5.79-1.09,1.7-1.77,2.69s-1.36,2-2,2.81l-.07.11.07.1a1.74,1.74,0,0,0,.47.42l.38.24a.92.92,0,0,0,1.22,0,13.75,13.75,0,0,1,1.16-1.24,2.46,2.46,0,0,1,.79-.53,1.07,1.07,0,0,1,.61,0,2.63,2.63,0,0,1,.71.34l21.42,13.38a1.26,1.26,0,0,1,.68,1.29,12.14,12.14,0,0,1-.8,2.67c-.13.27-.16.68.48,1.08l.41.25a1.39,1.39,0,0,0,.57.23h.12l.05-.11c.47-.86,1-1.84,1.65-3s1.2-2.06,1.71-2.88l6.07-9.7c.23-.38.52-.8.85-1.27s.67-1,1-1.44.62-.91.9-1.31.51-.71.65-.94a1.43,1.43,0,0,0,.21-.65C283.78,373.66,283.61,373.4,283.24,373.12Z" style="fill: #201c42"/>
      <path d="M304.15,342.35c-.47-.59-.94-1.23-1.4-1.88s-.9-1.28-1.33-1.89-.82-1.19-1.14-1.69l-.1-.14-.14.09a3.88,3.88,0,0,0-.55.41,3,3,0,0,0-.47.47,1.65,1.65,0,0,0-.31.73,1.17,1.17,0,0,0,.19.85,16.92,16.92,0,0,1,1.39,2.75,6.44,6.44,0,0,1-.1,5.16,13.5,13.5,0,0,1-1.79,2.91,9.25,9.25,0,0,1-3.67,2.87,11.18,11.18,0,0,1-4.71.9,16.32,16.32,0,0,1-5.3-1.08,20.18,20.18,0,0,1-5.31-3,19.11,19.11,0,0,1-3.88-3.92,11.85,11.85,0,0,1-2-4.2,9.28,9.28,0,0,1,0-4.32,11.83,11.83,0,0,1,2.18-4.32,13.67,13.67,0,0,1,2.1-2.21,6.51,6.51,0,0,1,2.12-1.18,6.14,6.14,0,0,1,2.41-.22,13.73,13.73,0,0,1,2.93.71.9.9,0,0,0,.8,0,1.91,1.91,0,0,0,.57-.51,3.11,3.11,0,0,0,.33-.55c.12-.24.23-.44.3-.6l.09-.16-.18-.07a32.83,32.83,0,0,1-3.77-1.85c-1.23-.71-2.24-1.31-3-1.81l-.1-.07-.1.08a47.88,47.88,0,0,0-3.83,3.21,31.32,31.32,0,0,0-3.25,3.61,19.71,19.71,0,0,0-3.76,7.37,16.73,16.73,0,0,0-.25,6.9,16,16,0,0,0,2.4,5.93,19.36,19.36,0,0,0,4.16,4.51,21.5,21.5,0,0,0,6,3.31,15.59,15.59,0,0,0,5.17.9c.35,0,.71,0,1.07,0a14.47,14.47,0,0,0,6.13-1.95,19.71,19.71,0,0,0,5.63-5.1c1.25-1.61,2.36-3.16,3.31-4.6a49.44,49.44,0,0,0,2.58-4.4l.06-.1-.08-.09C305.12,343.53,304.63,343,304.15,342.35Z" style="fill: #201c42"/>
      <path d="M335.86,311.31a1.07,1.07,0,0,0-1.48-.18,7.36,7.36,0,0,1-1.64.94,2,2,0,0,1-1.5,0l-29.9-12.26-.08,0-.08.05-.45.35-.39.36a1.46,1.46,0,0,0-.27,1.65l12.26,29a2.28,2.28,0,0,1,.1,1.51,8.61,8.61,0,0,1-1.06,2c-.24.28-.39.76.27,1.41l.29.28a1.32,1.32,0,0,0,.46.29l.11,0,.08-.1c.56-.72,1.09-1.36,1.57-1.9s1-1.05,1.45-1.54c.67-.7,1.39-1.39,2.13-2.07s1.43-1.32,2.12-1.93l.12-.1-.09-.12a4.06,4.06,0,0,0-.56-.7,1,1,0,0,0-1.4-.19,5.71,5.71,0,0,1-1.87,1.08.9.9,0,0,1-.86-.2,3.48,3.48,0,0,1-.27-.34,1.45,1.45,0,0,1-.24-.5l-3.12-6.67,7.23-7.39,6.91,3.07a2.29,2.29,0,0,1,.6.4.86.86,0,0,1,.22,1,7.25,7.25,0,0,1-.93,1.76.87.87,0,0,0-.08.57,1.16,1.16,0,0,0,.41.7l.29.29a1.1,1.1,0,0,0,.46.28l.11,0,.08-.09c.3-.36.69-.79,1.15-1.29s.94-1,1.41-1.55.94-1,1.39-1.53.85-.91,1.18-1.24c.64-.65,1.34-1.33,2.09-2l2.35-2.14.11-.11-.08-.12A4.68,4.68,0,0,0,335.86,311.31Zm-25.59,7.37-4.75-10.43L316,312.84Z" style="fill: #201c42"/>
      <path d="M347.13,263.88a5.43,5.43,0,0,1,1.3-1.89c.23-.25.4-.7-.12-1.35a3.09,3.09,0,0,0-.28-.31l-.38-.36-.13-.1-.11.12c-.54.55-1.1,1.08-1.68,1.58s-1.29,1.09-2.13,1.76-1.6,1.25-2.24,1.71-1.33.93-2.05,1.38l-.11.06,0,.13a1.3,1.3,0,0,0,.26.51l.25.32a1,1,0,0,0,1.33.39,7.43,7.43,0,0,1,2.47-1.09,1.49,1.49,0,0,1,1.41.69l10.81,13.63L330,275a2,2,0,0,0-1,.14,9.27,9.27,0,0,0-1.62,1.11c-.37.3-.85.67-1.45,1.13l-1.8,1.33c-.37.24-.72.5-1.08.76s-.72.52-1.11.78l-.14.09.29.46a.86.86,0,0,0,.16.3l.14.17a1,1,0,0,0,1.29.42,5.46,5.46,0,0,1,2.2-.93h0a1.33,1.33,0,0,1,1.05.57l15.86,20a1.5,1.5,0,0,1,.37,1.33,5.93,5.93,0,0,1-1.39,2,1,1,0,0,0-.22.57,1.23,1.23,0,0,0,.34.78l.25.32a1.06,1.06,0,0,0,.43.33l.1,0,.09-.08c.51-.49,1.1-1,1.8-1.65s1.38-1.2,2.13-1.8,1.45-1.11,2.06-1.53l2-1.33.13-.09-.07-.13a4.39,4.39,0,0,0-.48-.76c-.26-.33-.49-.51-.71-.53a1,1,0,0,0-.57.11c-.62.32-1.15.57-1.54.74a3.11,3.11,0,0,1-.95.27.73.73,0,0,1-.54-.15,3.48,3.48,0,0,1-.55-.58l-13.23-16.66,30.75,7.28a2.66,2.66,0,0,0,1.21,0,2.25,2.25,0,0,0,.76-.37l.48-.41a5.88,5.88,0,0,0,.51-.51l.09-.11-18.42-23.2A1.56,1.56,0,0,1,347.13,263.88Z" style="fill: #201c42"/>
      <path d="M388.15,272.87c-.09-.18-.17-.32-.22-.41-.4-.62-.82-.63-1.11-.51a15.44,15.44,0,0,1-1.58.62,2.73,2.73,0,0,1-1,.15.9.9,0,0,1-.55-.23,4.24,4.24,0,0,1-.48-.63l-13.55-21.32a3.64,3.64,0,0,1-.36-.71.86.86,0,0,1,0-.59,3.07,3.07,0,0,1,.55-.82,14,14,0,0,1,1.25-1.18.92.92,0,0,0,0-1.2,2.86,2.86,0,0,0-.27-.38c-.12-.16-.25-.32-.37-.45l-.11-.11-.12.09c-.84.62-1.76,1.27-2.82,2s-1.9,1.29-2.7,1.8-1.76,1.09-2.8,1.69-2.06,1.18-3,1.68l-.11.06,0,.13a1.79,1.79,0,0,0,.24.58l.24.38a1,1,0,0,0,1.11.53,13.46,13.46,0,0,1,1.58-.63,2.35,2.35,0,0,1,.94-.13,1.09,1.09,0,0,1,.56.23,3,3,0,0,1,.5.61l13.55,21.32a2.89,2.89,0,0,1,.33.71,1,1,0,0,1,0,.61,2.42,2.42,0,0,1-.53.8,14.64,14.64,0,0,1-1.22,1.16c-.24.19-.43.55,0,1.22l.25.38a1.31,1.31,0,0,0,.41.43l.09.06.1-.07c.86-.62,1.8-1.29,2.8-2s1.89-1.29,2.71-1.81,1.73-1.07,2.78-1.68,2.1-1.2,3-1.7l.13-.07-.05-.14A3.27,3.27,0,0,0,388.15,272.87Z" style="fill: #201c42"/>
      <path d="M420.83,253.11c-.18-.76-.32-1.53-.45-2.3s-.25-1.55-.38-2.29-.23-1.41-.3-2l0-.16-.16,0a4,4,0,0,0-.67.12,3.41,3.41,0,0,0-.63.23,1.65,1.65,0,0,0-.6.52,1.26,1.26,0,0,0-.2.85,17.15,17.15,0,0,1,.07,3.09,6.81,6.81,0,0,1-.68,2.5,6.71,6.71,0,0,1-1.65,2.1,13.54,13.54,0,0,1-2.88,1.85,9.15,9.15,0,0,1-4.54,1,11.3,11.3,0,0,1-4.64-1.23,15.94,15.94,0,0,1-4.3-3.26,20.57,20.57,0,0,1-3.49-5,19.22,19.22,0,0,1-1.79-5.23,11.78,11.78,0,0,1,.05-4.63,9.1,9.1,0,0,1,1.9-3.88,11.42,11.42,0,0,1,3.84-2.94,13.55,13.55,0,0,1,2.85-1.09,6.33,6.33,0,0,1,2.43-.14,6,6,0,0,1,2.25.84,13.38,13.38,0,0,1,2.34,1.91.87.87,0,0,0,.71.36,1.64,1.64,0,0,0,.73-.2,3.79,3.79,0,0,0,.54-.36l.53-.41.15-.11-.13-.14a31.4,31.4,0,0,1-2.59-3.3c-.82-1.17-1.45-2.15-1.92-2.92l-.06-.1-.12,0a47.25,47.25,0,0,0-4.84,1.23,31.76,31.76,0,0,0-4.49,1.84,19.54,19.54,0,0,0-6.59,5,16.51,16.51,0,0,0-3.21,6.1,15.69,15.69,0,0,0-.41,6.38,19.12,19.12,0,0,0,1.79,5.87,21.18,21.18,0,0,0,3.95,5.56,15.24,15.24,0,0,0,5.24,3.49,14.1,14.1,0,0,0,5.17.93c.39,0,.8,0,1.21,0a19.49,19.49,0,0,0,7.28-2.16c1.81-.9,3.49-1.81,5-2.7a46.65,46.65,0,0,0,4.23-2.85l.1-.07,0-.11C421.18,254.59,421,253.86,420.83,253.11Z" style="fill: #201c42"/>
      <path d="M479.71,235.55a1.06,1.06,0,0,0-1.18-.9,7,7,0,0,1-1.89,0,1.93,1.93,0,0,1-1.31-.72L455.6,208.19l-.09,0-.57.07a4.7,4.7,0,0,0-.51.12,1.46,1.46,0,0,0-1.06,1.29l-4,31.22a2.29,2.29,0,0,1-.68,1.35,8.9,8.9,0,0,1-1.92,1.2c-.35.12-.72.46-.48,1.35l.11.39a1.18,1.18,0,0,0,.26.48l.08.09.11,0c.85-.35,1.63-.63,2.32-.85s1.37-.43,2-.61q1.4-.39,2.88-.72c1-.21,1.93-.42,2.81-.59l.15,0v-.15a4.76,4.76,0,0,0-.14-.89,1,1,0,0,0-1.12-.86,5.81,5.81,0,0,1-2.15,0,.88.88,0,0,1-.64-.61,3,3,0,0,1-.07-.42,1.83,1.83,0,0,1,.05-.56l.66-7.33,10-2.75,4.42,6.14a2.11,2.11,0,0,1,.32.64.89.89,0,0,1-.29.94,7.62,7.62,0,0,1-1.69,1.05.87.87,0,0,0-.36.45,1.26,1.26,0,0,0,0,.82l.11.38a1.22,1.22,0,0,0,.25.48l.08.09.11,0c.44-.16,1-.34,1.65-.53l2-.63c.67-.22,1.33-.43,2-.62l1.64-.48c.87-.24,1.82-.47,2.83-.7s2.05-.45,3.11-.67l.15,0v-.15A4.7,4.7,0,0,0,479.71,235.55ZM453.9,229l1.14-11.4,6.73,9.24Z" style="fill: #201c42"/>
      <path d="M519.89,230.09a1.21,1.21,0,0,0-.29-.72.87.87,0,0,0-.52-.21,14.52,14.52,0,0,1-2.24-.47,4.8,4.8,0,0,1-2.23-1.48l-9.16-10.29a10.09,10.09,0,0,0,3.93-3.81,8.11,8.11,0,0,0,1-5.14,8.83,8.83,0,0,0-1.27-3.62,8.26,8.26,0,0,0-2.67-2.62,10.75,10.75,0,0,0-3.87-1.42,16.16,16.16,0,0,0-4.88-.05l-7.56,1c-1,.12-2.07.24-3.28.34s-2.32.19-3.24.24h-.1l-.05.09a1,1,0,0,0-.06.52l.06.44a1.4,1.4,0,0,0,.28.79,1.12,1.12,0,0,0,.52.29h.05a7.41,7.41,0,0,1,2.79.33,1.43,1.43,0,0,1,.81,1.22l3.19,25.06a2.38,2.38,0,0,1,0,.77,1,1,0,0,1-.35.53,3.62,3.62,0,0,1-.9.49c-.42.18-1,.37-1.64.59-.31.1-.65.39-.55,1.21l.05.4a1.26,1.26,0,0,0,.19.51l.06.1.11,0c1-.19,2-.37,3.1-.57s2.28-.36,3.46-.51c1.69-.22,3.28-.4,4.73-.53s2.67-.23,3.64-.29h.16v-.15a4.89,4.89,0,0,0,0-.95c-.11-.86-.6-1.05-1-1.06a11.64,11.64,0,0,1-3.37-.34,1.5,1.5,0,0,1-1.06-1.36l-1.31-10.28,1.89-.24,9.15,10.4a12,12,0,0,0,2.38,2.09,3.51,3.51,0,0,0,2.33.64l1.77-.21,2.16-.19,2.09-.19c.65-.07,1.17-.11,1.54-.12h.13l0-.12a1.64,1.64,0,0,0,0-.58Zm-16.73-18a4.39,4.39,0,0,1-1.08,2,5.34,5.34,0,0,1-2,1.26,12,12,0,0,1-2.73.65l-1.33.17-1.61-12.66,1.34-.17c2.46-.32,4.28,0,5.39,1.08a7.41,7.41,0,0,1,2.07,4.6A8.36,8.36,0,0,1,503.16,212.13Z" style="fill: #201c42"/>
      <path d="M556.17,203.35c-.13-.61-.25-1.23-.34-1.84a18.93,18.93,0,0,1-.29-2,5,5,0,0,0-.22-1.39,1,1,0,0,0-1-.56c-.41,0-1.16,0-2.26.11s-2.4.11-3.89.08l-15.53-.29c-1.53,0-2.85-.1-3.93-.22s-1.83-.18-2.21-.19h0a1,1,0,0,0-.95.54,6.27,6.27,0,0,0-.29,1.35c-.07.6-.19,1.3-.34,2.06a18.18,18.18,0,0,1-.43,1.81c-.18.62-.39,1.33-.64,2.13l0,.14.12.07a4.76,4.76,0,0,0,.63.24,2.27,2.27,0,0,0,.76.15h0a.94.94,0,0,0,.9-.54,19.54,19.54,0,0,1,1.22-2.2,5.5,5.5,0,0,1,1.29-1.44,4.88,4.88,0,0,1,1.67-.8,9,9,0,0,1,2.36-.23l4.25.08-.48,26.34a1.7,1.7,0,0,1-.44,1.3,4.66,4.66,0,0,1-2.28.6,1.06,1.06,0,0,0-.8.4,1.22,1.22,0,0,0-.16.66,4,4,0,0,0,0,.47,1.77,1.77,0,0,0,.13.57l.06.1h.11c1-.05,2.16-.09,3.4-.11s2.27,0,3.25,0,2,.06,3.24.13l3.45.24.14,0,0-.14a3.42,3.42,0,0,0,.09-.53c0-.21,0-.37,0-.47a1,1,0,0,0-.88-1,9.26,9.26,0,0,1-1.53-.34,2.31,2.31,0,0,1-.79-.42.86.86,0,0,1-.31-.49,3.05,3.05,0,0,1-.06-.79l.48-26.35,4.26.08a8.85,8.85,0,0,1,2.3.32,4.77,4.77,0,0,1,1.63.85,5.47,5.47,0,0,1,1.25,1.49,23.58,23.58,0,0,1,1.14,2.26,1,1,0,0,0,.95.56,2.35,2.35,0,0,0,.73-.12c.26-.08.48-.15.65-.22l.15,0,0-.16C556.51,204.7,556.32,204,556.17,203.35Z" style="fill: #201c42"/>
      <path d="M593.41,207.68c-.06-.54-.1-1.11-.13-1.69a19,19,0,0,1,0-2.25,6.75,6.75,0,0,0-.07-1.58,1,1,0,0,0-.87-.66c-.4-.06-1.16-.11-2.26-.16s-2.38-.17-3.88-.37l-10.24-1.39c-.8-.11-1.76-.26-2.83-.43s-2.34-.42-3.77-.72l-.12,0-.06.11a1.7,1.7,0,0,0-.19.53l-.06.47c-.1.72.21,1,.49,1.15.67.23,1.22.43,1.66.61a4.91,4.91,0,0,1,1,.53,1.08,1.08,0,0,1,.44.54,1.9,1.9,0,0,1,0,.77l-3.39,25a1.26,1.26,0,0,1-.9,1.14,11.41,11.41,0,0,1-2.77.37h0c-.3,0-.66.16-.76.88l-.07.48a1.36,1.36,0,0,0,0,.62l0,.11h.12c1,.07,2.12.17,3.39.29s2.37.24,3.32.37l11.34,1.54c.44.06.95.14,1.54.26s1.18.22,1.76.31l1.61.3,1.15.21h.23a.9.9,0,0,0,.8-.4c0-.1.14-.29.27-.58s.25-.64.39-1,.27-.75.41-1.16l.33-1,0-.09a9.12,9.12,0,0,0,.45-1,6.58,6.58,0,0,1,.55-1.13c.1-.23.21-.45.32-.66s.23-.47.34-.74l.05-.13-.79-.47a1.72,1.72,0,0,0-.64-.26.83.83,0,0,0-.92.33c-.5.74-1,1.41-1.48,2a7.85,7.85,0,0,1-1.59,1.47,5.84,5.84,0,0,1-1.92.86,6.89,6.89,0,0,1-2.51,0l-2.1-.29a19.46,19.46,0,0,1-4.31-.93c-.76-.32-1.09-.77-1-1.39l1.49-11,6.87.93a1.15,1.15,0,0,1,1,.73,9.27,9.27,0,0,1,.32,2.59c0,.4.12.9,1,1l.49.05a1.2,1.2,0,0,0,.58-.09l.09,0v-.1c0-1.05.1-2,.18-2.79s.16-1.52.24-2.12.23-1.56.42-2.56.37-1.89.54-2.64l0-.13-.12-.06a2,2,0,0,0-.5-.16A4.12,4.12,0,0,0,588,212a1.61,1.61,0,0,0-.74,0,.8.8,0,0,0-.48.6,10.45,10.45,0,0,1-.92,2.4,1.14,1.14,0,0,1-1.24.52l-6.87-.93,1.58-11.7,6.48.88a10,10,0,0,1,2.25.55,4.54,4.54,0,0,1,1.52,1,5.67,5.67,0,0,1,1.06,1.63,20.39,20.39,0,0,1,.87,2.38,1,1,0,0,0,.88.67,2.16,2.16,0,0,0,.67,0c.21,0,.41-.08.58-.13l.17,0,0-.17C593.58,208.9,593.47,208.22,593.41,207.68Z" style="fill: #201c42"/>
      <path d="M624.74,209a20.67,20.67,0,0,0-4-1.53A13,13,0,0,0,616,207a10.64,10.64,0,0,0-3.87,1.13,8.65,8.65,0,0,0-2.9,2.43,9.75,9.75,0,0,0-1.69,3.52,8.59,8.59,0,0,0,0,5.08,10.38,10.38,0,0,0,2.27,3.68,20.57,20.57,0,0,0,3.41,2.84,41.47,41.47,0,0,1,3.44,2.52,9.9,9.9,0,0,1,2.41,2.73,4.44,4.44,0,0,1,.31,3.48,5.62,5.62,0,0,1-.81,1.76,4.49,4.49,0,0,1-1.39,1.29,5.18,5.18,0,0,1-2,.62,7.37,7.37,0,0,1-2.63-.26,11.14,11.14,0,0,1-3-1.19,6.41,6.41,0,0,1-2-1.81,8.26,8.26,0,0,1-1.2-2.61,18.86,18.86,0,0,1-.57-3.54,1.83,1.83,0,0,0-.33-1,1.68,1.68,0,0,0-.91-.5,3.36,3.36,0,0,0-1.24-.11l-.14,0v.14c-.07,1.34-.18,2.72-.32,4.11s-.35,2.82-.61,4.22l0,.1.07.07a26.17,26.17,0,0,0,3.83,2.62,22.72,22.72,0,0,0,5.61,2.22,16.17,16.17,0,0,0,4.1.58,11.61,11.61,0,0,0,1.2-.06,10.46,10.46,0,0,0,4.09-1.26,8.63,8.63,0,0,0,2.87-2.63,11.19,11.19,0,0,0,1.61-3.49,8.45,8.45,0,0,0,0-5.07,10.94,10.94,0,0,0-2.38-3.85,22.37,22.37,0,0,0-3.56-3c-1.3-.89-2.51-1.78-3.61-2.66a12,12,0,0,1-2.58-2.7,3.62,3.62,0,0,1-.46-3.09,3.88,3.88,0,0,1,2.44-2.94,6.84,6.84,0,0,1,4.17-.1A8.4,8.4,0,0,1,624,212.7a8.72,8.72,0,0,1,1.82,4.66,1.53,1.53,0,0,0,.27.74,1.55,1.55,0,0,0,1,.6,3.2,3.2,0,0,0,1,.11h.15v-.16c.06-1,.17-2.16.35-3.41s.35-2.39.54-3.37l0-.1-.09-.07A32.92,32.92,0,0,0,624.74,209Z" style="fill: #201c42"/>
      <path d="M654.3,221.32a13.71,13.71,0,0,1,1.7.29c.3,0,.7-.1.94-.75,0-.09.08-.25.14-.45s.1-.38.13-.56l0-.15-.15,0c-1-.3-2.11-.65-3.29-1s-2.2-.73-3.07-1.05-1.93-.75-3-1.21-2.18-.93-3.15-1.35l-.11-.06-.09.09a2,2,0,0,0-.32.55l-.16.42a.94.94,0,0,0,.26,1.2,14.44,14.44,0,0,1,1.45.87,2.69,2.69,0,0,1,.68.68,1.08,1.08,0,0,1,.15.59,2.7,2.7,0,0,1-.19.76l-8.77,23.68a2.74,2.74,0,0,1-.36.71,1,1,0,0,1-.5.34,2.42,2.42,0,0,1-1,.07,14,14,0,0,1-1.67-.27c-.29-.09-.7,0-1,.73l-.15.43a1.25,1.25,0,0,0-.1.58l0,.11.11,0c1,.3,2.07.64,3.27,1s2.18.73,3.09,1.07,1.89.73,3,1.19,2.21.94,3.17,1.37l.14.06.08-.12a2.86,2.86,0,0,0,.25-.47,2.59,2.59,0,0,0,.19-.43c.26-.69,0-1-.25-1.19a13.82,13.82,0,0,1-1.45-.88,2.92,2.92,0,0,1-.71-.69.89.89,0,0,1-.15-.57,3.94,3.94,0,0,1,.21-.77l8.78-23.68a3.25,3.25,0,0,1,.34-.72.86.86,0,0,1,.49-.33A2.62,2.62,0,0,1,654.3,221.32Z" style="fill: #201c42"/>
      <path d="M684.56,231.67a4,4,0,0,0-.45-.25,1.45,1.45,0,0,0-1.65.24L658.6,252.19a2.24,2.24,0,0,1-1.4.56,7.87,7.87,0,0,1-2.23-.4c-.35-.14-.85-.13-1.26.69l-.18.36a1.18,1.18,0,0,0-.13.53v.12l.11,0c.86.32,1.62.63,2.29.92s1.31.6,1.91.9c.85.43,1.74.9,2.62,1.4s1.72,1,2.49,1.44l.13.08.09-.12a4.15,4.15,0,0,0,.49-.76,1,1,0,0,0-.26-1.38,5.84,5.84,0,0,1-1.59-1.45.88.88,0,0,1-.07-.88c0-.06.1-.17.24-.36a1.37,1.37,0,0,1,.41-.38l5.39-5,9.25,4.63-.82,7.52a2.35,2.35,0,0,1-.18.69.9.9,0,0,1-.86.5,6.76,6.76,0,0,1-1.95-.34.88.88,0,0,0-.58.09,1.22,1.22,0,0,0-.54.61l-.18.36a1.12,1.12,0,0,0-.13.53v.11l.1.05c.44.17,1,.41,1.59.7s1.26.59,1.9.87,1.28.57,1.89.86l1.54.74c.8.41,1.67.87,2.57,1.37s1.83,1,2.76,1.58l.13.08.09-.12a5.13,5.13,0,0,0,.52-.8,1.08,1.08,0,0,0-.28-1.46,6.65,6.65,0,0,1-1.4-1.28,1.89,1.89,0,0,1-.49-1.4l2.53-32.22v-.1L685,232Zm-7.35,18.39-7.3-3.65,8.47-7.71Z" style="fill: #201c42"/>
      <path d="M735.1,263.17c-.65-.41-1.42-.91-2.31-1.52s-1.66-1.15-2.3-1.63-1.28-1-1.92-1.55l-.09-.09-.11.08a1.61,1.61,0,0,0-.42.4l-.23.34a1,1,0,0,0,0,1.38,7.36,7.36,0,0,1,1.77,2,1.5,1.5,0,0,1-.24,1.54l-9.81,14.38-1.86-26.45a2,2,0,0,0-.43-.93,9.1,9.1,0,0,0-1.55-1.22c-.39-.26-.89-.62-1.5-1.06s-1.22-.87-1.8-1.31l-1.05-.81c-.35-.26-.71-.53-1.08-.83l-.12-.1-.36.41a.91.91,0,0,0-.24.24l-.12.18a1,1,0,0,0,0,1.36,5.25,5.25,0,0,1,1.54,1.83,1.31,1.31,0,0,1-.24,1.18L696.28,272.1a1.52,1.52,0,0,1-1.16.75,6.17,6.17,0,0,1-2.36-.73.88.88,0,0,0-.6,0,1.23,1.23,0,0,0-.64.55l-.23.34a1.12,1.12,0,0,0-.2.5l0,.12.1.06c.63.34,1.33.75,2.12,1.23s1.54,1,2.34,1.51,1.49,1,2.07,1.5l1.86,1.48.12.1.11-.11a5.33,5.33,0,0,0,.59-.68,1.23,1.23,0,0,0,.29-.83,1,1,0,0,0-.27-.52c-.5-.5-.9-.92-1.17-1.25a3,3,0,0,1-.54-.83.78.78,0,0,1,0-.56,4,4,0,0,1,.39-.69l12-17.58,2.17,31.52a2.64,2.64,0,0,0,.32,1.17,2,2,0,0,0,.58.62l.54.34a5.45,5.45,0,0,0,.63.34l.13,0L732.12,266a1.54,1.54,0,0,1,1.19-.79,5.28,5.28,0,0,1,2.19.68c.32.14.79.18,1.25-.51A3.28,3.28,0,0,0,737,265l.23-.46.06-.16-.14-.07C736.43,264,735.74,263.57,735.1,263.17Z" style="fill: #201c42"/>
      <path d="M792.45,319.64a7.32,7.32,0,0,1,1.9,1.27c.28.25.75.41,1.41-.24a1.37,1.37,0,0,0,.19-.21,1.28,1.28,0,0,1,.19-.23l.37-.46-.14-.1a22.91,22.91,0,0,1-1.75-1.51c-.62-.6-1.29-1.25-2-2s-1.3-1.37-2-2.16-1.23-1.42-1.57-1.87L789,312l-.47.36a.87.87,0,0,1-.2.15,1.12,1.12,0,0,0-.2.17c-.63.61-.5,1.06-.29,1.33A7.88,7.88,0,0,1,789,316a.92.92,0,0,1-.24,1,3,3,0,0,1-.89.53l-16.62,7.78,9.67-20.68a2.3,2.3,0,0,0,.23-.81.93.93,0,0,0-.32-.66l-.28-.25-.38-.28-.08-.06-21.41,9.85,8.25-17a3.43,3.43,0,0,1,.2-.39,1,1,0,0,1,.21-.26.89.89,0,0,1,1-.16,6.21,6.21,0,0,1,1.87,1.24c.29.25.75.42,1.39-.2a3.31,3.31,0,0,0,.28-.31c.11-.14.22-.27.32-.42l.08-.12-.11-.11c-.76-.68-1.62-1.49-2.58-2.4s-1.81-1.76-2.58-2.55c-.32-.33-.7-.73-1.12-1.19l-1.3-1.41q-.66-.72-1.29-1.44l-1.12-1.3-.06-.07H762a1,1,0,0,0-.47.27l-.31.3c-.69.67-.55,1.16-.32,1.44a7.21,7.21,0,0,1,1.33,2.16,1.9,1.9,0,0,1-.15,1.28l-13.26,28.25a1.92,1.92,0,0,0-.26.85,1,1,0,0,0,.34.63l.23.23a2.14,2.14,0,0,0,.32.26l.09.06,21.52-9.89-9.78,20.71a2.46,2.46,0,0,0-.22.88.9.9,0,0,0,.31.59l.24.26a2.26,2.26,0,0,0,.31.24l.08.05,28.85-13.12A2.15,2.15,0,0,1,792.45,319.64Z" style="fill: #201c42"/>
      <path d="M793.68,367.43a2,2,0,0,1,.18-1.48l16.55-27.88,0-.08c-.1-.19-.2-.35-.29-.5a4,4,0,0,0-.29-.43,1.46,1.46,0,0,0-1.6-.51l-30.46,7.89a2.36,2.36,0,0,1-1.51-.11A8.75,8.75,0,0,1,774.4,343c-.25-.28-.71-.5-1.44.06l-.32.25a1.15,1.15,0,0,0-.35.41l0,.11.08.09c.62.65,1.18,1.27,1.65,1.83s.9,1.11,1.31,1.65c.59.77,1.17,1.58,1.74,2.41s1.11,1.65,1.59,2.39l.08.13.14-.07a4.12,4.12,0,0,0,.78-.46,1,1,0,0,0,.38-1.36,6.22,6.22,0,0,1-.8-2,.9.9,0,0,1,.34-.83,3.05,3.05,0,0,1,.37-.22,1.38,1.38,0,0,1,.53-.16l7.05-2.12,6.26,8.24-4,6.38a2.44,2.44,0,0,1-.48.54.87.87,0,0,1-1,.08,7.28,7.28,0,0,1-1.6-1.18.91.91,0,0,0-.56-.17,1.3,1.3,0,0,0-.76.31l-.32.24a1.16,1.16,0,0,0-.35.42l0,.1.08.09c.3.35.68.79,1.11,1.33s.87,1.08,1.33,1.62.88,1.08,1.3,1.6.77,1,1.05,1.35c.55.71,1.12,1.51,1.71,2.37s1.18,1.74,1.78,2.63l.08.13.14-.07a4.34,4.34,0,0,0,.81-.49,1.06,1.06,0,0,0,.39-1.43A7.38,7.38,0,0,1,793.68,367.43Zm-3.26-23.19,11-3.18-6.07,9.68Z" style="fill: #201c42"/>
      <path d="M807,387.32a4.4,4.4,0,0,1,.64-.48L830,373l2.24,3.62a8.28,8.28,0,0,1,1,2.1,4.88,4.88,0,0,1,.17,1.84,5.8,5.8,0,0,1-.58,1.85,20.18,20.18,0,0,1-1.28,2.18,1,1,0,0,0,0,1.1,2.29,2.29,0,0,0,.5.55,6.68,6.68,0,0,0,.54.43l.13.1.1-.13c.54-.65,1-1.2,1.48-1.65s.9-.88,1.36-1.29a16.89,16.89,0,0,1,1.57-1.35,5.17,5.17,0,0,0,1.05-.94,1,1,0,0,0-.05-1.1c-.21-.34-.65-1-1.32-1.84s-1.38-2-2.17-3.23L826.63,362c-.8-1.3-1.45-2.46-1.94-3.44s-.84-1.64-1-1.95a1,1,0,0,0-1-.53,6.38,6.38,0,0,0-1.3.49c-.53.25-1.18.53-1.9.83-.56.22-1.15.43-1.77.61s-1.32.39-2.13.62l-.14,0,0,.15a4,4,0,0,0,.12.65,2.7,2.7,0,0,0,.29.72.93.93,0,0,0,.95.49,20.36,20.36,0,0,1,2.51-.18,6.08,6.08,0,0,1,1.92.31,4.89,4.89,0,0,1,1.57,1,8.7,8.7,0,0,1,1.46,1.85l2.24,3.63-22.4,13.85a1.72,1.72,0,0,1-1.33.34c-.26-.08-.77-.42-1.74-1.59a1,1,0,0,0-.77-.46,1.23,1.23,0,0,0-.64.22c-.09.06-.22.14-.39.27a1.43,1.43,0,0,0-.4.42l-.07.1.07.09c.6.85,1.24,1.76,1.94,2.8s1.27,1.9,1.77,2.72,1.05,1.74,1.65,2.8,1.16,2.1,1.66,3l.07.13.13,0a3.34,3.34,0,0,0,.5-.22,4.38,4.38,0,0,0,.41-.22,1,1,0,0,0,.4-1.31,10.1,10.1,0,0,1-.54-1.47,2.44,2.44,0,0,1-.08-.89A.87.87,0,0,1,807,387.32Z" style="fill: #201c42"/>
      <path d="M832.86,429.11c.24-.05.48-.08.73-.11a8,8,0,0,0,.79-.12l.15,0,0-.91a1.66,1.66,0,0,0-.15-.67.83.83,0,0,0-.78-.59c-.89,0-1.73-.05-2.48-.12A8.12,8.12,0,0,1,829,426a6.08,6.08,0,0,1-1.76-1.13,6.84,6.84,0,0,1-1.44-2.07l-.93-1.9a18.86,18.86,0,0,1-1.6-4.1c-.16-.81,0-1.34.6-1.61l10-4.85,3,6.24a1.16,1.16,0,0,1-.06,1.23,9.2,9.2,0,0,1-2,1.7c-.35.19-.67.59-.29,1.39l.24.43a1.15,1.15,0,0,0,.39.44l.09.05.09-.06c.89-.54,1.7-1,2.41-1.39s1.36-.72,1.9-1,1.43-.66,2.37-1.06,1.78-.75,2.49-1l.13-.05,0-.13a1.9,1.9,0,0,0-.15-.51c-.08-.21-.15-.36-.19-.45a1.71,1.71,0,0,0-.45-.6.81.81,0,0,0-.77-.07,9.7,9.7,0,0,1-2.5.56,1.12,1.12,0,0,1-1.12-.74l-3-6.24L847,404l2.85,5.87a9,9,0,0,1,.79,2.18,4.39,4.39,0,0,1,0,1.84,5.89,5.89,0,0,1-.76,1.78,23.66,23.66,0,0,1-1.5,2,1,1,0,0,0-.07,1.1,1.83,1.83,0,0,0,.38.54l.43.42.13.11.11-.11c.58-.58,1.08-1,1.5-1.4s.86-.69,1.33-1a18.66,18.66,0,0,1,1.85-1.28,6.4,6.4,0,0,0,1.28-.93,1,1,0,0,0,.07-1.09c-.18-.37-.55-1-1.12-2s-1.18-2.08-1.84-3.43L848,399.3c-.35-.73-.76-1.6-1.21-2.61s-.94-2.17-1.48-3.52l0-.12h-.13a1.53,1.53,0,0,0-.54.13l-.43.21c-.66.32-.74.74-.68,1.05.18.69.32,1.26.41,1.72a5.11,5.11,0,0,1,.12,1.13,1,1,0,0,1-.21.66,1.76,1.76,0,0,1-.62.46l-22.72,11a1.29,1.29,0,0,1-1.45-.11,11.18,11.18,0,0,1-1.84-2.1c-.17-.26-.49-.5-1.17-.17l-.43.21a1.36,1.36,0,0,0-.5.37l-.07.1.06.09c.5.87,1,1.88,1.64,3s1.11,2.11,1.53,3l5,10.3c.19.4.41.87.63,1.42s.47,1.1.72,1.64.45,1,.64,1.51.35.83.47,1.07a1,1,0,0,0,.89.65l.63-.11c.32-.06.67-.13,1.05-.23l1.2-.3,1.09-.28a9.92,9.92,0,0,0,1.11-.2A6.12,6.12,0,0,1,832.86,429.11Z" style="fill: #201c42"/>
      <path d="M867.93,447.71a16.4,16.4,0,0,0-1-4.77l-2.61-7.15c-.33-.91-.69-2-1.06-3.12s-.7-2.22-1-3.11l0-.1-.1,0a.84.84,0,0,0-.51.05l-.43.16a1.27,1.27,0,0,0-.69.45,1.13,1.13,0,0,0-.18.57v0a7.55,7.55,0,0,1,.29,2.8,1.4,1.4,0,0,1-1,1.06l-23.72,8.68a2.07,2.07,0,0,1-.75.16h0a1,1,0,0,1-.58-.22,3.49,3.49,0,0,1-.7-.78c-.25-.36-.57-.85-.93-1.46-.17-.28-.53-.56-1.3-.27l-.38.14a1.29,1.29,0,0,0-.46.29l-.07.09,0,.1c.39.87.81,1.85,1.25,2.9s.86,2.13,1.27,3.26c.58,1.59,1.11,3.09,1.57,4.49s.82,2.56,1.08,3.49l.05.14.15,0a4.94,4.94,0,0,0,.92-.23c.82-.3.89-.82.81-1.21a11.65,11.65,0,0,1-.41-3.36,1.5,1.5,0,0,1,1.09-1.34l9.73-3.56.65,1.79-8.1,11.23a12,12,0,0,0-1.52,2.79,3.48,3.48,0,0,0-.09,2.41c.15.44.35,1,.58,1.68s.46,1.37.68,2.06.43,1.35.65,2,.37,1.12.46,1.48l0,.12h.18a1.46,1.46,0,0,0,.52-.09l.43-.16a1.1,1.1,0,0,0,.63-.44.88.88,0,0,0,.1-.55,13.18,13.18,0,0,1,0-2.29,4.56,4.56,0,0,1,1-2.5l8-11.23a10,10,0,0,0,4.58,3,8.17,8.17,0,0,0,5.24-.13,8.78,8.78,0,0,0,3.25-2,8.34,8.34,0,0,0,2-3.18A11.05,11.05,0,0,0,867.93,447.71Zm-4.39-.47a7.43,7.43,0,0,1-4,3.05,8.51,8.51,0,0,1-3,.59,4.52,4.52,0,0,1-2.22-.61,5.47,5.47,0,0,1-1.66-1.63,12.23,12.23,0,0,1-1.23-2.51l-.46-1.26,12-4.38.47,1.25C864.25,444.08,864.3,445.93,863.54,447.24Z" style="fill: #201c42"/>
    </g>
  </g>
</svg>
