<svg xmlns="http://www.w3.org/2000/svg" viewBox="0 0 1073.3 1080">
  <g id="Layer_3" data-name="Layer 3">
    <g>
      <path d="M331.23,864.11a12.9,12.9,0,0,0-3.66-2,19.39,19.39,0,0,0-4.15-.93,13.5,13.5,0,0,0,5.29-2.88,7.15,7.15,0,0,0,2.29-5.55,10.13,10.13,0,0,0-.63-3.55,7.51,7.51,0,0,0-2.13-3,10.63,10.63,0,0,0-4-2.06,22.5,22.5,0,0,0-6.26-.74H309.9c-.93,0-2.14,0-3.6-.09s-2.79-.12-3.95-.2h-.14l0,.13a1.67,1.67,0,0,0-.07.42,1,1,0,0,0-.06.31v.26a2.58,2.58,0,0,0,.13.85.93.93,0,0,0,.72.55,8.44,8.44,0,0,1,2.93.83,1.67,1.67,0,0,1,.68,1.52v29.37a1.67,1.67,0,0,1-.77,1.56,8.07,8.07,0,0,1-2.84.79,1.11,1.11,0,0,0-.59.32,1.37,1.37,0,0,0-.26,1v.26a1.28,1.28,0,0,0,.06.35l.09.56h.15l1.35,0c.47,0,.95,0,1.42-.09.77-.08,1.6-.13,2.48-.15l2.37,0H320.1a23.54,23.54,0,0,0,5.91-.7,13.34,13.34,0,0,0,4.54-2.12,9.68,9.68,0,0,0,2.92-3.49,10.59,10.59,0,0,0,1-4.82,8.12,8.12,0,0,0-.87-3.72A9,9,0,0,0,331.23,864.11Zm-17-17.42H315a11.52,11.52,0,0,1,3.58.49,6.3,6.3,0,0,1,2.4,1.34,5.2,5.2,0,0,1,1.33,2,7.36,7.36,0,0,1,.43,2.49,9.28,9.28,0,0,1-.38,2.65,5.69,5.69,0,0,1-1.25,2.25,5.84,5.84,0,0,1-2.36,1.56,10.44,10.44,0,0,1-3.75.58h-.77ZM324.15,877c-1.3,1.12-3.29,1.68-5.93,1.68a9.85,9.85,0,0,1-2.85-.37,1.47,1.47,0,0,1-1.14-1.56V863.34h3a10.91,10.91,0,0,1,3.41.52,8.25,8.25,0,0,1,2.82,1.52,7.16,7.16,0,0,1,1.91,2.55,8.5,8.5,0,0,1,.72,3.62C326.08,874.07,325.43,875.9,324.15,877Z" style="fill: #201c42"/>
      <path d="M378.15,843.1l-.15,0c-1,.12-2,.19-3,.23s-1.94.06-2.83.06-2,0-3.25-.09-2.25-.12-3.07-.2h-.15l0,.14a7.11,7.11,0,0,0-.18,1.1c0,.95.49,1.22.9,1.28a9.44,9.44,0,0,1,2.18.6.91.91,0,0,1,.55.87,3.82,3.82,0,0,1-.62,1.79l-6.59,12.38L355.19,848a2.66,2.66,0,0,1-.39-1.15.78.78,0,0,1,.5-.7,6.42,6.42,0,0,1,2.05-.48c.39-.06.85-.34.85-1.28V844a4.22,4.22,0,0,0-.12-.78l0-.14h-.15l-1.67.12c-.67,0-1.41.06-2.19.08l-2.32.06-2,0c-1.58,0-3.07,0-4.42-.09s-2.45-.12-3.3-.2h-.16l-.08.54a1.31,1.31,0,0,0-.06.38v.26c0,1.05.46,1.31.85,1.34a8.82,8.82,0,0,1,2.44.69,3.49,3.49,0,0,1,1.53,1.63l9.3,17.72v11.5a2.55,2.55,0,0,1-.16,1,1.23,1.23,0,0,1-.57.58,5,5,0,0,1-1.25.46c-.54.13-1.23.28-2,.44a1,1,0,0,0-.59.31,1.36,1.36,0,0,0-.25,1v.26a1,1,0,0,0,.06.35l.07.56h.16l1.5,0,1.5-.09c.84-.08,1.73-.13,2.66-.14s1.73,0,2.43,0,1.49,0,2.49,0,2,.06,2.89.14l1.65.09c.55,0,1.15,0,1.76,0h.15l.08-.59a1.2,1.2,0,0,1,0-.28,1.69,1.69,0,0,0,0-.3,1.33,1.33,0,0,0-.26-1,1.1,1.1,0,0,0-.6-.32,18.24,18.24,0,0,1-2.05-.37,4.3,4.3,0,0,1-1.22-.48,1.39,1.39,0,0,1-.57-.62,2.53,2.53,0,0,1-.17-1V865.56l9.66-17.78a3.73,3.73,0,0,1,1.34-1.41,8.8,8.8,0,0,1,2.86-.74c.39,0,.86-.28.86-1.28V844a2.56,2.56,0,0,0-.13-.73Z" style="fill: #201c42"/>
      <path d="M444.52,847.05a1,1,0,0,1,.41-.57A3,3,0,0,1,446,846a15.38,15.38,0,0,1,2-.38c.32-.1.71-.38.71-1.17q0-.18,0-.54c0-.24-.06-.46-.09-.66l0-.15h-.15c-1.25.08-2.59.14-4,.2s-2.66.09-3.74.09-2.41,0-3.83-.09-2.77-.12-4-.2h-.12l-.05.12a1.78,1.78,0,0,0-.13.7v.53c0,.79.39,1.07.73,1.17a16.07,16.07,0,0,1,2,.38,3.06,3.06,0,0,1,1,.46,1.4,1.4,0,0,1,.42.6,3.27,3.27,0,0,1,.1.91V860.3H421.22V848a4.73,4.73,0,0,1,.08-.93,1.1,1.1,0,0,1,.41-.57,3.11,3.11,0,0,1,1.06-.47,15.17,15.17,0,0,1,2-.38c.33-.1.71-.38.71-1.17q0-.18,0-.54a5.86,5.86,0,0,0-.09-.66l0-.15h-.15c-1.24.08-2.6.14-4,.2s-2.72.09-3.81.09-2.34,0-3.74-.09-2.74-.12-4-.2h-.13l0,.12a1.78,1.78,0,0,0-.13.7v.53c0,.79.39,1.07.73,1.17a15.47,15.47,0,0,1,1.94.38,3.12,3.12,0,0,1,1,.46,1.38,1.38,0,0,1,.41.6,3.22,3.22,0,0,1,.11.91v29.37a3.3,3.3,0,0,1-.11.92,1.3,1.3,0,0,1-.41.59,3,3,0,0,1-1,.47,15.52,15.52,0,0,1-1.93.37c-.34,0-.74.27-.74,1.17v.53a1.47,1.47,0,0,0,.13.66l.05.1h.12c1.22-.08,2.52-.15,4-.21s2.66-.09,3.74-.09,2.38,0,3.81.09,2.82.13,4,.21h.15l0-.14a4.15,4.15,0,0,0,.09-.62q0-.36,0-.54c0-.84-.39-1.1-.74-1.17a15.16,15.16,0,0,1-1.93-.37,3.32,3.32,0,0,1-1.06-.47,1.08,1.08,0,0,1-.41-.58,4.73,4.73,0,0,1-.08-.93v-13.6H436.7v13.6a3.35,3.35,0,0,1-.1.92,1.25,1.25,0,0,1-.42.59,3,3,0,0,1-1,.47,15.9,15.9,0,0,1-1.93.37c-.34,0-.75.27-.75,1.17v.53a1.46,1.46,0,0,0,.14.66l.05.1h.11c1.22-.08,2.54-.15,4-.21s2.7-.09,3.83-.09,2.35,0,3.74.09,2.77.13,4,.21h.14l0-.14a6.07,6.07,0,0,0,.09-.62q0-.36,0-.54c0-.84-.4-1.1-.74-1.17a15,15,0,0,1-1.94-.37,3.25,3.25,0,0,1-1.05-.47,1,1,0,0,1-.41-.58,4.07,4.07,0,0,1-.08-.93V848A4.07,4.07,0,0,1,444.52,847.05Z" style="fill: #201c42"/>
      <path d="M491.63,871.84a1,1,0,0,0-1,.51c-.47.93-.94,1.78-1.4,2.54a9,9,0,0,1-1.61,2,6.71,6.71,0,0,1-2.09,1.29,8.13,8.13,0,0,1-2.9.46H480.2a22.08,22.08,0,0,1-5.11-.41c-.95-.25-1.4-.73-1.4-1.47v-13h8.09a1.35,1.35,0,0,1,1.29.7,10.12,10.12,0,0,1,.76,2.95c0,.45.29,1,1.3,1l.56,0a1.25,1.25,0,0,0,.64-.18l.09-.06V868c-.12-1.22-.2-2.31-.23-3.25s-.06-1.78-.06-2.49,0-1.82.08-3,.13-2.25.21-3.13V856l-.13,0a2.29,2.29,0,0,0-.6-.1l-.56,0a1.92,1.92,0,0,0-.85.17.85.85,0,0,0-.44.74,12.25,12.25,0,0,1-.69,2.91,1.35,1.35,0,0,1-1.37.81h-8.09V846.69h7.62A11,11,0,0,1,484,847a5.07,5.07,0,0,1,1.94.93,6.94,6.94,0,0,1,1.48,1.71,23.7,23.7,0,0,1,1.37,2.61,1.16,1.16,0,0,0,1.09.61,2.51,2.51,0,0,0,.76-.12l.65-.24.16-.06-.06-.16c-.31-.89-.54-1.66-.7-2.27s-.29-1.26-.4-1.93a18.89,18.89,0,0,1-.41-2.58,7.14,7.14,0,0,0-.32-1.8,1.16,1.16,0,0,0-1.09-.62c-.47,0-1.33.06-2.62.18s-2.78.17-4.53.17h-12c-.93,0-2.05,0-3.33-.06s-2.76-.11-4.45-.23h-.12l-.05.12a1.57,1.57,0,0,0-.13.62v.56c0,.66.24,1.08.73,1.22.8.16,1.48.3,2,.44a5.74,5.74,0,0,1,1.25.45,1.33,1.33,0,0,1,.6.57,2.26,2.26,0,0,1,.15.89v29.37a1.51,1.51,0,0,1-.86,1.49,13.45,13.45,0,0,1-3.14.86c-.34,0-.74.26-.74,1.11v.56a1.55,1.55,0,0,0,.13.69l.06.1h.11c1.15-.08,2.44-.15,3.95-.21s2.76-.09,3.89-.09h13.31c.52,0,1.12,0,1.81.06l2.08.09c.69,0,1.33,0,1.9.09s1.05.06,1.36.06a1.1,1.1,0,0,0,1.1-.59c0-.12.11-.36.22-.71s.19-.77.29-1.21.2-.92.29-1.41L492,877a10,10,0,0,0,.35-1.26,8.52,8.52,0,0,1,.47-1.4c.08-.27.16-.53.26-.81s.19-.58.27-.9l0-.14-.95-.4A2,2,0,0,0,491.63,871.84Z" style="fill: #201c42"/>
      <path d="M542.13,879.59A8.48,8.48,0,0,1,540,879a2.24,2.24,0,0,1-1.25-1.22l-14.13-34.83,0-.08-.09,0-.66-.09-.6,0a1.68,1.68,0,0,0-1.57,1.1l-14.12,33.76a2.75,2.75,0,0,1-1.19,1.33,10.63,10.63,0,0,1-2.54.74c-.42,0-.92.3-.92,1.35v.46a1.48,1.48,0,0,0,.13.61l.06.11h.12c1.06-.12,2-.2,2.86-.24s1.66-.06,2.46-.06c1.12,0,2.28,0,3.44.09s2.32.13,3.34.21h.15l0-.15a6.4,6.4,0,0,0,.12-1c0-1-.53-1.22-1-1.29a7.25,7.25,0,0,1-2.43-.67,1.06,1.06,0,0,1-.54-.91,4.93,4.93,0,0,1,.06-.5A1.87,1.87,0,0,1,512,877l3-8H527l3.07,8.27a2.77,2.77,0,0,1,.17.83,1.06,1.06,0,0,1-.64,1,9.23,9.23,0,0,1-2.22.66,1,1,0,0,0-.53.38,1.36,1.36,0,0,0-.25.9v.46a1.22,1.22,0,0,0,.14.61l.05.1h.12q.82-.06,2-.09l2.43-.09,2.41-.09,2,0c1.05,0,2.2,0,3.39.09l3.7.21H543l0-.15a5.66,5.66,0,0,0,.12-1.09A1.21,1.21,0,0,0,542.13,879.59Zm-25.92-13.9,4.85-12.53,4.73,12.53Z" style="fill: #201c42"/>
      <path d="M583.08,871.84a1,1,0,0,0-1,.59,21.36,21.36,0,0,1-1.3,2.87,8,8,0,0,1-1.47,1.92,4.48,4.48,0,0,1-1.83,1,8.9,8.9,0,0,1-2.51.32H572.7a23.05,23.05,0,0,1-5.17-.41c-1-.25-1.45-.73-1.45-1.47V848.1a1.73,1.73,0,0,1,.77-1.58,9,9,0,0,1,3.33-.89c.32-.1.71-.38.71-1.17q0-.18,0-.54c0-.24-.06-.46-.09-.66l0-.15h-.15l-2.08.12c-.75,0-1.52.06-2.28.08l-2.2.06-1.88,0c-1.08,0-2.34,0-3.74-.09s-2.74-.12-4-.2h-.13l0,.12a1.78,1.78,0,0,0-.13.7v.53c0,.79.38,1.07.73,1.17a15.47,15.47,0,0,1,1.94.38,3,3,0,0,1,1,.46,1.27,1.27,0,0,1,.42.6,3.22,3.22,0,0,1,.11.91v29.37a1.52,1.52,0,0,1-.87,1.49,13.45,13.45,0,0,1-3.14.86c-.34,0-.74.26-.74,1.11v.56a1.41,1.41,0,0,0,.14.69l0,.1h.12c1.15-.08,2.44-.15,4-.21s2.76-.09,3.89-.09h13.31c.51,0,1.11,0,1.78.06l2,.09c.66,0,1.28,0,1.84.09s1,.06,1.33.06a1.56,1.56,0,0,0,.75-.2c.28-.15.43-.48.48-1,.19-1.41.42-2.85.67-4.3s.54-2.82.85-4.07l0-.14-.95-.4A1.83,1.83,0,0,0,583.08,871.84Z" style="fill: #201c42"/>
      <path d="M627.13,849.79c-.17-.72-.32-1.43-.44-2.14a19.31,19.31,0,0,1-.38-2.38,6.29,6.29,0,0,0-.28-1.59,1.16,1.16,0,0,0-1.09-.62c-.48,0-1.33.06-2.62.18s-2.78.17-4.53.17H599.73c-1.78,0-3.32-.06-4.58-.17s-2.13-.18-2.57-.18a1.08,1.08,0,0,0-1.1.64,7.23,7.23,0,0,0-.3,1.57c-.08.69-.2,1.5-.35,2.39-.12.7-.28,1.41-.47,2.12s-.43,1.55-.7,2.49l0,.14.13.06a3.87,3.87,0,0,0,.73.28c1,.3,1.63.15,1.91-.47a24.5,24.5,0,0,1,1.36-2.6,6.62,6.62,0,0,1,1.49-1.71,5.38,5.38,0,0,1,1.93-1,9.91,9.91,0,0,1,2.74-.32h5v30.66a2,2,0,0,1-.5,1.55,5.5,5.5,0,0,1-2.64.75,1.2,1.2,0,0,0-.91.46,1.58,1.58,0,0,0-.17.76q0,.18,0,.54a1.72,1.72,0,0,0,.17.65l0,.1H601c1.22-.08,2.51-.15,4-.21s2.64-.09,3.77-.09,2.36,0,3.77.09,2.8.13,4,.21h.14l0-.14c0-.17.07-.38.09-.62s0-.42,0-.54a1.13,1.13,0,0,0-1-1.17,11.82,11.82,0,0,1-1.79-.37,2.83,2.83,0,0,1-.94-.47,1.08,1.08,0,0,1-.38-.58,4,4,0,0,1-.08-.93V846.69h5a9.6,9.6,0,0,1,2.68.32,5.43,5.43,0,0,1,1.94,1,6.6,6.6,0,0,1,1.48,1.71,23.7,23.7,0,0,1,1.37,2.61c.35.61,1,.76,1.94.46l.74-.27.15-.06,0-.16C627.55,851.34,627.31,850.51,627.13,849.79Z" style="fill: #201c42"/>
      <path d="M673.91,847.05a1,1,0,0,1,.41-.57,3.24,3.24,0,0,1,1-.47,15.74,15.74,0,0,1,2-.38c.32-.1.71-.38.71-1.17q0-.18,0-.54a5.86,5.86,0,0,0-.09-.66l0-.15h-.15c-1.25.08-2.59.14-4,.2s-2.67.09-3.75.09-2.41,0-3.83-.09-2.77-.12-4-.2h-.13l0,.12a1.78,1.78,0,0,0-.14.7v.53c0,.79.39,1.07.74,1.17a15.47,15.47,0,0,1,1.94.38,2.88,2.88,0,0,1,1,.46,1.32,1.32,0,0,1,.42.6,3.22,3.22,0,0,1,.11.91V860.3H650.61V848a4,4,0,0,1,.09-.93,1,1,0,0,1,.4-.57,3.2,3.2,0,0,1,1.06-.47,15,15,0,0,1,2-.38c.32-.1.7-.38.7-1.17,0-.12,0-.3,0-.54a5.76,5.76,0,0,0-.1-.66l0-.15h-.16c-1.24.08-2.6.14-4,.2s-2.72.09-3.8.09-2.34,0-3.75-.09-2.74-.12-4-.2h-.12l-.05.12a2,2,0,0,0-.13.7v.53c0,.79.38,1.07.74,1.17a15.85,15.85,0,0,1,1.94.38,3.06,3.06,0,0,1,1,.46,1.3,1.3,0,0,1,.41.6,3.22,3.22,0,0,1,.11.91v29.37a3.3,3.3,0,0,1-.11.92,1.22,1.22,0,0,1-.41.59,3,3,0,0,1-1,.47,15.74,15.74,0,0,1-1.94.37c-.33,0-.74.27-.74,1.17v.53a1.62,1.62,0,0,0,.13.66l.06.1H639c1.22-.08,2.52-.15,4-.21s2.66-.09,3.75-.09,2.37,0,3.8.09,2.83.13,4,.21h.15l0-.14a4,4,0,0,0,.1-.62c0-.24,0-.42,0-.54,0-.84-.39-1.1-.73-1.17a15.37,15.37,0,0,1-1.94-.37,3.42,3.42,0,0,1-1.06-.47,1,1,0,0,1-.4-.58,4,4,0,0,1-.09-.93v-13.6H666.1v13.6a3.3,3.3,0,0,1-.11.92,1.25,1.25,0,0,1-.42.59,2.86,2.86,0,0,1-1,.47,15.16,15.16,0,0,1-1.93.37c-.34,0-.75.27-.75,1.17v.53a1.46,1.46,0,0,0,.14.66l0,.1h.12c1.22-.08,2.53-.15,4-.21s2.7-.09,3.83-.09,2.35,0,3.75.09,2.76.13,4,.21h.14l0-.14a4.15,4.15,0,0,0,.09-.62q0-.36,0-.54c0-.84-.4-1.1-.73-1.17a15.58,15.58,0,0,1-2-.37,3.46,3.46,0,0,1-1-.47,1,1,0,0,1-.41-.58,4.73,4.73,0,0,1-.08-.93V848A4.73,4.73,0,0,1,673.91,847.05Z" style="fill: #201c42"/>
      <path d="M719.92,871.17l-.36,0h0a6.39,6.39,0,0,0-1.16-.17,1.44,1.44,0,0,0-1.37.93,5,5,0,0,1-1.94,2.65,6.39,6.39,0,0,1-2.77.52H700.4c3.6-2.68,6.61-5.07,9-7.09A50.3,50.3,0,0,0,715,862.4a17.07,17.07,0,0,0,2.92-4.7,12.81,12.81,0,0,0,.83-4.57,10.36,10.36,0,0,0-2.93-7.67c-2-1.92-5-2.89-9-2.89a15,15,0,0,0-4.66.74,22.71,22.71,0,0,0-4.36,2,25.62,25.62,0,0,0-3.95,2.89,27,27,0,0,0-3.33,3.53l0,0,0,0a2.86,2.86,0,0,0,1,1,2.63,2.63,0,0,0,1.14.33,2.06,2.06,0,0,0,1.1-.5,28.57,28.57,0,0,1,4.54-2.91,8.48,8.48,0,0,1,3.63-.78,4.9,4.9,0,0,1,4,1.75,7.91,7.91,0,0,1,1.43,5.1,13.28,13.28,0,0,1-.78,4.37,19.82,19.82,0,0,1-2.74,5,61.54,61.54,0,0,1-5.21,6.11c-2.16,2.27-4.9,4.93-8.16,7.92h0v2.62h17.62c1.75,0,3.37.06,4.83.17s2.72.16,3.71.16a1.51,1.51,0,0,0,.84-.17,1.41,1.41,0,0,0,.43-.86c.28-1.58.64-3.26,1.07-5s.91-3.33,1.4-4.8l0-.07h-.07A1.89,1.89,0,0,1,719.92,871.17Z" style="fill: #201c42"/>
      <path d="M769.72,854.66a19,19,0,0,0-10.59-10.48,21.05,21.05,0,0,0-7.92-1.47,19.51,19.51,0,0,0-7.77,1.57,20.12,20.12,0,0,0-10.65,10.61,19.34,19.34,0,0,0-1.56,7.75,20.5,20.5,0,0,0,1.54,8A19.67,19.67,0,0,0,737,877a18.78,18.78,0,0,0,6.34,4.14,21,21,0,0,0,7.91,1.48A19.74,19.74,0,0,0,759,881a20.49,20.49,0,0,0,6.39-4.26,20,20,0,0,0,4.28-6.32,19.59,19.59,0,0,0,1.57-7.78A20.52,20.52,0,0,0,769.72,854.66ZM762,870.85a14.13,14.13,0,0,1-2.2,4.35,10.75,10.75,0,0,1-3.37,2.91,9.12,9.12,0,0,1-4.38,1.06,9.56,9.56,0,0,1-5.24-1.47,12.21,12.21,0,0,1-3.9-4.1,21.63,21.63,0,0,1-2.44-6.31,35.89,35.89,0,0,1-.85-8,16.09,16.09,0,0,1,.88-5.51,13.26,13.26,0,0,1,2.3-4.13,10.06,10.06,0,0,1,3.35-2.6,9.18,9.18,0,0,1,3.91-.89,10.52,10.52,0,0,1,5.57,1.47,12.27,12.27,0,0,1,4,4,20,20,0,0,1,2.38,6.13,35.92,35.92,0,0,1,.79,7.7A17.77,17.77,0,0,1,762,870.85Z" style="fill: #201c42"/>
    </g>
  </g>
</svg>
