<svg xmlns="http://www.w3.org/2000/svg" viewBox="0 0 60 60"><defs><style>.cls-1{fill:#201c42;}.cls-2{fill:#e1a556;}</style></defs><g id="Layer_2" data-name="Layer 2"><rect class="cls-1" x="18.47" y="14.58" width="3.61" height="3.57"/><path class="cls-1" d="M33.21,41.27a13.3,13.3,0,0,1,2.56-3.76v-.09h.1A11.74,11.74,0,0,1,45.38,34V9.32H13.24V54.05H35.77a11.52,11.52,0,0,1-3.42-8.27A12,12,0,0,1,33.21,41.27ZM26.27,14.68H33.4a.56.56,0,1,1,0,1.12H26.27a.56.56,0,1,1,0-1.12Zm0,2.91H40a.61.61,0,0,1,.57.56.62.62,0,0,1-.57.57H26.27a.61.61,0,0,1-.57-.57A.6.6,0,0,1,26.27,17.59Zm0,5.26H33.4a.57.57,0,1,1,0,1.13H26.27a.57.57,0,1,1,0-1.13Zm0,2.92H40a.56.56,0,1,1,0,1.12H26.27a.54.54,0,0,1-.57-.56A.6.6,0,0,1,26.27,25.77Zm0,4.69h6a.62.62,0,0,1,.57.57.61.61,0,0,1-.57.56h-6A.54.54,0,0,1,25.7,31,.61.61,0,0,1,26.27,30.46Zm-3.81,1.6L19.52,35a.49.49,0,0,1-.38.19.66.66,0,0,1-.38-.19l-1.24-1.22a.69.69,0,0,1,0-.84.72.72,0,0,1,.86,0l.85.84,2.47-2.53c.29-.19.67-.19.76,0A.69.69,0,0,1,22.46,32.06Zm0-7.61-2.94,2.91a.49.49,0,0,1-.38.19.66.66,0,0,1-.38-.19l-1.24-1.22a.69.69,0,0,1,0-.84.72.72,0,0,1,.86,0l.76.84L21.7,23.6c.29-.18.67-.18.76,0A.7.7,0,0,1,22.46,24.45Zm.86-5.73a.6.6,0,0,1-.57.56H18a.6.6,0,0,1-.57-.56V14a.61.61,0,0,1,.57-.57h4.75a.61.61,0,0,1,.57.57ZM25.7,33.94a.6.6,0,0,1,.57-.56h9.5a.6.6,0,0,1,.57.56c0,.38-.19.66-.57.57h-9.5A.61.61,0,0,1,25.7,33.94Z"/><path class="cls-1" d="M41.76,5.18H9.06v45.3H12V8.75a.62.62,0,0,1,.57-.65H41.76Z"/><path class="cls-1" d="M52.7,45.88a.61.61,0,0,1,.57-.57h1.52a10.09,10.09,0,0,0-.57-2.91l-.76.28a.52.52,0,0,1-.76-.28.52.52,0,0,1,.28-.75l.76-.28a10,10,0,0,0-1.61-2.45l-1.05,1a.75.75,0,0,1-.86,0,.7.7,0,0,1,0-.85l1.05-1a11.39,11.39,0,0,0-2.47-1.7l-.29.76a.6.6,0,0,1-.76.28.59.59,0,0,1-.28-.75l.28-.76a14.71,14.71,0,0,0-2.94-.56v1.5a.61.61,0,0,1-.57.57.61.61,0,0,1-.57-.57v-1.5a10.29,10.29,0,0,0-3,.56l.28.76a.52.52,0,0,1-.28.75.52.52,0,0,1-.76-.28l-.29-.76A10.22,10.22,0,0,0,37.2,38l1,1a.69.69,0,0,1,0,.84.72.72,0,0,1-.86,0l-1-1a11.59,11.59,0,0,0-1.71,2.44l.76.28a.6.6,0,0,1,.29.76.61.61,0,0,1-.76.28l-.76-.28a13.76,13.76,0,0,0-.57,2.91h1.52a.61.61,0,0,1,.57.56.62.62,0,0,1-.57.57H33.59a9.76,9.76,0,0,0,.57,2.91l.76-.28a.53.53,0,0,1,.76.28.51.51,0,0,1-.29.75l-.76.28a9.73,9.73,0,0,0,1.62,2.45l1-1a.73.73,0,0,1,.85,0,.7.7,0,0,1,0,.85l-1,1a11.35,11.35,0,0,0,2.47,1.69l.28-.75a.61.61,0,0,1,.76-.28.59.59,0,0,1,.29.75l-.29.75a14.68,14.68,0,0,0,3,.57v-1.6a.61.61,0,0,1,.57-.56.6.6,0,0,1,.57.56v1.5a10.29,10.29,0,0,0,2.95-.56l-.29-.75a.51.51,0,0,1,.29-.75.53.53,0,0,1,.76.28l.28.75a10.27,10.27,0,0,0,2.48-1.6l-1-1a.7.7,0,0,1,0-.85.75.75,0,0,1,.86,0l1,1a11,11,0,0,0,1.71-2.45L53,50a.58.58,0,0,1-.28-.75.59.59,0,0,1,.76-.28l.76.28a15.15,15.15,0,0,0,.57-2.91H53.27A.62.62,0,0,1,52.7,45.88Zm-4.76-3.29L46,44.47a2.13,2.13,0,0,1-.38,2.63,2.2,2.2,0,0,1-2.66.37l-.67.66a.7.7,0,0,1-.85,0,.69.69,0,0,1,0-.84l.66-.66a1.88,1.88,0,0,1-.28-1,2.14,2.14,0,0,1,2.19-2.16,1.89,1.89,0,0,1,1,.29L47,41.84a1.15,1.15,0,0,1,.95-.1A.7.7,0,0,1,47.94,42.59Z"/><path class="cls-2" d="M44,44.56a1,1,0,1,0,0,2.07,1.11,1.11,0,0,0,.76-.28,1,1,0,0,0,0-1.51A1.11,1.11,0,0,0,44,44.56Z"/><path class="cls-2" d="M47,41.84l-1.9,1.88a1.89,1.89,0,0,0-1-.29,2.14,2.14,0,0,0-2.19,2.16,1.88,1.88,0,0,0,.28,1l-.66.66a.69.69,0,0,0,0,.84.7.7,0,0,0,.85,0l.67-.66a2.2,2.2,0,0,0,2.66-.37A2.13,2.13,0,0,0,46,44.47l1.9-1.88a.7.7,0,0,0,0-.85A1.15,1.15,0,0,0,47,41.84Zm-2.28,4.51a1.11,1.11,0,0,1-.76.28,1,1,0,1,1,0-2.07,1.11,1.11,0,0,1,.76.28A1,1,0,0,1,44.71,46.35Z"/><path class="cls-2" d="M22.75,13.45H18a.61.61,0,0,0-.57.57v4.7a.6.6,0,0,0,.57.56h4.75a.6.6,0,0,0,.57-.56V14A.61.61,0,0,0,22.75,13.45Zm-.67,4.7H18.47V14.58h3.61Z"/><path class="cls-2" d="M26.27,18.72H40a.62.62,0,0,0,.57-.57.61.61,0,0,0-.57-.56H26.27a.6.6,0,0,0-.57.56A.61.61,0,0,0,26.27,18.72Z"/><path class="cls-2" d="M26.27,15.8H33.4a.56.56,0,1,0,0-1.12H26.27a.56.56,0,1,0,0,1.12Z"/><path class="cls-2" d="M26.27,26.89H40a.56.56,0,1,0,0-1.12H26.27a.6.6,0,0,0-.57.56A.54.54,0,0,0,26.27,26.89Z"/><path class="cls-2" d="M26.27,24H33.4a.57.57,0,1,0,0-1.13H26.27a.57.57,0,1,0,0,1.13Z"/><path class="cls-2" d="M21.7,23.6l-2.56,2.54-.76-.84a.72.72,0,0,0-.86,0,.69.69,0,0,0,0,.84l1.24,1.22a.66.66,0,0,0,.38.19.49.49,0,0,0,.38-.19l2.94-2.91a.7.7,0,0,0,0-.85C22.37,23.42,22,23.42,21.7,23.6Z"/><path class="cls-2" d="M36.34,33.94a.6.6,0,0,0-.57-.56h-9.5a.6.6,0,0,0-.57.56.61.61,0,0,0,.57.57h9.5C36.15,34.6,36.34,34.32,36.34,33.94Z"/><path class="cls-2" d="M26.27,31.59h6a.61.61,0,0,0,.57-.56.62.62,0,0,0-.57-.57h-6a.61.61,0,0,0-.57.57A.54.54,0,0,0,26.27,31.59Z"/><path class="cls-2" d="M21.7,31.22l-2.47,2.53-.85-.84a.72.72,0,0,0-.86,0,.69.69,0,0,0,0,.84L18.76,35a.66.66,0,0,0,.38.19.49.49,0,0,0,.38-.19l2.94-2.91a.69.69,0,0,0,0-.84C22.37,31,22,31,21.7,31.22Z"/><path class="cls-2" d="M52.51,37.51a12.13,12.13,0,0,0-6.09-3.29V8.75a.6.6,0,0,0-.57-.56h-3V4.62a.6.6,0,0,0-.57-.56H8.49a.6.6,0,0,0-.57.56V51.05a.6.6,0,0,0,.57.56H12.1v2.91a.62.62,0,0,0,.57.57H37a12,12,0,0,0,15.5-1A11.55,11.55,0,0,0,52.51,37.51ZM12.58,8.1a.62.62,0,0,0-.57.65V50.48H9.06V5.18h32.7V8.1Zm.66,45.95V9.32H45.38V34a11.74,11.74,0,0,0-9.51,3.38h-.1v.09a13.3,13.3,0,0,0-2.56,3.76,12,12,0,0,0-.86,4.51,11.52,11.52,0,0,0,3.42,8.27Zm41-4.79L53.46,49a.59.59,0,0,0-.76.28A.58.58,0,0,0,53,50l.76.28A11,11,0,0,1,52,52.74l-1-1a.75.75,0,0,0-.86,0,.7.7,0,0,0,0,.85l1,1a10.27,10.27,0,0,1-2.48,1.6l-.28-.75a.53.53,0,0,0-.76-.28.51.51,0,0,0-.29.75l.29.75a10.29,10.29,0,0,1-2.95.56v-1.5a.6.6,0,0,0-.57-.56.61.61,0,0,0-.57.56v1.6a14.68,14.68,0,0,1-3-.57l.29-.75a.59.59,0,0,0-.29-.75.61.61,0,0,0-.76.28l-.28.75a11.35,11.35,0,0,1-2.47-1.69l1-1a.7.7,0,0,0,0-.85.73.73,0,0,0-.85,0l-1,1a9.73,9.73,0,0,1-1.62-2.45l.76-.28a.51.51,0,0,0,.29-.75.53.53,0,0,0-.76-.28l-.76.28a9.76,9.76,0,0,1-.57-2.91h1.52a.62.62,0,0,0,.57-.57.61.61,0,0,0-.57-.56H33.59a13.76,13.76,0,0,1,.57-2.91l.76.28a.61.61,0,0,0,.76-.28.6.6,0,0,0-.29-.76l-.76-.28a11.59,11.59,0,0,1,1.71-2.44l1,1a.72.72,0,0,0,.86,0,.69.69,0,0,0,0-.84l-1-1a10.22,10.22,0,0,1,2.47-1.6l.29.76a.52.52,0,0,0,.76.28.52.52,0,0,0,.28-.75l-.28-.76a10.29,10.29,0,0,1,3-.56v1.5a.61.61,0,0,0,.57.57.61.61,0,0,0,.57-.57v-1.5a14.71,14.71,0,0,1,2.94.56l-.28.76a.59.59,0,0,0,.28.75.6.6,0,0,0,.76-.28l.29-.76a11.39,11.39,0,0,1,2.47,1.7l-1.05,1a.7.7,0,0,0,0,.85.75.75,0,0,0,.86,0l1.05-1a10,10,0,0,1,1.61,2.45l-.76.28a.52.52,0,0,0-.28.75.52.52,0,0,0,.76.28l.76-.28a10.09,10.09,0,0,1,.57,2.91H53.27a.61.61,0,0,0-.57.57.62.62,0,0,0,.57.47h1.52A15.15,15.15,0,0,1,54.22,49.26Z"/></g></svg>