<svg xmlns="http://www.w3.org/2000/svg" viewBox="0 0 50 56"><defs><style>.cls-1{fill:#201c42;}.cls-2{fill:#e1a556;}</style></defs><g id="Layer_2" data-name="Layer 2"><rect class="cls-1" x="13.16" y="13.6" width="3.16" height="3.13"/><path class="cls-1" d="M26.05,37a11.43,11.43,0,0,1,2.25-3.29v-.08h.08a10.3,10.3,0,0,1,8.32-3V9H8.58V48.15H28.3a10.08,10.08,0,0,1-3-7.24A10.4,10.4,0,0,1,26.05,37ZM20,13.68h6.24a.5.5,0,1,1,0,1H20a.5.5,0,1,1,0-1Zm0,2.55H32a.5.5,0,1,1,0,1H20a.5.5,0,1,1,0-1Zm0,4.61h6.24a.49.49,0,1,1,0,1H20a.49.49,0,1,1,0-1Zm0,2.55H32a.49.49,0,1,1,0,1H20a.47.47,0,0,1-.5-.49A.53.53,0,0,1,20,23.39Zm0,4.11h5.24a.5.5,0,1,1,0,1H20a.48.48,0,0,1-.5-.5A.54.54,0,0,1,20,27.5Zm-3.33,1.4-2.58,2.55a.44.44,0,0,1-.33.16.66.66,0,0,1-.34-.16l-1.08-1.07a.63.63,0,0,1,0-.74.61.61,0,0,1,.75,0l.75.74L16,28.16c.25-.17.59-.17.67,0A.6.6,0,0,1,16.65,28.9Zm0-6.66-2.58,2.55a.44.44,0,0,1-.33.16.66.66,0,0,1-.34-.16l-1.08-1.07a.63.63,0,0,1,0-.74.61.61,0,0,1,.75,0l.67.74L16,21.5c.25-.17.59-.17.67,0A.6.6,0,0,1,16.65,22.24Zm.75-5a.53.53,0,0,1-.5.49H12.74a.53.53,0,0,1-.5-.49V13.11a.54.54,0,0,1,.5-.5H16.9a.54.54,0,0,1,.5.5Zm2.08,13.32a.54.54,0,0,1,.5-.49H28.3a.54.54,0,0,1,.5.49c0,.33-.17.58-.5.5H20A.54.54,0,0,1,19.48,30.54Z"/><path class="cls-1" d="M33.54,5.37H4.92V45H7.5V8.5A.56.56,0,0,1,8,7.92H33.54Z"/><path class="cls-1" d="M43.11,41a.53.53,0,0,1,.5-.49h1.33a8.62,8.62,0,0,0-.5-2.55l-.67.24a.49.49,0,1,1-.41-.9L44,37a8.7,8.7,0,0,0-1.41-2.14l-.92.91a.63.63,0,0,1-.74,0,.6.6,0,0,1,0-.74l.91-.91a10.31,10.31,0,0,0-2.16-1.48l-.25.66a.53.53,0,0,1-.67.25.52.52,0,0,1-.25-.66l.25-.66a12.54,12.54,0,0,0-2.58-.49v1.31a.5.5,0,0,1-1,0V31.78a8.94,8.94,0,0,0-2.58.49l.25.66a.45.45,0,0,1-.25.66.46.46,0,0,1-.66-.25l-.25-.66a8.58,8.58,0,0,0-2.16,1.4l.91.91a.6.6,0,0,1,0,.74.64.64,0,0,1-.75,0l-.91-.91A10.26,10.26,0,0,0,27.3,37l.67.25a.51.51,0,0,1,.25.65.53.53,0,0,1-.67.25l-.67-.25a13.23,13.23,0,0,0-.5,2.55h1.34a.5.5,0,1,1,0,1H26.38a8.62,8.62,0,0,0,.5,2.55l.67-.25a.47.47,0,0,1,.67.25.46.46,0,0,1-.25.66l-.67.25A8.47,8.47,0,0,0,28.71,47l.92-.9a.61.61,0,0,1,.75,0,.63.63,0,0,1,0,.74l-.92.9a9.78,9.78,0,0,0,2.17,1.48l.25-.65a.5.5,0,1,1,.91.41l-.25.66a13.39,13.39,0,0,0,2.58.49v-1.4a.5.5,0,0,1,1,0V50a8.88,8.88,0,0,0,2.58-.5l-.25-.65a.5.5,0,0,1,.91-.42l.25.66a8.82,8.82,0,0,0,2.17-1.4l-.92-.9a.63.63,0,0,1,0-.74.61.61,0,0,1,.75,0l.92.9A9.56,9.56,0,0,0,44,44.86l-.66-.25a.5.5,0,1,1,.41-.91l.67.25a12.25,12.25,0,0,0,.5-2.55H43.61A.54.54,0,0,1,43.11,41ZM39,38.11l-1.67,1.65a1.85,1.85,0,0,1-.33,2.3,1.92,1.92,0,0,1-2.33.33L34,43a.61.61,0,0,1-.75,0,.6.6,0,0,1,0-.74l.58-.57a1.72,1.72,0,0,1-.25-.91,1.88,1.88,0,0,1,1.92-1.89,1.64,1.64,0,0,1,.91.25l1.67-1.65a1,1,0,0,1,.83-.08A.63.63,0,0,1,39,38.11Z"/><path class="cls-2" d="M35.45,39.84a.91.91,0,1,0,0,1.81,1,1,0,0,0,.67-.25.85.85,0,0,0,0-1.32A1,1,0,0,0,35.45,39.84Z"/><path class="cls-2" d="M38.12,37.45,36.45,39.1a1.64,1.64,0,0,0-.91-.25,1.88,1.88,0,0,0-1.92,1.89,1.72,1.72,0,0,0,.25.91l-.58.57a.6.6,0,0,0,0,.74A.61.61,0,0,0,34,43l.58-.57A1.92,1.92,0,0,0,37,42.06a1.85,1.85,0,0,0,.33-2.3L39,38.11a.63.63,0,0,0,0-.74A1,1,0,0,0,38.12,37.45Zm-2,3.95a1,1,0,0,1-.67.25.91.91,0,1,1,0-1.81,1,1,0,0,1,.67.24A.85.85,0,0,1,36.12,41.4Z"/><path class="cls-2" d="M16.9,12.61H12.74a.54.54,0,0,0-.5.5v4.11a.53.53,0,0,0,.5.49H16.9a.53.53,0,0,0,.5-.49V13.11A.54.54,0,0,0,16.9,12.61Zm-.58,4.12H13.16V13.6h3.16Z"/><path class="cls-2" d="M20,17.22H32a.5.5,0,1,0,0-1H20a.5.5,0,1,0,0,1Z"/><path class="cls-2" d="M20,14.67h6.24a.5.5,0,1,0,0-1H20a.5.5,0,1,0,0,1Z"/><path class="cls-2" d="M20,24.37H32a.49.49,0,1,0,0-1H20a.53.53,0,0,0-.5.49A.47.47,0,0,0,20,24.37Z"/><path class="cls-2" d="M20,21.82h6.24a.49.49,0,1,0,0-1H20a.49.49,0,1,0,0,1Z"/><path class="cls-2" d="M16,21.5l-2.24,2.22L13.07,23a.61.61,0,0,0-.75,0,.63.63,0,0,0,0,.74l1.08,1.07a.66.66,0,0,0,.34.16.44.44,0,0,0,.33-.16l2.58-2.55a.6.6,0,0,0,0-.74C16.57,21.33,16.23,21.33,16,21.5Z"/><path class="cls-2" d="M28.8,30.54a.54.54,0,0,0-.5-.49H20a.5.5,0,1,0,0,1H28.3C28.63,31.12,28.8,30.87,28.8,30.54Z"/><path class="cls-2" d="M20,28.49h5.24a.5.5,0,1,0,0-1H20a.54.54,0,0,0-.5.49A.48.48,0,0,0,20,28.49Z"/><path class="cls-2" d="M16,28.16l-2.16,2.22-.75-.74a.61.61,0,0,0-.75,0,.63.63,0,0,0,0,.74l1.08,1.07a.66.66,0,0,0,.34.16.44.44,0,0,0,.33-.16l2.58-2.55a.6.6,0,0,0,0-.74C16.57,28,16.23,28,16,28.16Z"/><path class="cls-2" d="M42.94,33.67a10.61,10.61,0,0,0-5.32-2.88V8.5a.53.53,0,0,0-.5-.49H34.54V4.88a.53.53,0,0,0-.5-.49H4.42a.53.53,0,0,0-.5.49V45.51a.54.54,0,0,0,.5.5H7.58v2.55a.54.54,0,0,0,.5.49h21.3a10.49,10.49,0,0,0,13.56-.9A10.09,10.09,0,0,0,42.94,33.67ZM8,7.92a.56.56,0,0,0-.5.58V45H4.92V5.37H33.54V7.92Zm.58,40.23V9H36.7V30.63a10.3,10.3,0,0,0-8.32,3H28.3v.08A11.43,11.43,0,0,0,26.05,37a10.4,10.4,0,0,0-.75,3.95,10.08,10.08,0,0,0,3,7.24ZM44.44,44l-.67-.25a.5.5,0,1,0-.41.91l.66.25A9.56,9.56,0,0,1,42.53,47l-.92-.9a.61.61,0,0,0-.75,0,.63.63,0,0,0,0,.74l.92.9a8.82,8.82,0,0,1-2.17,1.4l-.25-.66a.5.5,0,0,0-.91.42l.25.65a8.88,8.88,0,0,1-2.58.5V48.72a.5.5,0,0,0-1,0v1.4a13.39,13.39,0,0,1-2.58-.49l.25-.66a.5.5,0,1,0-.91-.41l-.25.65a9.78,9.78,0,0,1-2.17-1.48l.92-.9a.63.63,0,0,0,0-.74.61.61,0,0,0-.75,0l-.92.9a8.47,8.47,0,0,1-1.41-2.13l.67-.25a.46.46,0,0,0,.25-.66.47.47,0,0,0-.67-.25l-.67.25a8.62,8.62,0,0,1-.5-2.55h1.34a.5.5,0,1,0,0-1H26.38a13.23,13.23,0,0,1,.5-2.55l.67.25a.53.53,0,0,0,.67-.25.51.51,0,0,0-.25-.65L27.3,37a10.26,10.26,0,0,1,1.5-2.14l.91.91a.64.64,0,0,0,.75,0,.6.6,0,0,0,0-.74l-.91-.91a8.58,8.58,0,0,1,2.16-1.4l.25.66a.46.46,0,0,0,.66.25.45.45,0,0,0,.25-.66l-.25-.66a8.94,8.94,0,0,1,2.58-.49v1.31a.5.5,0,0,0,1,0V31.78a12.54,12.54,0,0,1,2.58.49l-.25.66a.52.52,0,0,0,.25.66.53.53,0,0,0,.67-.25l.25-.66a10.31,10.31,0,0,1,2.16,1.48l-.91.91a.6.6,0,0,0,0,.74.63.63,0,0,0,.74,0l.92-.91A8.7,8.7,0,0,1,44,37l-.66.25a.49.49,0,1,0,.41.9l.67-.24a8.62,8.62,0,0,1,.5,2.55H43.61a.53.53,0,0,0-.5.49.54.54,0,0,0,.5.41h1.33A12.25,12.25,0,0,1,44.44,44Z"/></g></svg>