<svg xmlns="http://www.w3.org/2000/svg" viewBox="0 0 60 60"><defs><style>.cls-1{fill:#e1a556;}.cls-2{fill:#201c42;}</style></defs><g id="Layer_2" data-name="Layer 2"><rect class="cls-1" x="11" y="4.67" width="34.38" height="46.14" rx="1.24"/><rect class="cls-2" x="12.35" y="6.48" width="31.68" height="42.52" rx="0.81"/><path class="cls-1" d="M22.67,15.32h16.8a.55.55,0,1,0,0-1.09H22.67a.55.55,0,1,0,0,1.09Z"/><path class="cls-1" d="M22.67,12.51H33.16a.54.54,0,1,0,0-1.08H22.67a.54.54,0,1,0,0,1.08Z"/><path class="cls-1" d="M18,10.8v.29a1.75,1.75,0,0,1,.5.12,1,1,0,0,1,.36.27,1.6,1.6,0,0,1,.19.29.74.74,0,0,1,.06.27.29.29,0,0,1-.1.23.3.3,0,0,1-.24.1.33.33,0,0,1-.34-.29.63.63,0,0,0-.43-.45v1.13c.22.06.4.12.53.17a1,1,0,0,1,.36.22,1,1,0,0,1,.26.36,1.13,1.13,0,0,1,.09.45,1.27,1.27,0,0,1-.14.58,1.23,1.23,0,0,1-.43.45,1.55,1.55,0,0,1-.67.2v.68a.67.67,0,0,1,0,.23s-.07.07-.14.07a.16.16,0,0,1-.14-.06.4.4,0,0,1,0-.18v-.74a1.48,1.48,0,0,1-.55-.15,1.3,1.3,0,0,1-.4-.28,1.29,1.29,0,0,1-.24-.35.92.92,0,0,1-.07-.36.33.33,0,0,1,.1-.24.33.33,0,0,1,.25-.1.35.35,0,0,1,.21.06.25.25,0,0,1,.12.16,3.6,3.6,0,0,0,.13.34.54.54,0,0,0,.16.21.62.62,0,0,0,.29.15V13.37a3.26,3.26,0,0,1-.61-.23,1,1,0,0,1-.39-.35,1,1,0,0,1-.16-.58,1,1,0,0,1,.3-.77,1.33,1.33,0,0,1,.86-.35V10.8c0-.15.06-.22.17-.22S18,10.65,18,10.8Zm-.35,1.86v-1a1,1,0,0,0-.35.18.5.5,0,0,0,0,.66A1,1,0,0,0,17.69,12.66Zm.35.81v1.19a.77.77,0,0,0,.42-.22.56.56,0,0,0,.15-.39.47.47,0,0,0-.14-.36A1.15,1.15,0,0,0,18,13.47Z"/><path class="cls-1" d="M22.67,22.56h16.8a.55.55,0,1,0,0-1.09H22.67a.55.55,0,1,0,0,1.09Z"/><path class="cls-1" d="M22.67,19.75H33.16a.54.54,0,1,0,0-1.08H22.67a.54.54,0,1,0,0,1.08Z"/><path class="cls-1" d="M18,18v.29a1.75,1.75,0,0,1,.5.12,1,1,0,0,1,.36.27,1.32,1.32,0,0,1,.19.29.66.66,0,0,1,.06.27.3.3,0,0,1-.1.23.3.3,0,0,1-.24.1.34.34,0,0,1-.34-.29.6.6,0,0,0-.43-.45V20c.22.06.4.12.53.17a1,1,0,0,1,.36.22,1,1,0,0,1,.26.36,1.1,1.1,0,0,1,.09.45,1.27,1.27,0,0,1-.14.58,1.13,1.13,0,0,1-.43.44,1.43,1.43,0,0,1-.67.21v.67a.7.7,0,0,1,0,.24c0,.05-.07.07-.14.07a.16.16,0,0,1-.14-.06.4.4,0,0,1,0-.18v-.74a1.48,1.48,0,0,1-.55-.15,1.3,1.3,0,0,1-.4-.28,1.29,1.29,0,0,1-.24-.35,1,1,0,0,1-.07-.36.33.33,0,0,1,.1-.24.33.33,0,0,1,.25-.1A.43.43,0,0,1,17,21a.28.28,0,0,1,.12.16,2.24,2.24,0,0,0,.13.34.57.57,0,0,0,.16.22.62.62,0,0,0,.29.15V20.61a4.15,4.15,0,0,1-.61-.23,1,1,0,0,1-.39-.35,1.05,1.05,0,0,1-.16-.59,1,1,0,0,1,.3-.76,1.33,1.33,0,0,1,.86-.35V18c0-.15.06-.23.17-.23S18,17.89,18,18Zm-.35,1.86v-1a.77.77,0,0,0-.35.18.5.5,0,0,0,0,.66A1.18,1.18,0,0,0,17.69,19.9Zm.35.81V21.9a.77.77,0,0,0,.42-.22.56.56,0,0,0,.15-.39.46.46,0,0,0-.14-.36A1.15,1.15,0,0,0,18,20.71Z"/><path class="cls-1" d="M22.67,29.8h16.8a.59.59,0,0,0,.55-.55.58.58,0,0,0-.55-.54H22.67a.59.59,0,0,0-.55.54A.6.6,0,0,0,22.67,29.8Z"/><path class="cls-1" d="M22.67,27H33.16a.59.59,0,0,0,.55-.54.6.6,0,0,0-.55-.55H22.67a.6.6,0,0,0-.55.55A.59.59,0,0,0,22.67,27Z"/><path class="cls-1" d="M18,25.27v.3a1.75,1.75,0,0,1,.5.12,1,1,0,0,1,.36.27,1.54,1.54,0,0,1,.19.28.74.74,0,0,1,.06.27.33.33,0,0,1-.1.24.33.33,0,0,1-.24.1.34.34,0,0,1-.34-.29.6.6,0,0,0-.43-.45v1.13c.22.06.4.12.53.17a1,1,0,0,1,.36.22,1.1,1.1,0,0,1,.26.35,1.14,1.14,0,0,1,.09.46,1.27,1.27,0,0,1-.14.58,1.13,1.13,0,0,1-.43.44,1.56,1.56,0,0,1-.67.21v.67a.7.7,0,0,1,0,.24.15.15,0,0,1-.14.07.16.16,0,0,1-.14-.06.41.41,0,0,1,0-.19v-.73a1.48,1.48,0,0,1-.55-.15,1.5,1.5,0,0,1-.4-.28,1.33,1.33,0,0,1-.24-.36.92.92,0,0,1-.07-.36.32.32,0,0,1,.1-.23.34.34,0,0,1,.25-.11.35.35,0,0,1,.21.06.28.28,0,0,1,.12.16,2.77,2.77,0,0,0,.13.34.65.65,0,0,0,.16.22.87.87,0,0,0,.29.15V27.84a3.29,3.29,0,0,1-.61-.22,1,1,0,0,1-.39-.35,1.05,1.05,0,0,1-.16-.59,1,1,0,0,1,.3-.76,1.33,1.33,0,0,1,.86-.35v-.29c0-.15.06-.23.17-.23S18,25.13,18,25.27Zm-.35,1.87v-1a.77.77,0,0,0-.35.18.39.39,0,0,0-.13.33.42.42,0,0,0,.12.33A1.18,1.18,0,0,0,17.69,27.14ZM18,28v1.19a.77.77,0,0,0,.42-.22.58.58,0,0,0,.15-.39.5.5,0,0,0-.14-.37A1.15,1.15,0,0,0,18,28Z"/><path class="cls-1" d="M22.67,37h16.8a.54.54,0,1,0,0-1.08H22.67a.54.54,0,1,0,0,1.08Z"/><path class="cls-1" d="M22.67,34.23H33.16a.55.55,0,1,0,0-1.09H22.67a.55.55,0,1,0,0,1.09Z"/><path class="cls-1" d="M18,32.51v.3a1.75,1.75,0,0,1,.5.12,1,1,0,0,1,.36.27,1.26,1.26,0,0,1,.19.28.74.74,0,0,1,.06.27.33.33,0,0,1-.1.24.33.33,0,0,1-.24.1.34.34,0,0,1-.34-.29.6.6,0,0,0-.43-.45v1.13a3.71,3.71,0,0,1,.53.17,1,1,0,0,1,.36.22.92.92,0,0,1,.26.35,1.14,1.14,0,0,1,.09.46,1.3,1.3,0,0,1-.14.58,1.13,1.13,0,0,1-.43.44,1.55,1.55,0,0,1-.67.2v.68a.63.63,0,0,1,0,.23.14.14,0,0,1-.14.08.16.16,0,0,1-.14-.06.41.41,0,0,1,0-.19v-.73a1.48,1.48,0,0,1-.55-.15,1.24,1.24,0,0,1-.64-.64.92.92,0,0,1-.07-.36.3.3,0,0,1,.1-.23.34.34,0,0,1,.25-.11.35.35,0,0,1,.21.06.28.28,0,0,1,.12.16,2.77,2.77,0,0,0,.13.34.65.65,0,0,0,.16.22.87.87,0,0,0,.29.15V35.08a3.29,3.29,0,0,1-.61-.22,1,1,0,0,1-.39-.35,1.08,1.08,0,0,1-.16-.59,1,1,0,0,1,.3-.77,1.33,1.33,0,0,1,.86-.34v-.29c0-.15.06-.23.17-.23S18,32.36,18,32.51Zm-.35,1.87v-1a.88.88,0,0,0-.35.17.42.42,0,0,0-.13.34.45.45,0,0,0,.12.33A1.18,1.18,0,0,0,17.69,34.38Zm.35.8v1.19a.71.71,0,0,0,.42-.22.55.55,0,0,0,.15-.38.5.5,0,0,0-.14-.37A1.32,1.32,0,0,0,18,35.18Z"/><path class="cls-1" d="M22.67,44.27h16.8a.54.54,0,1,0,0-1.08H22.67a.54.54,0,1,0,0,1.08Z"/><path class="cls-1" d="M22.67,41.47H33.16a.55.55,0,1,0,0-1.09H22.67a.55.55,0,1,0,0,1.09Z"/><path class="cls-1" d="M18,39.75V40a1.75,1.75,0,0,1,.5.12,1,1,0,0,1,.36.28,1.26,1.26,0,0,1,.19.28.74.74,0,0,1,.06.27.29.29,0,0,1-.1.23.3.3,0,0,1-.24.1.33.33,0,0,1-.34-.28.63.63,0,0,0-.43-.46v1.13l.53.17a1.09,1.09,0,0,1,.36.22,1,1,0,0,1,.26.36,1.14,1.14,0,0,1,.09.46,1.3,1.3,0,0,1-.14.58,1.21,1.21,0,0,1-.43.44,1.55,1.55,0,0,1-.67.2v.68a.67.67,0,0,1,0,.23c0,.05-.07.07-.14.07a.18.18,0,0,1-.14,0,.45.45,0,0,1,0-.19v-.73a2,2,0,0,1-.55-.15,1.33,1.33,0,0,1-.4-.29,1.29,1.29,0,0,1-.24-.35.92.92,0,0,1-.07-.36.33.33,0,0,1,.1-.24.37.37,0,0,1,.25-.1.35.35,0,0,1,.21.06.28.28,0,0,1,.12.16,2.77,2.77,0,0,0,.13.34.54.54,0,0,0,.16.21.62.62,0,0,0,.29.15V42.32a4.21,4.21,0,0,1-.61-.22,1,1,0,0,1-.39-.36,1,1,0,0,1-.16-.58,1,1,0,0,1,.3-.77,1.39,1.39,0,0,1,.86-.35v-.28c0-.16.06-.23.17-.23S18,39.6,18,39.75Zm-.35,1.86v-1a1,1,0,0,0-.35.18.42.42,0,0,0-.13.34.41.41,0,0,0,.12.32A1,1,0,0,0,17.69,41.61Zm.35.81v1.19a.71.71,0,0,0,.42-.22.55.55,0,0,0,.15-.38.5.5,0,0,0-.14-.37A1.15,1.15,0,0,0,18,42.42Z"/><path class="cls-2" d="M29.84,31.69a1.26,1.26,0,0,0,2.52,0,1.26,1.26,0,0,0-2.52,0Z"/><rect class="cls-2" x="35.2" y="45.96" width="2.52" height="2.49"/><path class="cls-2" d="M48.21,31.89a3.51,3.51,0,0,0-3.52-3.47H43.17v1.24a2.12,2.12,0,0,1,1.66,2,2.06,2.06,0,0,1-2.06,2h-.15a2,2,0,0,1-2-2,2.12,2.12,0,0,1,1.65-2V28.42H37.41v1.24a2.12,2.12,0,0,1,1.66,2,2.06,2.06,0,0,1-2.06,2h-.15a2,2,0,0,1-2-2,2.11,2.11,0,0,1,1.65-2V28.42h-5v1.24a2.12,2.12,0,0,1,1.66,2,2.06,2.06,0,0,1-4.11,0,2.12,2.12,0,0,1,1.66-2V28.42H29.18a3.46,3.46,0,0,0-3.45,3.47v3.53H48.21Z"/><rect class="cls-2" x="41.43" y="39.42" width="2.52" height="2.49"/><polygon class="cls-2" points="43.7 54.02 47.61 50.15 43.7 50.48 43.7 54.02"/><rect class="cls-2" x="35.2" y="39.42" width="2.52" height="2.49"/><path class="cls-2" d="M35.82,31.69A1.24,1.24,0,0,0,37,32.92a1.2,1.2,0,0,0,1.15-1.23,1.15,1.15,0,1,0-2.3,0Z"/><rect class="cls-2" x="28.98" y="39.42" width="2.52" height="2.49"/><path class="cls-2" d="M25.73,54.6H43V50.09a.43.43,0,0,1,.4-.4l5-.39V36.21H25.73ZM40.63,39a.43.43,0,0,1,.4-.39h3.31a.43.43,0,0,1,.4.39V42.3a.43.43,0,0,1-.4.39H41a.43.43,0,0,1-.4-.39Zm-6.22,0a.43.43,0,0,1,.4-.39h3.31a.38.38,0,0,1,.39.39V42.3a.42.42,0,0,1-.39.39H34.81a.43.43,0,0,1-.4-.39Zm0,6.55a.42.42,0,0,1,.4-.39h3.31a.37.37,0,0,1,.39.39v3.27a.42.42,0,0,1-.39.4H34.81a.43.43,0,0,1-.4-.4ZM28.18,39a.43.43,0,0,1,.4-.39h3.31c.27,0,.47.2.4.39V42.3a.43.43,0,0,1-.4.39H28.58a.43.43,0,0,1-.4-.39Zm0,6.55a.42.42,0,0,1,.4-.39h3.31c.27,0,.47.19.4.39v3.27a.43.43,0,0,1-.4.4H28.58a.43.43,0,0,1-.4-.4Z"/><rect class="cls-2" x="28.98" y="45.96" width="2.52" height="2.49"/><path class="cls-2" d="M41.65,31.69a1.24,1.24,0,0,0,1.15,1.23A1.2,1.2,0,0,0,44,31.69a1.15,1.15,0,1,0-2.3,0Z"/><path class="cls-1" d="M44.69,27.63H43.17V26a.43.43,0,0,0-.4-.39l-.07,0-.08,0a.43.43,0,0,0-.4.39v1.64H37.41V26a.43.43,0,0,0-.4-.39l-.07,0-.08,0a.43.43,0,0,0-.4.39v1.64h-5V26a.42.42,0,0,0-.39-.39.43.43,0,0,0-.4.39v1.64H29.18a4.27,4.27,0,0,0-4.31,4.26V55.06a.43.43,0,0,0,.4.4H43.44c0-.07,0-.07.06-.07L48.93,50V50a.07.07,0,0,1,.07-.07v-18A4.27,4.27,0,0,0,44.69,27.63ZM42.8,30.46A1.24,1.24,0,0,1,44,31.69a1.2,1.2,0,0,1-1.15,1.23,1.23,1.23,0,0,1,0-2.46Zm-5.83,0a1.24,1.24,0,0,1,1.15,1.23A1.2,1.2,0,0,1,37,32.92a1.23,1.23,0,0,1,0-2.46Zm-5.87,0a1.25,1.25,0,0,1,1.26,1.24,1.26,1.26,0,0,1-2.52,0A1.24,1.24,0,0,1,31.1,30.45Zm-5.37,1.44a3.46,3.46,0,0,1,3.45-3.47H30.7v1.24a2.12,2.12,0,0,0-1.66,2,2.06,2.06,0,0,0,4.11,0,2.12,2.12,0,0,0-1.66-2V28.42h5v1.24a2.11,2.11,0,0,0-1.65,2,2,2,0,0,0,2,2H37a2.06,2.06,0,0,0,2.06-2,2.12,2.12,0,0,0-1.66-2V28.42h4.81v1.24a2.12,2.12,0,0,0-1.65,2,2,2,0,0,0,2,2h.15a2.06,2.06,0,0,0,2.06-2,2.12,2.12,0,0,0-1.66-2V28.42h1.52a3.51,3.51,0,0,1,3.52,3.47v3.53H25.73ZM43.7,54V50.48l3.91-.33Zm4.64-4.72-5,.39a.43.43,0,0,0-.4.4V54.6H25.73V36.21H48.34Z"/><path class="cls-1" d="M28.58,42.69h3.31a.43.43,0,0,0,.4-.39V39c.07-.19-.13-.39-.4-.39H28.58a.43.43,0,0,0-.4.39V42.3A.43.43,0,0,0,28.58,42.69Zm.4-3.27h2.51V41.9H29Z"/><path class="cls-1" d="M34.81,42.69h3.31a.42.42,0,0,0,.39-.39V39a.38.38,0,0,0-.39-.39H34.81a.43.43,0,0,0-.4.39V42.3A.43.43,0,0,0,34.81,42.69Zm.39-3.27h2.52V41.9H35.2Z"/><path class="cls-1" d="M41,42.69h3.31a.43.43,0,0,0,.4-.39V39a.43.43,0,0,0-.4-.39H41a.43.43,0,0,0-.4.39V42.3A.43.43,0,0,0,41,42.69Zm.4-3.27H44V41.9H41.43Z"/><path class="cls-1" d="M28.58,49.24h3.31a.43.43,0,0,0,.4-.4V45.57c.07-.2-.13-.39-.4-.39H28.58a.42.42,0,0,0-.4.39v3.27A.43.43,0,0,0,28.58,49.24ZM29,46h2.51v2.49H29Z"/><path class="cls-1" d="M34.81,49.24h3.31a.42.42,0,0,0,.39-.4V45.57a.37.37,0,0,0-.39-.39H34.81a.42.42,0,0,0-.4.39v3.27A.43.43,0,0,0,34.81,49.24ZM35.2,46h2.52v2.49H35.2Z"/></g></svg>