<?xml version="1.0" encoding="utf-8"?>
<!-- Generator: Adobe Illustrator 24.1.3, SVG Export Plug-In . SVG Version: 6.00 Build 0)  -->
<svg version="1.1" id="Layer_1" xmlns="http://www.w3.org/2000/svg" xmlns:xlink="http://www.w3.org/1999/xlink" x="0px" y="0px"
	 viewBox="0 0 40 52" style="enable-background:new 0 0 40 52;" xml:space="preserve">
<style type="text/css">
	.st0{fill:#201C42;}
	.st1{fill:#E1A556;}
</style>
<g id="Layer_1_17_">
</g>
<g>
	<g>
		<rect x="10.5" y="12.7" class="st0" width="15.3" height="2.7"/>
		<polygon class="st1" points="29.9,8 29.9,16.2 38.1,16.2 		"/>
		<path class="st0" d="M29.5,17c-0.2,0-0.4-0.2-0.4-0.4V7.4H6.3v39.4v2.3h32.4v-10V30V17H29.5z M22.7,29.6H10
			c-0.2,0-0.4-0.2-0.4-0.4c0-0.2,0.2-0.4,0.4-0.4h12.8c0.2,0,0.4,0.2,0.4,0.4C23.1,29.4,22.9,29.6,22.7,29.6z M22.7,27.1H10
			c-0.2,0-0.4-0.2-0.4-0.4c0-0.2,0.2-0.4,0.4-0.4h12.8c0.2,0,0.4,0.2,0.4,0.4C23.1,26.9,22.9,27.1,22.7,27.1z M22.7,24.7H10
			c-0.2,0-0.4-0.2-0.4-0.4c0-0.2,0.2-0.4,0.4-0.4h12.8c0.2,0,0.4,0.2,0.4,0.4C23.1,24.5,22.9,24.7,22.7,24.7z M22.7,22.1H10
			c-0.2,0-0.4-0.2-0.4-0.4c0-0.2,0.2-0.4,0.4-0.4h12.8c0.2,0,0.4,0.2,0.4,0.4C23.1,21.9,22.9,22.1,22.7,22.1z M22.7,19.6H10
			c-0.2,0-0.4-0.2-0.4-0.4c0-0.2,0.2-0.4,0.4-0.4h12.8c0.2,0,0.4,0.2,0.4,0.4C23.1,19.4,22.9,19.6,22.7,19.6z M26.6,15.7
			c0,0.2-0.2,0.4-0.4,0.4H10.1c-0.2,0-0.4-0.2-0.4-0.4v-3.5c0-0.2,0.2-0.4,0.4-0.4h16.1c0.2,0,0.4,0.2,0.4,0.4V15.7z"/>
		<path class="st0" d="M5.9,6.6h20.3l-1.9-1.8h-23v41.7h4.2V7C5.5,6.8,5.7,6.6,5.9,6.6z"/>
		<path class="st1" d="M39.4,16.3l-9.6-9.6c-0.1-0.1-0.2-0.1-0.3-0.1h-2.2l-2.5-2.5C24.7,4,24.6,4,24.5,4H1C0.8,4,0.6,4.2,0.6,4.4
			v42.5c0,0.2,0.2,0.4,0.4,0.4h4.6v2.2c0,0.2,0.2,0.4,0.4,0.4h33.2c0.2,0,0.4-0.2,0.3-0.4l0.1-11.3v-8V16.6
			C39.5,16.5,39.5,16.4,39.4,16.3z M29.9,8l8.2,8.2h-8.2V8z M1.4,46.5V4.8h23l1.9,1.8H5.9C5.7,6.6,5.5,6.8,5.5,7v39.5H1.4z
			 M38.7,39.1v10H6.3v-2.3V7.4h22.8v9.2c0,0.2,0.2,0.4,0.4,0.4h9.2v13V39.1z"/>
		<path class="st1" d="M26.2,11.9H10.1c-0.2,0-0.4,0.2-0.4,0.4v3.5c0,0.2,0.2,0.4,0.4,0.4h16.1c0.2,0,0.4-0.2,0.4-0.4v-3.5
			C26.6,12.1,26.4,11.9,26.2,11.9z M25.8,15.4H10.5v-2.7h15.3V15.4z"/>
		<path class="st1" d="M22.7,18.8H10c-0.2,0-0.4,0.2-0.4,0.4c0,0.2,0.2,0.4,0.4,0.4h12.8c0.2,0,0.4-0.2,0.4-0.4
			C23.1,19,22.9,18.8,22.7,18.8z"/>
		<path class="st1" d="M22.7,21.3H10c-0.2,0-0.4,0.2-0.4,0.4c0,0.2,0.2,0.4,0.4,0.4h12.8c0.2,0,0.4-0.2,0.4-0.4
			C23.1,21.5,22.9,21.3,22.7,21.3z"/>
		<path class="st1" d="M22.7,23.9H10c-0.2,0-0.4,0.2-0.4,0.4c0,0.2,0.2,0.4,0.4,0.4h12.8c0.2,0,0.4-0.2,0.4-0.4
			C23.1,24.1,22.9,23.9,22.7,23.9z"/>
		<path class="st1" d="M22.7,26.3H10c-0.2,0-0.4,0.2-0.4,0.4c0,0.2,0.2,0.4,0.4,0.4h12.8c0.2,0,0.4-0.2,0.4-0.4
			C23.1,26.5,22.9,26.3,22.7,26.3z"/>
		<path class="st1" d="M22.7,28.8H10c-0.2,0-0.4,0.2-0.4,0.4c0,0.2,0.2,0.4,0.4,0.4h12.8c0.2,0,0.4-0.2,0.4-0.4
			C23.1,29,22.9,28.8,22.7,28.8z"/>
	</g>
	<g>
		<g>
			<path class="st1" d="M37.3,24.7c0-0.7-0.3-1.3-0.8-1.8L35.6,22c-0.5-0.5-1.1-0.8-1.8-0.8c-0.7,0-1.3,0.3-1.8,0.8l-1.5,1.5
				c-0.1,0-0.1,0-0.2,0.1l-1.3,1.3C29.1,25,29,25,29,25.1L12.1,42c0,0.1-0.1,0.1-0.1,0.2l-1.2,5.2c0,0.1,0,0.2,0.1,0.3
				c0.1,0.1,0.2,0.1,0.3,0.1l5.2-1.2c0.1,0,0.2-0.1,0.2-0.1l17.1-17c0.1-0.1,0.1-0.1,0.1-0.2l1.1-1.1c0.1-0.1,0.1-0.2,0.1-0.3v0
				l1.5-1.5C37,26,37.3,25.4,37.3,24.7z M16.1,46l-4.6,1.1l1.1-4.6l16.7-16.7l3.5,3.5L19.2,42.9l-2.8-2.8c-0.1-0.1-0.4-0.1-0.5,0
				c-0.1,0.1-0.1,0.4,0,0.5l2.8,2.8L16.1,46z M33.5,28.7l-0.8-0.8L30,25.2l0.7-0.7l3.5,3.5L33.5,28.7z M35.9,26.2l-1.2,1.2L31.2,24
				l1.2-1.2c0.4-0.3,0.8-0.5,1.3-0.5c0.5,0,1,0.2,1.3,0.5l0.9,0.9c0.3,0.4,0.5,0.8,0.5,1.3C36.4,25.4,36.2,25.9,35.9,26.2z"/>
		</g>
		<path class="st0" d="M16,40.6c-0.1-0.1-0.1-0.4,0-0.5c0.1-0.1,0.4-0.1,0.5,0l2.8,2.8l13.7-13.7l-3.5-3.5L12.7,42.5l-1.1,4.6
			l4.6-1.1l2.6-2.6L16,40.6z"/>
		<polygon class="st0" points="30,25.2 32.7,27.8 33.5,28.7 34.2,28 30.7,24.5 		"/>
		<path class="st0" d="M35.1,22.7c-0.3-0.3-0.8-0.5-1.3-0.5c-0.5,0-0.9,0.2-1.3,0.5L31.2,24l3.5,3.5l1.2-1.2
			c0.3-0.3,0.5-0.8,0.5-1.3c0-0.5-0.2-0.9-0.5-1.3L35.1,22.7z"/>
	</g>
</g>
<g>
	<rect x="31.2" y="37.5" class="st1" width="1.6" height="8.4"/>
	
		<rect x="31.2" y="37.5" transform="matrix(4.456797e-11 -1 1 4.456797e-11 -9.6554 73.7763)" class="st1" width="1.6" height="8.4"/>
</g>
</svg>
