<svg xmlns="http://www.w3.org/2000/svg" viewBox="0 0 48 55"><defs><style>.cls-1{fill:#201c42;}.cls-2{fill:#e1a556;}</style></defs><g id="Layer_2" data-name="Layer 2"><path class="cls-1" d="M12.89,26.65a.64.64,0,0,0,.61.5h2.43a.63.63,0,0,0,.6-.5l.71-3.3a12.47,12.47,0,0,0,2.43-1l2.83,1.8a.77.77,0,0,0,.81-.1L25,22.35a.62.62,0,0,0,.1-.8l-1.82-2.8a10.17,10.17,0,0,0,1-2.4l3.34-.7a.64.64,0,0,0,.51-.6v-2.4a.64.64,0,0,0-.51-.6l-3.34-.7a12.29,12.29,0,0,0-1-2.4l1.82-2.8a.64.64,0,0,0,0-.6h2.53a15.71,15.71,0,0,1,15.78,15.6v.2l2.33,9.2H39.6a.65.65,0,0,0-.61.6v9.4H22.5a.6.6,0,1,0,0,1.2H32v11.3l-21.24-.3V22.85a5.86,5.86,0,0,0,1.41.5Z"/><path class="cls-1" d="M14.61,11.25a2.8,2.8,0,1,1-2.83,2.8A2.81,2.81,0,0,1,14.61,11.25Z"/><path class="cls-1" d="M5.51,12.65l-3.24.7v1.4l3.24.7A.82.82,0,0,1,6,16a9.64,9.64,0,0,0,1.11,2.8.78.78,0,0,1,0,.7L5.4,22.15l1,.9,2.73-1.7a.88.88,0,0,1,.71,0,9.79,9.79,0,0,0,2.83,1.1.82.82,0,0,1,.5.5l.71,3.2h1.42L16,23a.82.82,0,0,1,.5-.5,9.79,9.79,0,0,0,2.83-1.1.88.88,0,0,1,.71,0l2.73,1.7,1-1-1.72-2.7a.78.78,0,0,1,0-.7,9.64,9.64,0,0,0,1.11-2.8.82.82,0,0,1,.5-.5l3.24-.7v-1.4l-3.24-.7a.82.82,0,0,1-.5-.5,9.64,9.64,0,0,0-1.11-2.8.78.78,0,0,1,0-.7L23.82,6l-1-1-2.73,1.7a.88.88,0,0,1-.71,0,8.7,8.7,0,0,0-2.83-1.1.82.82,0,0,1-.5-.5l-.71-3.2H13.9l-.71,3.2a.82.82,0,0,1-.5.5,9.79,9.79,0,0,0-2.83,1.1.88.88,0,0,1-.71,0L6.42,5l-1,1,1.72,2.7a.78.78,0,0,1,0,.7A9.64,9.64,0,0,0,6,12.15.82.82,0,0,1,5.51,12.65Zm5,1.4a4.15,4.15,0,1,1,4.15,4.1A4.08,4.08,0,0,1,10.46,14.05Z"/><path class="cls-2" d="M10.46,14.05a4.08,4.08,0,0,0,4.15,4.1,4.1,4.1,0,1,0-4.15-4.1Zm1.32,0a2.83,2.83,0,1,1,2.83,2.8A2.81,2.81,0,0,1,11.78,14.05Z"/><path class="cls-2" d="M1.05,12.85v2.4a.64.64,0,0,0,.51.6l3.34.7a12.29,12.29,0,0,0,1,2.4l-1.82,2.9a.6.6,0,0,0,0,.7l1.72,1.7a.63.63,0,0,0,.81.1l2.63-1.6v30.9a.65.65,0,0,0,.61.6H32.62a.65.65,0,0,0,.6-.6V41.75H39.6a.65.65,0,0,0,.6-.6v-9.4h6.38a.64.64,0,0,0,.6-.8l-2.73-9.9a16.56,16.56,0,0,0-5-11.9,17.85,17.85,0,0,0-13.36-4.9,18,18,0,0,0-2.32.2l-.71-.7c-.21-.2-.61-.3-.81-.1l-2.83,1.8a8.86,8.86,0,0,0-2.43-1l-.71-3.3a.64.64,0,0,0-.61-.5H13.29a.63.63,0,0,0-.6.5L12,4.45a12.47,12.47,0,0,0-2.43,1L6.72,3.75a.77.77,0,0,0-.81.1L4.19,5.55a.62.62,0,0,0-.1.8l1.82,2.8a10.17,10.17,0,0,0-1,2.4l-3.34.7A.64.64,0,0,0,1.05,12.85Zm9.72,10a5.86,5.86,0,0,0,1.41.5l.71,3.3a.64.64,0,0,0,.61.5h2.43a.63.63,0,0,0,.6-.5l.71-3.3a12.47,12.47,0,0,0,2.43-1l2.83,1.8a.77.77,0,0,0,.81-.1L25,22.35a.62.62,0,0,0,.1-.8l-1.82-2.8a10.17,10.17,0,0,0,1-2.4l3.34-.7a.64.64,0,0,0,.51-.6v-2.4a.64.64,0,0,0-.51-.6l-3.34-.7a12.29,12.29,0,0,0-1-2.4l1.82-2.8a.64.64,0,0,0,0-.6h2.53a15.71,15.71,0,0,1,15.78,15.6v.2l2.33,9.2H39.6a.65.65,0,0,0-.61.6v9.4H22.5a.6.6,0,1,0,0,1.2H32v11.3l-21.24-.3Zm-8.5-9.5,3.24-.7a.82.82,0,0,0,.5-.5,9.64,9.64,0,0,1,1.11-2.8.78.78,0,0,0,0-.7L5.4,6l1-1,2.73,1.7a.88.88,0,0,0,.71,0,9.79,9.79,0,0,1,2.83-1.1.82.82,0,0,0,.5-.5l.71-3.2h1.42L16,5.05a.82.82,0,0,0,.5.5,8.7,8.7,0,0,1,2.83,1.1.88.88,0,0,0,.71,0L22.8,5l1,1L22.1,8.55a.78.78,0,0,0,0,.7,9.64,9.64,0,0,1,1.11,2.8.82.82,0,0,0,.5.5l3.24.7v1.4l-3.24.7a.82.82,0,0,0-.5.5,9.64,9.64,0,0,1-1.11,2.8.78.78,0,0,0,0,.7l1.72,2.7-1,1-2.73-1.7a.88.88,0,0,0-.71,0,9.79,9.79,0,0,1-2.83,1.1.82.82,0,0,0-.5.5l-.71,3.2H13.9L13.19,23a.82.82,0,0,0-.5-.5,9.79,9.79,0,0,1-2.83-1.1.88.88,0,0,0-.71,0l-2.73,1.7-1-.9,1.72-2.7a.78.78,0,0,0,0-.7A9.64,9.64,0,0,1,6,16a.82.82,0,0,0-.5-.5l-3.24-.7Z"/></g></svg>