<svg xmlns="http://www.w3.org/2000/svg" viewBox="0 0 40 52"><defs><style>.cls-1{fill:#e1a556;}.cls-2{fill:#201c42;}</style></defs><g id="Layer_2" data-name="Layer 2"><rect class="cls-1" x="1" y="0.67" width="34.38" height="46.14" rx="1.24"/><rect class="cls-2" x="2.35" y="2.48" width="31.68" height="42.52" rx="0.81"/><path class="cls-1" d="M12.67,11.32h16.8a.55.55,0,1,0,0-1.09H12.67a.55.55,0,1,0,0,1.09Z"/><path class="cls-1" d="M12.67,8.51H23.16A.59.59,0,0,0,23.71,8a.59.59,0,0,0-.55-.54H12.67a.59.59,0,0,0-.55.54A.59.59,0,0,0,12.67,8.51Z"/><path class="cls-1" d="M8,6.8v.29a1.75,1.75,0,0,1,.5.12,1,1,0,0,1,.36.27,1.6,1.6,0,0,1,.19.29A.74.74,0,0,1,9.15,8a.29.29,0,0,1-.1.23.3.3,0,0,1-.24.1.33.33,0,0,1-.34-.29A.63.63,0,0,0,8,7.63V8.76c.22.06.4.12.53.17a1,1,0,0,1,.36.22,1,1,0,0,1,.26.36,1.13,1.13,0,0,1,.09.45,1.27,1.27,0,0,1-.14.58,1.23,1.23,0,0,1-.43.45,1.55,1.55,0,0,1-.67.2v.68a.67.67,0,0,1,0,.23c0,.05-.07.07-.14.07a.16.16,0,0,1-.14-.06.4.4,0,0,1,0-.18v-.74A1.48,1.48,0,0,1,7.14,11a1.3,1.3,0,0,1-.4-.28,1.29,1.29,0,0,1-.24-.35.92.92,0,0,1-.07-.36.33.33,0,0,1,.1-.24.33.33,0,0,1,.25-.1A.35.35,0,0,1,7,9.77a.25.25,0,0,1,.12.16,3.6,3.6,0,0,0,.13.34.54.54,0,0,0,.16.21.62.62,0,0,0,.29.15V9.37a3.26,3.26,0,0,1-.61-.23,1,1,0,0,1-.39-.35,1,1,0,0,1-.16-.58,1,1,0,0,1,.3-.77,1.33,1.33,0,0,1,.86-.35V6.8c0-.15.06-.22.17-.22S8,6.65,8,6.8ZM7.69,8.66v-1a1,1,0,0,0-.35.18.5.5,0,0,0,0,.66A1,1,0,0,0,7.69,8.66ZM8,9.47v1.19a.77.77,0,0,0,.42-.22.56.56,0,0,0,.15-.39.47.47,0,0,0-.14-.36A1.15,1.15,0,0,0,8,9.47Z"/><path class="cls-1" d="M12.67,18.56h16.8a.55.55,0,1,0,0-1.09H12.67a.55.55,0,1,0,0,1.09Z"/><path class="cls-1" d="M12.67,15.75H23.16a.54.54,0,1,0,0-1.08H12.67a.54.54,0,1,0,0,1.08Z"/><path class="cls-1" d="M8,14v.29a1.75,1.75,0,0,1,.5.12,1,1,0,0,1,.36.27,1.32,1.32,0,0,1,.19.29.66.66,0,0,1,.06.27.3.3,0,0,1-.1.23.3.3,0,0,1-.24.1.34.34,0,0,1-.34-.29A.6.6,0,0,0,8,14.87V16c.22.06.4.12.53.17a1,1,0,0,1,.36.22,1,1,0,0,1,.26.36,1.1,1.1,0,0,1,.09.45,1.27,1.27,0,0,1-.14.58,1.13,1.13,0,0,1-.43.44,1.43,1.43,0,0,1-.67.21v.67a.7.7,0,0,1,0,.24c0,.05-.07.07-.14.07a.16.16,0,0,1-.14-.06.4.4,0,0,1,0-.18v-.74a1.48,1.48,0,0,1-.55-.15,1.3,1.3,0,0,1-.4-.28,1.29,1.29,0,0,1-.24-.35,1,1,0,0,1-.07-.36.33.33,0,0,1,.1-.24.33.33,0,0,1,.25-.1A.43.43,0,0,1,7,17a.28.28,0,0,1,.12.16,2.24,2.24,0,0,0,.13.34.57.57,0,0,0,.16.22.62.62,0,0,0,.29.15V16.61a4.15,4.15,0,0,1-.61-.23A1,1,0,0,1,6.69,16a1.05,1.05,0,0,1-.16-.59,1,1,0,0,1,.3-.76,1.33,1.33,0,0,1,.86-.35V14c0-.15.06-.23.17-.23S8,13.89,8,14ZM7.69,15.9v-1a.77.77,0,0,0-.35.18.5.5,0,0,0,0,.66A1.18,1.18,0,0,0,7.69,15.9Zm.35.81V17.9a.77.77,0,0,0,.42-.22.56.56,0,0,0,.15-.39.46.46,0,0,0-.14-.36A1.15,1.15,0,0,0,8,16.71Z"/><path class="cls-1" d="M12.67,25.8h16.8a.59.59,0,0,0,.55-.55.58.58,0,0,0-.55-.54H12.67a.59.59,0,0,0-.55.54A.6.6,0,0,0,12.67,25.8Z"/><path class="cls-1" d="M12.67,23H23.16a.59.59,0,0,0,.55-.54.6.6,0,0,0-.55-.55H12.67a.6.6,0,0,0-.55.55A.59.59,0,0,0,12.67,23Z"/><path class="cls-1" d="M8,21.27v.3a1.75,1.75,0,0,1,.5.12A1,1,0,0,1,8.9,22a1.54,1.54,0,0,1,.19.28.74.74,0,0,1,.06.27.33.33,0,0,1-.1.24.33.33,0,0,1-.24.1.34.34,0,0,1-.34-.29A.6.6,0,0,0,8,22.11v1.13c.22.06.4.12.53.17a1,1,0,0,1,.36.22,1.1,1.1,0,0,1,.26.35,1.14,1.14,0,0,1,.09.46,1.27,1.27,0,0,1-.14.58,1.13,1.13,0,0,1-.43.44,1.56,1.56,0,0,1-.67.21v.67a.7.7,0,0,1,0,.24.15.15,0,0,1-.14.07.16.16,0,0,1-.14-.06.41.41,0,0,1,0-.19v-.73a1.48,1.48,0,0,1-.55-.15,1.5,1.5,0,0,1-.4-.28,1.33,1.33,0,0,1-.24-.36.92.92,0,0,1-.07-.36.32.32,0,0,1,.1-.23.34.34,0,0,1,.25-.11.35.35,0,0,1,.21.06.28.28,0,0,1,.12.16,2.77,2.77,0,0,0,.13.34A.65.65,0,0,0,7.4,25a.87.87,0,0,0,.29.15V23.84a3.29,3.29,0,0,1-.61-.22,1,1,0,0,1-.39-.35,1.05,1.05,0,0,1-.16-.59,1,1,0,0,1,.3-.76,1.33,1.33,0,0,1,.86-.35v-.29c0-.15.06-.23.17-.23S8,21.13,8,21.27Zm-.35,1.87v-1a.77.77,0,0,0-.35.18.39.39,0,0,0-.13.33.42.42,0,0,0,.12.33A1.18,1.18,0,0,0,7.69,23.14ZM8,24v1.19a.77.77,0,0,0,.42-.22.58.58,0,0,0,.15-.39.5.5,0,0,0-.14-.37A1.15,1.15,0,0,0,8,24Z"/><path class="cls-1" d="M12.67,33h16.8a.54.54,0,1,0,0-1.08H12.67a.54.54,0,1,0,0,1.08Z"/><path class="cls-1" d="M12.67,30.23H23.16a.55.55,0,1,0,0-1.09H12.67a.55.55,0,1,0,0,1.09Z"/><path class="cls-1" d="M8,28.51v.3a1.75,1.75,0,0,1,.5.12,1,1,0,0,1,.36.27,1.26,1.26,0,0,1,.19.28.74.74,0,0,1,.06.27.33.33,0,0,1-.1.24.33.33,0,0,1-.24.1.34.34,0,0,1-.34-.29A.6.6,0,0,0,8,29.35v1.13a3.71,3.71,0,0,1,.53.17,1,1,0,0,1,.36.22.92.92,0,0,1,.26.35,1.14,1.14,0,0,1,.09.46,1.3,1.3,0,0,1-.14.58,1.13,1.13,0,0,1-.43.44,1.55,1.55,0,0,1-.67.2v.68a.63.63,0,0,1,0,.23.14.14,0,0,1-.14.08.16.16,0,0,1-.14-.06.41.41,0,0,1,0-.19v-.73a1.48,1.48,0,0,1-.55-.15,1.24,1.24,0,0,1-.64-.64.92.92,0,0,1-.07-.36.3.3,0,0,1,.1-.23.34.34,0,0,1,.25-.11.35.35,0,0,1,.21.06.28.28,0,0,1,.12.16,2.77,2.77,0,0,0,.13.34.65.65,0,0,0,.16.22.87.87,0,0,0,.29.15V31.08a3.29,3.29,0,0,1-.61-.22,1,1,0,0,1-.39-.35,1.08,1.08,0,0,1-.16-.59,1,1,0,0,1,.3-.77,1.33,1.33,0,0,1,.86-.34v-.29c0-.15.06-.23.17-.23S8,28.36,8,28.51Zm-.35,1.87v-1a.88.88,0,0,0-.35.17.42.42,0,0,0-.13.34.45.45,0,0,0,.12.33A1.18,1.18,0,0,0,7.69,30.38Zm.35.8v1.19a.71.71,0,0,0,.42-.22.55.55,0,0,0,.15-.38.5.5,0,0,0-.14-.37A1.32,1.32,0,0,0,8,31.18Z"/><path class="cls-1" d="M12.67,40.27h16.8a.54.54,0,1,0,0-1.08H12.67a.54.54,0,1,0,0,1.08Z"/><path class="cls-1" d="M12.67,37.47H23.16a.55.55,0,1,0,0-1.09H12.67a.55.55,0,1,0,0,1.09Z"/><path class="cls-1" d="M8,35.75V36a1.75,1.75,0,0,1,.5.12,1,1,0,0,1,.36.28,1.26,1.26,0,0,1,.19.28.74.74,0,0,1,.06.27.29.29,0,0,1-.1.23.3.3,0,0,1-.24.1A.33.33,0,0,1,8.47,37,.63.63,0,0,0,8,36.58v1.13l.53.17a1.09,1.09,0,0,1,.36.22,1,1,0,0,1,.26.36,1.14,1.14,0,0,1,.09.46,1.3,1.3,0,0,1-.14.58,1.21,1.21,0,0,1-.43.44,1.55,1.55,0,0,1-.67.2v.68a.67.67,0,0,1,0,.23c0,.05-.07.07-.14.07a.18.18,0,0,1-.14,0,.45.45,0,0,1,0-.19v-.73A2,2,0,0,1,7.14,40a1.33,1.33,0,0,1-.4-.29,1.29,1.29,0,0,1-.24-.35A.92.92,0,0,1,6.43,39a.33.33,0,0,1,.1-.24.37.37,0,0,1,.25-.1.35.35,0,0,1,.21.06.28.28,0,0,1,.12.16,2.77,2.77,0,0,0,.13.34.54.54,0,0,0,.16.21.62.62,0,0,0,.29.15V38.32a4.21,4.21,0,0,1-.61-.22,1,1,0,0,1-.39-.36,1,1,0,0,1-.16-.58,1,1,0,0,1,.3-.77A1.39,1.39,0,0,1,7.69,36v-.28c0-.16.06-.23.17-.23S8,35.6,8,35.75Zm-.35,1.86v-1a1,1,0,0,0-.35.18.42.42,0,0,0-.13.34.41.41,0,0,0,.12.32A1,1,0,0,0,7.69,37.61Zm.35.81v1.19a.71.71,0,0,0,.42-.22A.55.55,0,0,0,8.61,39a.5.5,0,0,0-.14-.37A1.15,1.15,0,0,0,8,38.42Z"/><path class="cls-2" d="M19.84,27.69a1.26,1.26,0,0,0,2.52,0,1.26,1.26,0,0,0-2.52,0Z"/><rect class="cls-2" x="25.2" y="41.96" width="2.52" height="2.49"/><path class="cls-2" d="M38.21,27.89a3.51,3.51,0,0,0-3.52-3.47H33.17v1.24a2.12,2.12,0,0,1,1.66,2,2.06,2.06,0,0,1-2.06,2h-.15a2,2,0,0,1-2-2,2.12,2.12,0,0,1,1.65-2V24.42H27.41v1.24a2.12,2.12,0,0,1,1.66,2,2.06,2.06,0,0,1-2.06,2h-.15a2,2,0,0,1-2.05-2,2.11,2.11,0,0,1,1.65-2V24.42h-5v1.24a2.12,2.12,0,0,1,1.66,2,2.06,2.06,0,0,1-4.11,0,2.12,2.12,0,0,1,1.66-2V24.42H19.18a3.46,3.46,0,0,0-3.45,3.47v3.53H38.21Z"/><rect class="cls-2" x="31.43" y="35.42" width="2.52" height="2.49"/><polygon class="cls-2" points="33.7 50.02 37.61 46.15 33.7 46.48 33.7 50.02"/><rect class="cls-2" x="25.2" y="35.42" width="2.52" height="2.49"/><path class="cls-2" d="M25.82,27.69A1.24,1.24,0,0,0,27,28.92a1.2,1.2,0,0,0,1.15-1.23,1.15,1.15,0,1,0-2.3,0Z"/><rect class="cls-2" x="18.98" y="35.42" width="2.52" height="2.49"/><path class="cls-2" d="M15.73,50.6H33V46.09a.43.43,0,0,1,.4-.4l5-.39V32.21H15.73ZM30.63,35a.43.43,0,0,1,.4-.39h3.31a.43.43,0,0,1,.4.39V38.3a.43.43,0,0,1-.4.39H31a.43.43,0,0,1-.4-.39Zm-6.22,0a.43.43,0,0,1,.4-.39h3.31a.38.38,0,0,1,.39.39V38.3a.42.42,0,0,1-.39.39H24.81a.43.43,0,0,1-.4-.39Zm0,6.55a.42.42,0,0,1,.4-.39h3.31a.37.37,0,0,1,.39.39v3.27a.42.42,0,0,1-.39.4H24.81a.43.43,0,0,1-.4-.4ZM18.18,35a.43.43,0,0,1,.4-.39h3.31c.27,0,.47.2.4.39V38.3a.43.43,0,0,1-.4.39H18.58a.43.43,0,0,1-.4-.39Zm0,6.55a.42.42,0,0,1,.4-.39h3.31c.27,0,.47.19.4.39v3.27a.43.43,0,0,1-.4.4H18.58a.43.43,0,0,1-.4-.4Z"/><rect class="cls-2" x="18.98" y="41.96" width="2.52" height="2.49"/><path class="cls-2" d="M31.65,27.69a1.24,1.24,0,0,0,1.15,1.23A1.2,1.2,0,0,0,34,27.69a1.15,1.15,0,1,0-2.3,0Z"/><path class="cls-1" d="M34.69,23.63H33.17V22a.43.43,0,0,0-.4-.39l-.07,0-.08,0a.43.43,0,0,0-.4.39v1.64H27.41V22a.43.43,0,0,0-.4-.39l-.07,0-.08,0a.43.43,0,0,0-.4.39v1.64h-5V22a.42.42,0,0,0-.39-.39.43.43,0,0,0-.4.39v1.64H19.18a4.27,4.27,0,0,0-4.31,4.26V51.06a.43.43,0,0,0,.4.4H33.44c0-.07,0-.07.06-.07L38.93,46V46a.07.07,0,0,1,.07-.07v-18A4.27,4.27,0,0,0,34.69,23.63ZM32.8,26.46A1.24,1.24,0,0,1,34,27.69a1.2,1.2,0,0,1-1.15,1.23,1.23,1.23,0,0,1,0-2.46Zm-5.83,0a1.24,1.24,0,0,1,1.15,1.23A1.2,1.2,0,0,1,27,28.92a1.23,1.23,0,0,1,0-2.46Zm-5.87,0a1.25,1.25,0,0,1,1.26,1.24,1.26,1.26,0,0,1-2.52,0A1.24,1.24,0,0,1,21.1,26.45Zm-5.37,1.44a3.46,3.46,0,0,1,3.45-3.47H20.7v1.24a2.12,2.12,0,0,0-1.66,2,2.06,2.06,0,0,0,4.11,0,2.12,2.12,0,0,0-1.66-2V24.42h5v1.24a2.11,2.11,0,0,0-1.65,2,2,2,0,0,0,2.05,2H27a2.06,2.06,0,0,0,2.06-2,2.12,2.12,0,0,0-1.66-2V24.42h4.81v1.24a2.12,2.12,0,0,0-1.65,2,2,2,0,0,0,2,2h.15a2.06,2.06,0,0,0,2.06-2,2.12,2.12,0,0,0-1.66-2V24.42h1.52a3.51,3.51,0,0,1,3.52,3.47v3.53H15.73ZM33.7,50V46.48l3.91-.33Zm4.64-4.72-5,.39a.43.43,0,0,0-.4.4V50.6H15.73V32.21H38.34Z"/><path class="cls-1" d="M18.58,38.69h3.31a.43.43,0,0,0,.4-.39V35c.07-.19-.13-.39-.4-.39H18.58a.43.43,0,0,0-.4.39V38.3A.43.43,0,0,0,18.58,38.69Zm.4-3.27h2.51V37.9H19Z"/><path class="cls-1" d="M24.81,38.69h3.31a.42.42,0,0,0,.39-.39V35a.38.38,0,0,0-.39-.39H24.81a.43.43,0,0,0-.4.39V38.3A.43.43,0,0,0,24.81,38.69Zm.39-3.27h2.52V37.9H25.2Z"/><path class="cls-1" d="M31,38.69h3.31a.43.43,0,0,0,.4-.39V35a.43.43,0,0,0-.4-.39H31a.43.43,0,0,0-.4.39V38.3A.43.43,0,0,0,31,38.69Zm.4-3.27H34V37.9H31.43Z"/><path class="cls-1" d="M18.58,45.24h3.31a.43.43,0,0,0,.4-.4V41.57c.07-.2-.13-.39-.4-.39H18.58a.42.42,0,0,0-.4.39v3.27A.43.43,0,0,0,18.58,45.24ZM19,42h2.51v2.49H19Z"/><path class="cls-1" d="M24.81,45.24h3.31a.42.42,0,0,0,.39-.4V41.57a.37.37,0,0,0-.39-.39H24.81a.42.42,0,0,0-.4.39v3.27A.43.43,0,0,0,24.81,45.24ZM25.2,42h2.52v2.49H25.2Z"/></g></svg>